<svg xmlns="http://www.w3.org/2000/svg">
  <defs>
    <symbol id="bitbucket" viewBox="0 0 24 24">
      <title>Bitbucket</title>
      <path d="M.778 1.213a.768.768 0 00-.768.892l3.263 19.81c.084.5.515.868 1.022.873H19.95a.772.772 0 00.77-.646l3.27-20.03a.768.768 0 00-.768-.891zM14.52 15.53H9.522L8.17 8.466h7.561z"/>
    </symbol>
    <symbol id="css3" viewBox="0 0 24 24">
      <title>CSS3</title>
      <path d="M1.5 0h21l-1.91 21.563L11.977 24l-8.565-2.438L1.5 0zm17.09 4.413L5.41 4.41l.213 2.622 10.125.002-.255 2.716h-6.64l.24 2.573h6.182l-.366 3.523-2.91.804-2.956-.81-.188-2.11h-2.61l.29 3.855L12 19.288l5.373-1.53L18.59 4.414z"/>
    </symbol>
    <symbol id="eleventy" viewBox="0 0 24 24">
      <title>Eleventy</title>
      <path d="M3.398 12V0h17.204v24H3.398zm13.17 6.07a1.07 1.07 0 00.373-.107c.432-.213.68-.672.877-1.626.076-.372 1.195-6.168 1.209-6.263.026-.186-.008-.382-.084-.476a.325.325 0 00-.087-.064l-.06-.031h-.291c-.253 0-.298 0-.348.02-.113.039-.207.156-.255.316-.011.038-.168.881-.348 1.873l-.328 1.802-.046-.21c-.56-2.547-.764-3.452-.794-3.532a.383.383 0 00-.103-.16c-.105-.107-.117-.11-.567-.11-.411 0-.422 0-.5.074-.086.079-.122.216-.111.42.006.115.045.27.688 2.784.663 2.587.751 2.943.787 3.177.046.3-.05.713-.208.893-.032.037-.037.039-.084.032-.028 0-.12-.027-.204-.051-.268-.078-.362-.072-.462.028-.096.096-.137.248-.138.51 0 .256.028.34.159.473.131.133.324.208.595.23.164.012.22.012.33-.001zm-1.896-1.712a.31.31 0 00.16-.192c.02-.058.022-.098.022-.356 0-.255-.003-.299-.021-.354-.04-.121-.136-.196-.278-.217-.041-.01-.2-.01-.355-.01-.365-.001-.378-.01-.446-.184-.068-.18-.096-.326-.113-.602a85.799 85.799 0 01-.012-1.94v-1.765h.35c.454 0 .507-.01.602-.113a.465.465 0 00.102-.24 3.273 3.273 0 000-.534c-.026-.16-.099-.271-.211-.322-.057-.025-.065-.026-.45-.03h-.392l-.003-1.22c-.003-1.09-.005-1.227-.021-1.278a.378.378 0 00-.201-.247c-.052-.024-.072-.025-.32-.029-.27 0-.356 0-.429.038-.087.042-.148.133-.185.278-.014.054-.032.346-.076 1.262l-.06 1.194s-.08 0-.18.01c-.206.01-.263.022-.327.086-.092.092-.12.19-.127.455-.01.334.02.487.115.588.075.081.134.1.345.106l.173.01v1.785c0 1.7.006 2.019.034 2.274.041.37.13.709.241.928.194.38.544.617.988.668h1.005l.07-.04zm-7.447 0c.098-.053.16-.154.2-.332.016-.077.018-.401.018-4.518 0-4.184-.001-4.44-.02-4.51-.05-.194-.19-.29-.378-.26-.035.01-.344.084-.686.175-.343.09-.684.18-.758.198-.17.043-.214.062-.281.126-.105.098-.122.185-.122.606 0 .416.016.5.12.604.094.095.189.1.456.03.103-.026.193-.048.2-.048.01 0 .014.784.017 3.763.003 3.436.005 3.77.021 3.84.048.202.113.296.236.34.034.013.133.016.487.014.435 0 .445 0 .49-.027zm3.203 0c.092-.046.152-.135.197-.29l.024-.084.003-4.435c.002-3.194 0-4.456-.01-4.509-.033-.2-.145-.308-.322-.308-.066 0-.198.03-.857.204-.56.147-.799.214-.849.239a.34.34 0 00-.17.184c-.024.06-.024.071-.024.479 0 .415 0 .417.026.483a.362.362 0 00.083.12c.1.1.172.105.456.034a5.46 5.46 0 01.208-.05c.008 0 .012 1.202.014 3.791l.003 3.79.026.086a.48.48 0 00.135.23c.078.062.085.063.57.06.414 0 .447 0 .487-.024z"/>
    </symbol>
    <symbol id="figma" viewBox="0 0 24 24">
      <title>Figma</title>
      <path d="M15.852 8.981h-4.588V0h4.588c2.476 0 4.49 2.014 4.49 4.49s-2.014 4.491-4.49 4.491zM12.735 7.51h3.117c1.665 0 3.019-1.355 3.019-3.019s-1.355-3.019-3.019-3.019h-3.117V7.51zm0 1.471H8.148c-2.476 0-4.49-2.014-4.49-4.49S5.672 0 8.148 0h4.588v8.981zm-4.587-7.51c-1.665 0-3.019 1.355-3.019 3.019s1.354 3.02 3.019 3.02h3.117V1.471H8.148zm4.587 15.019H8.148c-2.476 0-4.49-2.014-4.49-4.49s2.014-4.49 4.49-4.49h4.588v8.98zM8.148 8.981c-1.665 0-3.019 1.355-3.019 3.019s1.355 3.019 3.019 3.019h3.117V8.981H8.148zM8.172 24c-2.489 0-4.515-2.014-4.515-4.49s2.014-4.49 4.49-4.49h4.588v4.441c0 2.503-2.047 4.539-4.563 4.539zm-.024-7.51a3.023 3.023 0 0 0-3.019 3.019c0 1.665 1.365 3.019 3.044 3.019 1.705 0 3.093-1.376 3.093-3.068v-2.97H8.148zm7.704 0h-.098c-2.476 0-4.49-2.014-4.49-4.49s2.014-4.49 4.49-4.49h.098c2.476 0 4.49 2.014 4.49 4.49s-2.014 4.49-4.49 4.49zm-.097-7.509c-1.665 0-3.019 1.355-3.019 3.019s1.355 3.019 3.019 3.019h.098c1.665 0 3.019-1.355 3.019-3.019s-1.355-3.019-3.019-3.019h-.098z"/>
    </symbol>
    <symbol id="firebase" viewBox="0 0 24 24">
      <title>Firebase</title>
      <path d="M3.89 15.672L6.255.461A.542.542 0 017.27.288l2.543 4.771zm16.794 3.692l-2.25-14a.54.54 0 00-.919-.295L3.316 19.365l7.856 4.427a1.621 1.621 0 001.588 0zM14.3 7.147l-1.82-3.482a.542.542 0 00-.96 0L3.53 17.984z"/>
    </symbol>
    <symbol id="git" viewBox="0 0 24 24">
      <title>Git</title>
      <path d="M23.546 10.93L13.067.452c-.604-.603-1.582-.603-2.188 0L8.708 2.627l2.76 2.76c.645-.215 1.379-.07 1.889.441.516.515.658 1.258.438 1.9l2.658 2.66c.645-.223 1.387-.078 1.9.435.721.72.721 1.884 0 2.604-.719.719-1.881.719-2.6 0-.539-.541-.674-1.337-.404-1.996L12.86 8.955v6.525c.176.086.342.203.488.348.713.721.713 1.883 0 2.6-.719.721-1.889.721-2.609 0-.719-.719-.719-1.879 0-2.598.182-.18.387-.316.605-.406V8.835c-.217-.091-.424-.222-.6-.401-.545-.545-.676-1.342-.396-2.009L7.636 3.7.45 10.881c-.6.605-.6 1.584 0 2.189l10.48 10.477c.604.604 1.582.604 2.186 0l10.43-10.43c.605-.603.605-1.582 0-2.187"/>
    </symbol>
    <symbol id="github" viewBox="0 0 24 24">
      <title>GitHub</title>
      <path d="M12 .297c-6.63 0-12 5.373-12 12 0 5.303 3.438 9.8 8.205 11.385.6.113.82-.258.82-.577 0-.285-.01-1.04-.015-2.04-3.338.724-4.042-1.61-4.042-1.61C4.422 18.07 3.633 17.7 3.633 17.7c-1.087-.744.084-.729.084-.729 1.205.084 1.838 1.236 1.838 1.236 1.07 1.835 2.809 1.305 3.495.998.108-.776.417-1.305.76-1.605-2.665-.3-5.466-1.332-5.466-5.93 0-1.31.465-2.38 1.235-3.22-.135-.303-.54-1.523.105-3.176 0 0 1.005-.322 3.3 1.23.96-.267 1.98-.399 3-.405 1.02.006 2.04.138 3 .405 2.28-1.552 3.285-1.23 3.285-1.23.645 1.653.24 2.873.12 3.176.765.84 1.23 1.91 1.23 3.22 0 4.61-2.805 5.625-5.475 5.92.42.36.81 1.096.81 2.22 0 1.606-.015 2.896-.015 3.286 0 .315.21.69.825.57C20.565 22.092 24 17.592 24 12.297c0-6.627-5.373-12-12-12"/>
    </symbol>
    <symbol id="html5" viewBox="0 0 24 24">
      <title>HTML5</title>
      <path d="M1.5 0h21l-1.91 21.563L11.977 24l-8.564-2.438L1.5 0zm7.031 9.75l-.232-2.718 10.059.003.23-2.622L5.412 4.41l.698 8.01h9.126l-.326 3.426-2.91.804-2.955-.81-.188-2.11H6.248l.33 4.171L12 19.351l5.379-1.443.744-8.157H8.531z"/>
    </symbol>
    <symbol id="javascript" viewBox="0 0 24 24">
      <title>JavaScript</title>
      <path d="M0 0h24v24H0V0zm22.034 18.276c-.175-1.095-.888-2.015-3.003-2.873-.736-.345-1.554-.585-1.797-1.14-.091-.33-.105-.51-.046-.705.15-.646.915-.84 1.515-.66.39.12.75.42.976.9 1.034-.676 1.034-.676 1.755-1.125-.27-.42-.404-.601-.586-.78-.63-.705-1.469-1.065-2.834-1.034l-.705.089c-.676.165-1.32.525-1.71 1.005-1.14 1.291-.811 3.541.569 4.471 1.365 1.02 3.361 1.244 3.616 2.205.24 1.17-.87 1.545-1.966 1.41-.811-.18-1.26-.586-1.755-1.336l-1.83 1.051c.21.48.45.689.81 1.109 1.74 1.756 6.09 1.666 6.871-1.004.029-.09.24-.705.074-1.65l.046.067zm-8.983-7.245h-2.248c0 1.938-.009 3.864-.009 5.805 0 1.232.063 2.363-.138 2.711-.33.689-1.18.601-1.566.48-.396-.196-.597-.466-.83-.855-.063-.105-.11-.196-.127-.196l-1.825 1.125c.305.63.75 1.172 1.324 1.517.855.51 2.004.675 3.207.405.783-.226 1.458-.691 1.811-1.411.51-.93.402-2.07.397-3.346.012-2.054 0-4.109 0-6.179l.004-.056z"/>
    </symbol>
    <symbol id="nodejs" viewBox="0 0 24 24">
      <title>Node.js</title>
      <path d="M11.998,24c-0.321,0-0.641-0.084-0.922-0.247l-2.936-1.737c-0.438-0.245-0.224-0.332-0.08-0.383 c0.585-0.203,0.703-0.25,1.328-0.604c0.065-0.037,0.151-0.023,0.218,0.017l2.256,1.339c0.082,0.045,0.197,0.045,0.272,0l8.795-5.076 c0.082-0.047,0.134-0.141,0.134-0.238V6.921c0-0.099-0.053-0.192-0.137-0.242l-8.791-5.072c-0.081-0.047-0.189-0.047-0.271,0 L3.075,6.68C2.99,6.729,2.936,6.825,2.936,6.921v10.15c0,0.097,0.054,0.189,0.139,0.235l2.409,1.392 c1.307,0.654,2.108-0.116,2.108-0.89V7.787c0-0.142,0.114-0.253,0.256-0.253h1.115c0.139,0,0.255,0.112,0.255,0.253v10.021 c0,1.745-0.95,2.745-2.604,2.745c-0.508,0-0.909,0-2.026-0.551L2.28,18.675c-0.57-0.329-0.922-0.945-0.922-1.604V6.921 c0-0.659,0.353-1.275,0.922-1.603l8.795-5.082c0.557-0.315,1.296-0.315,1.848,0l8.794,5.082c0.57,0.329,0.924,0.944,0.924,1.603 v10.15c0,0.659-0.354,1.273-0.924,1.604l-8.794,5.078C12.643,23.916,12.324,24,11.998,24z M19.099,13.993 c0-1.9-1.284-2.406-3.987-2.763c-2.731-0.361-3.009-0.548-3.009-1.187c0-0.528,0.235-1.233,2.258-1.233 c1.807,0,2.473,0.389,2.747,1.607c0.024,0.115,0.129,0.199,0.247,0.199h1.141c0.071,0,0.138-0.031,0.186-0.081 c0.048-0.054,0.074-0.123,0.067-0.196c-0.177-2.098-1.571-3.076-4.388-3.076c-2.508,0-4.004,1.058-4.004,2.833 c0,1.925,1.488,2.457,3.895,2.695c2.88,0.282,3.103,0.703,3.103,1.269c0,0.983-0.789,1.402-2.642,1.402 c-2.327,0-2.839-0.584-3.011-1.742c-0.02-0.124-0.126-0.215-0.253-0.215h-1.137c-0.141,0-0.254,0.112-0.254,0.253 c0,1.482,0.806,3.248,4.655,3.248C17.501,17.007,19.099,15.91,19.099,13.993z"/>
    </symbol>
    <svg id="sass" viewBox="0 0 24 24">
      <title>Sass</title>
      <path d="M12 0c6.627 0 12 5.373 12 12s-5.373 12-12 12S0 18.627 0 12 5.373 0 12 0zM9.615 15.998c.175.645.156 1.248-.024 1.792l-.065.18c-.024.061-.052.12-.078.176-.14.29-.326.56-.555.81-.698.759-1.672 1.047-2.09.805-.45-.262-.226-1.335.584-2.19.871-.918 2.12-1.509 2.12-1.509v-.003l.108-.061zm9.911-10.861c-.542-2.133-4.077-2.834-7.422-1.645-1.989.707-4.144 1.818-5.693 3.267C4.568 8.48 4.275 9.98 4.396 10.607c.427 2.211 3.457 3.657 4.703 4.73v.006c-.367.18-3.056 1.529-3.686 2.925-.675 1.47.105 2.521.615 2.655 1.575.436 3.195-.36 4.065-1.649.84-1.261.766-2.881.404-3.676.496-.135 1.08-.195 1.83-.104 2.101.24 2.521 1.56 2.43 2.1-.09.539-.523.854-.674.944-.15.091-.195.12-.181.181.015.09.091.09.21.075.165-.03 1.096-.45 1.141-1.471.045-1.29-1.186-2.729-3.375-2.7-.9.016-1.471.091-1.875.256-.03-.045-.061-.075-.105-.105-1.35-1.455-3.855-2.475-3.75-4.41.03-.705.285-2.564 4.8-4.814 3.705-1.846 6.661-1.335 7.171-.21.733 1.604-1.576 4.59-5.431 5.024-1.47.165-2.235-.404-2.431-.615-.209-.225-.239-.24-.314-.194-.12.06-.045.255 0 .375.12.3.585.825 1.396 1.095.704.225 2.43.359 4.5-.45 2.324-.899 4.139-3.405 3.614-5.505l.073.067z"/>
    </svg>
  </defs>
</svg>