<svg width="108" height="108" viewBox="0 0 108 108" fill="none" xmlns="http://www.w3.org/2000/svg">
<path d="M73.2074 15.5854C83.8153 15.5854 92.4147 24.1848 92.4147 34.7927V73.2073C92.4147 83.8152 83.8153 92.4146 73.2074 92.4146C68.976 92.4146 66.5391 85.6177 68.7302 81.9978C71.5718 77.3031 73.2074 71.7968 73.2074 65.9085C73.2074 48.7237 59.2763 34.7927 42.0915 34.7927C36.2032 34.7927 30.697 36.4283 26.0022 39.2699C22.3823 41.4609 15.5854 39.0241 15.5854 34.7927C15.5854 24.1848 24.1848 15.5854 34.7927 15.5854H73.2074Z" fill="#FBB6C7"/>
<circle cx="20.3598" cy="20.3598" r="20.3598" transform="matrix(-1 0 0 1 62.4512 45.5488)" fill="#F6557C"/>
</svg>
