<svg width="500" height="500" fill="none" xmlns="http://www.w3.org/2000/svg"><path fill-rule="evenodd" clip-rule="evenodd" d="M500 0H0v500h500V0ZM300.6 138.36c-2.987.747-6.507 1.12-10.56 1.12H164.12c-3.093 0-5.387.64-6.88 1.92-1.493 1.28-2.24 3.04-2.24 5.28 0 3.84 2.027 6.507 6.08 8l7.2 1.92c2.667.853 4.64 1.92 5.92 3.2 1.28 1.28 1.92 2.987 1.92 5.12v173.12c0 2.133-.64 3.84-1.92 5.12-1.28 1.28-3.253 2.347-5.92 3.2l-7.2 1.92c-4.053 1.493-6.08 4.16-6.08 8 0 2.133.747 3.893 2.24 5.28 1.493 1.28 3.787 1.92 6.88 1.92h101.92c3.2 0 5.547-.64 7.04-1.92 1.493-1.387 2.24-3.147 2.24-5.28 0-2.347-.533-4.16-1.6-5.44-1.067-1.28-2.827-2.133-5.28-2.56l-12.48-1.92c-2.667-.533-4.64-1.493-5.92-2.88-1.28-1.493-1.92-3.307-1.92-5.44v-76.8h20c5.867 0 10.72.64 14.56 1.92 3.947 1.173 7.627 3.36 11.04 6.56 3.413 3.093 7.253 7.413 11.52 12.96 1.707 2.24 3.413 3.627 5.12 4.16 1.813.533 3.733.427 5.76-.32 1.813-.747 3.093-1.813 3.84-3.2.853-1.493.907-3.573.16-6.24l-12.48-55.84c-.96-4.053-3.573-6.08-7.84-6.08-1.707 0-3.2.427-4.48 1.28-1.28.853-2.293 2.453-3.04 4.8-2.56 9.707-5.813 16.267-9.76 19.68-3.947 3.307-10.133 4.96-18.56 4.96h-15.84v-90.72h13.6c7.467 0 14.507 1.44 21.12 4.32 6.613 2.88 13.28 8 20 15.36 6.827 7.253 14.133 17.6 21.92 31.04 1.28 2.453 2.827 4.053 4.64 4.8 1.92.64 3.787.853 5.6.64 2.24-.427 4-1.44 5.28-3.04 1.28-1.6 1.6-3.573.96-5.92l-14.72-55.68c-1.173-4.267-2.613-7.253-4.32-8.96-1.6-1.813-4.053-2.72-7.36-2.72-1.92 0-4.053.373-6.4 1.12-2.24.747-4.853 1.493-7.84 2.24Z" fill="#AD0048"/></svg>