<svg width="1080" height="1080" viewBox="0 0 1080 1080" fill="none" xmlns="http://www.w3.org/2000/svg">
<style>
  .logo-type {
    fill: #57002A
  }

  @media (prefers-color-scheme: dark) {
    .logo-type {
      fill: #FFF0F7
    }
  }
</style>
<path d="M180.129 809.111V391.122C180.129 348.527 191.676 314.657 214.769 289.511C237.862 264.365 273.272 251.792 320.998 251.792C340.499 251.792 360.257 255.128 380.271 261.799C400.798 267.957 417.477 275.142 430.307 283.353L378.732 379.575C374.113 375.47 368.981 372.647 363.336 371.108C358.204 369.568 353.072 368.798 347.94 368.798C337.677 368.798 330.236 372.647 325.617 380.345C320.998 387.529 318.689 400.359 318.689 418.834V809.111H180.129ZM122.396 531.991V424.222H397.976V531.991H122.396Z" class="logo-type"/>
<path d="M567.357 612.818C567.357 571.25 575.568 536.353 591.99 508.128C608.925 479.903 630.222 458.606 655.882 444.236C681.541 429.867 708.226 422.683 735.938 422.683V558.164C711.819 558.164 689.239 560.473 668.198 565.092C647.671 569.197 630.992 575.612 618.162 584.336C605.846 593.06 599.688 603.58 599.688 615.897L567.357 612.818ZM461.128 809.111V424.222H599.688V809.111H461.128Z" class="logo-type"/>
<path d="M857.557 820.658C836.004 820.658 817.272 812.96 801.364 797.564C785.968 781.656 778.27 762.924 778.27 741.371C778.27 719.817 785.968 701.342 801.364 685.947C817.272 670.038 836.004 662.084 857.557 662.084C879.111 662.084 897.586 670.038 912.981 685.947C928.89 701.342 936.844 719.817 936.844 741.371C936.844 762.924 928.89 781.656 912.981 797.564C897.586 812.96 879.111 820.658 857.557 820.658Z" fill="#EF0074" class="logo-dot"/>
</svg>
