<svg xmlns="http://www.w3.org/2000/svg" xmlns:xlink="http://www.w3.org/1999/xlink" height="24" width="24"><defs><linearGradient id="e"><stop offset="0" stop-color="#64baff"/><stop offset="1" stop-color="#3689e6"/></linearGradient><linearGradient id="a"><stop offset="0" stop-color="#fff"/><stop offset="0" stop-color="#fff" stop-opacity=".235"/><stop offset="1" stop-color="#fff" stop-opacity=".157"/><stop offset="1" stop-color="#fff" stop-opacity=".392"/></linearGradient><linearGradient id="b"><stop offset="0" stop-color="#f4f4f4"/><stop offset="1" stop-color="#dbdbdb"/></linearGradient><linearGradient id="f"><stop offset="0"/><stop offset="1" stop-opacity="0"/></linearGradient><linearGradient id="c"><stop offset="0" stop-opacity="0"/><stop offset=".5"/><stop offset="1" stop-opacity="0"/></linearGradient><linearGradient gradientTransform="matrix(.4054 0 0 .51351 2.27 -.324)" gradientUnits="userSpaceOnUse" xlink:href="#a" id="k" y2="41.526" x2="24" y1="6.474" x1="24"/><linearGradient gradientTransform="matrix(.45714 0 0 .43457 1.029 .904)" gradientUnits="userSpaceOnUse" xlink:href="#b" id="j" y2="47.013" x2="25.132" y1=".985" x1="25.132"/><linearGradient gradientTransform="matrix(.0352 0 0 .00824 -.725 18.98)" gradientUnits="userSpaceOnUse" xlink:href="#c" id="g" y2="609.505" x2="302.857" y1="366.648" x1="302.857"/><linearGradient x1="22.004" y1="47.813" x2="22.004" y2="3.364" id="l" xlink:href="#d" gradientUnits="userSpaceOnUse" gradientTransform="matrix(.4507 0 0 .46667 2.149 .111)"/><linearGradient id="d"><stop offset="0" stop-color="#aaa"/><stop offset="1" stop-color="#c8c8c8"/></linearGradient><linearGradient gradientUnits="userSpaceOnUse" y2="22.509" x2="6" y1="1.501" x1="6" id="m" xlink:href="#e"/><radialGradient gradientTransform="matrix(.01205 0 0 .00824 13.239 18.98)" gradientUnits="userSpaceOnUse" xlink:href="#f" id="i" fy="486.648" fx="605.714" r="117.143" cy="486.648" cx="605.714"/><radialGradient gradientTransform="matrix(-.01205 0 0 .00824 10.761 18.98)" gradientUnits="userSpaceOnUse" xlink:href="#f" id="h" fy="486.648" fx="605.714" r="117.143" cy="486.648" cx="605.714"/></defs><path style="marker:none" opacity=".15" fill="url(#g)" overflow="visible" d="M3.5 22h17v2h-17z"/><path style="marker:none" d="M3.5 22v2c-.62.004-1.5-.448-1.5-1s.692-1 1.5-1z" opacity=".15" fill="url(#h)" overflow="visible"/><path style="marker:none" d="M20.5 22v2c.62.004 1.5-.448 1.5-1s-.692-1-1.5-1z" opacity=".15" fill="url(#i)" overflow="visible"/><path d="M4 2l16 .001V22H4V2z" fill="url(#j)"/><path d="M19.5 21.5h-15v-19h15z" fill="none" stroke="url(#k)" stroke-linecap="round"/><path d="M6 1.5l14.5.001V22.5H6" opacity=".3" fill="none" stroke="#000" stroke-linejoin="round"/><path d="M8 5.5h1.648zm1.831 0h.789zm.93 0h.394zm.549 0h.718zm.873 0h.732zm.873 0h1.17zm1.324 0h1.521zm1.662 0h1.014zm1.155 0h.254zM8 6.493h1.394zm1.535 0h2.282zm2.423 0h1.112zm1.253 0h1.043zm1.183 0h.888zm1.029 0l1.394.014zm1.52.014zM8 7.5h1.93zm2.085 0h2.084zm2.225 0h.83zm.972 0h1.957zm2.084 0h1.338zm1.493 0h.535zM8 8.5h.718zm.944 0h2.662zM8 10.493h1.394zm1.535 0h2.282zm2.423 0h1.112zm1.253 0h1.043zm1.183 0h.888zm1.029 0l1.394.014zm1.52.014zM8 11.5h1.056zm1.211 0h.972zm1.141 0h.873zm1.014 0h.38zm.535 0h.845zm1.014 0h2.212zm2.367 0h1.69zm1.83 0h.536zM8 12.5h1.775zm1.915 0h1.902zm2.043 0h.732zm.873 0h1.789zm1.93 0h2.253zm2.408 0H18zM8 13.5h1.648zm1.831 0h.789zm.93 0h.394zm.549 0h.718zm.873 0h.732zm.873 0h1.17zm1.324 0h1.521zm1.662 0h1.014zm1.155 0h.254zM8 15.493h1.394zm1.535 0h2.282zm2.423 0h1.112zm1.253 0h1.043zm1.183 0h.888zm1.029 0l1.394.014zm1.52.014zM8 16.5h1.648zm1.831 0h.789zm.93 0h.394zm.549 0h.718zm.873 0h.732zm.873 0h1.17zm1.324 0h1.521zm1.662 0h1.014zm1.155 0h.254zM8 17.5h1.746zm1.901 0h.55zm.69 0h1.254zm1.395 0h1.845zm2 0h1.253zm1.38 0h.268zm.409 0h1.591zM8 18.5h1.746zm1.901 0h.79zm.93 0h1.24zm1.38 0h1.338zm1.493 0h.535zm.676 0h.296zm.451 0h.831z" fill="none" stroke="url(#l)"/><path style="marker:none;font-variant-east_asian:normal" fill="url(#m)" d="M3.5 1.5H6v21H3.5z"/><path d="M6 21.5H4.5v-19H6" opacity=".5" fill="none" stroke="url(#k)"/><path d="M6 22.5H3.5v-21h0l2.5.001" opacity=".5" fill="none" stroke="#0d52bf" stroke-linejoin="round"/></svg>