<svg width="1080" height="1080" fill="none" xmlns="http://www.w3.org/2000/svg"><circle cx="540" cy="540" r="189.898" fill="url(#paint0_radial)"/><path d="M672.747 948.067C630.947 961.655 586.331 969 540 969c-236.93 0-429-192.07-429-429s192.07-429 429-429 429 192.07 429 429c0 102.352-35.843 196.332-95.663 270.073-8.017-34.42-29.634-63.617-58.88-81.619C851.32 674.871 872.898 609.955 872.898 540c0-183.854-149.044-332.898-332.898-332.898S207.102 356.146 207.102 540 356.146 872.898 540 872.898c26.697 0 52.66-3.143 77.539-9.078 6.482 34.95 26.87 65.018 55.208 84.247z" fill="url(#paint1_linear)"/><circle cx="746.043" cy="839.839" r="112.247" fill="url(#paint2_radial)"/><defs><radialGradient id="paint0_radial" cx="0" cy="0" r="1" gradientUnits="userSpaceOnUse" gradientTransform="rotate(141.51 198.557 353.253) scale(182.206)"><stop stop-color="#0492EA"/><stop offset="1" stop-color="#0430AB"/></radialGradient><radialGradient id="paint2_radial" cx="0" cy="0" r="1" gradientUnits="userSpaceOnUse" gradientTransform="rotate(141.51 239.908 543.64) scale(107.7)"><stop stop-color="#0492EA"/><stop offset="1" stop-color="#0430AB"/></radialGradient><linearGradient id="paint1_linear" x1="111" y1="111" x2="969" y2="969" gradientUnits="userSpaceOnUse"><stop stop-color="#0430AB"/><stop offset="1" stop-color="#0492EA"/></linearGradient></defs></svg>