<svg width="2314" height="2314" viewBox="0 0 2314 2314" fill="none" xmlns="http://www.w3.org/2000/svg">
<rect width="2314" height="2314" fill="#222222"/>
<path d="M934.5 1474.1C925.5 1474.1 921 1462.1 921 1438V842.9C921 831.4 918.7 826 914 826.7C885.6 833.9 871.3 837.5 870.9 837.5C863 838.2 859.1 830.3 859.1 813.8V762.1C859.1 747.8 863.4 739.7 872 737.9L1014.2 701.3C1015.3 701 1016.9 700.8 1019 700.8C1026.9 700.8 1030.8 709.2 1030.8 726.1V1438.1C1030.8 1462.2 1026.1 1474.2 1016.8 1474.2L934.5 1474.1V1474.1ZM1302.8 1475.2C1288.4 1475.2 1276 1474.2 1265.4 1472.2C1254.8 1470.2 1243.8 1465.7 1232.3 1458.7C1220.8 1451.7 1211.4 1442.1 1204 1429.9C1196.6 1417.7 1190.6 1400.6 1186 1378.7C1181.4 1356.8 1179 1330.8 1179 1300.6V1024.4C1179 1017.2 1177 1013.6 1173.1 1013.6H1139.7C1130.7 1013.6 1126.2 1005 1126.2 987.8V958.7C1126.2 941.1 1130.7 932.3 1139.7 932.3H1173.1C1177 932.3 1179 927.5 1179 917.8L1188.7 708.3C1189.8 689.3 1194.4 679.8 1202.7 679.8H1256.6C1265.6 679.8 1270.1 689.3 1270.1 708.3V917.8C1270.1 927.5 1272.2 932.3 1276.6 932.3H1345.3C1354.3 932.3 1358.8 941.1 1358.8 958.7V987.8C1358.8 1005 1354.3 1013.6 1345.3 1013.6H1276.4C1273.9 1013.6 1272.2 1014.2 1271.3 1015.5C1270.4 1016.7 1270 1019.7 1270 1024.4V1302.3C1270 1323.1 1271.3 1340.5 1274 1354.3C1276.7 1368.1 1280.6 1378.3 1285.8 1384.7C1291 1391.1 1296.2 1395.5 1301.4 1397.6C1306.6 1399.8 1313 1400.8 1320.5 1400.8H1358.7C1368.4 1400.8 1373.2 1407.5 1373.2 1420.7V1453C1373.2 1467.7 1368 1475.1 1357.6 1475.1L1302.8 1475.2V1475.2ZM1509.5 1539.8C1517.7 1539.8 1524.9 1533.1 1531 1519.6C1537.1 1506.1 1540.2 1487 1540.2 1462.2C1540.2 1456.4 1536.6 1436.5 1529.4 1402.4L1423.8 963.5C1423.1 958.5 1422.7 954.5 1422.7 951.6C1422.7 938.7 1425.4 932.2 1430.8 932.2H1496C1501 932.2 1505.1 933.9 1508.4 937.3C1511.7 940.7 1514.2 947.6 1515.9 958L1585.9 1328.5C1587.3 1332.8 1588.2 1335 1588.6 1335C1590 1335 1590.8 1333 1590.8 1329.1L1645.7 959.6C1647.1 948.8 1649.4 941.6 1652.4 937.8C1655.4 934 1659.3 932.1 1664 932.1H1709.2C1715.3 932.1 1718.4 939.1 1718.4 953.1C1718.4 956.3 1718 960.5 1717.3 965.5L1621.4 1464.8C1613.9 1506.1 1605.6 1537.7 1596.6 1559.6C1587.6 1581.5 1577.6 1596.4 1566.4 1604.3C1555.3 1612.2 1540.6 1616.3 1522.2 1616.7H1516.8C1487.7 1616.7 1468 1609 1457.6 1593.5C1454.7 1590.3 1453.3 1582 1453.3 1568.7C1453.3 1542.1 1457.6 1528.8 1466.2 1528.8C1466.9 1528.8 1473.4 1530.6 1485.6 1534.2C1498 1538 1505.9 1539.8 1509.5 1539.8V1539.8Z" fill="white" stroke="white" stroke-width="28" stroke-miterlimit="10"/>
<path d="M663.5 1475.1C654.5 1475.1 650 1463.1 650 1439V843.9C650 832.4 647.7 827 643 827.7C614.6 834.9 600.3 838.5 599.9 838.5C592 839.2 588.1 831.3 588.1 814.8V763.1C588.1 748.8 592.4 740.7 601 738.9L743.3 702.2C744.4 701.9 746 701.7 748.1 701.7C756 701.7 759.9 710.1 759.9 727V1439C759.9 1463.1 755.2 1475.1 745.9 1475.1H663.5V1475.1Z" fill="white" stroke="white" stroke-width="28" stroke-miterlimit="10"/>
</svg>
