<svg width="1263" height="1263" viewBox="0 0 1263 1263" fill="none" xmlns="http://www.w3.org/2000/svg">
<path d="M1069.73 805.5C1056.15 805.952 1042.71 802.651 1030.88 795.96C1023.99 824.74 1011.55 852.45 1000.88 879.96C989.3 909.767 977.74 939.613 966.2 969.5C965.959 970.15 965.522 970.709 964.95 971.1C961.54 976.1 952.57 975.76 947.22 975.87C937.63 976.07 927.73 974.92 918.74 971.46C910.9 968.603 903.864 963.896 898.23 957.74C894.53 953.5 890.1 947.5 891 941.56C890.813 941.253 890.703 940.906 890.679 940.547C890.654 940.189 890.716 939.829 890.86 939.5C894.25 931.01 897.36 922.3 900.99 913.9C902.139 908.094 904 902.451 906.53 897.1C906.508 897.001 906.491 896.901 906.48 896.8C894.48 899.09 881.48 899.7 871.12 894.91C867.518 893.201 864.156 891.025 861.12 888.44C864.274 905.618 868.919 922.488 875 938.86C887.27 971.79 904.48 1002.62 922.35 1032.79C926.47 1039.79 930.35 1047.09 935.59 1053.32C939.53 1058.04 949.59 1068.19 956.22 1062.99C961.46 1058.86 960.32 1049.18 960.22 1043.36C960.06 1034.89 959.61 1026.36 959.83 1017.86C957.346 1019.21 955.244 1021.17 953.72 1023.55C952.25 1025.89 948.08 1024.38 949.09 1021.6C951.53 1014.9 957.55 1011.51 964.03 1009.39C973.4 1006.39 983.45 1004.6 993.16 1003.02C1003.09 1001.34 1013.14 1000.4 1023.21 1000.23C1033.09 1000.13 1044.67 1000.29 1054.02 1003.77C1057.15 1004.94 1057.02 1010.3 1053.17 1010.01C1050.45 1009.8 1047.75 1009.48 1045.06 1009.12C1046.83 1018.37 1047.81 1027.82 1050.24 1036.9C1051.66 1042.23 1054.03 1047.51 1059.24 1049.97C1061.87 1051.2 1064.55 1051.74 1065.86 1048.97C1066.81 1046.97 1066.73 1043.7 1067.09 1041.51C1073.53 1001.9 1079.09 962.03 1080.55 921.88C1082.02 882.775 1078.5 843.642 1070.06 805.43L1069.73 805.5Z" fill="#00AEEF"/>
<path d="M1017.66 669.8C1007.85 678.95 998.66 689.13 987.27 695.8C988.38 699.16 990.19 702.51 993.46 704.1C997.46 706.04 1002.38 704.1 1003.17 699.67C1003.68 696.76 1008.52 696.77 1009.05 699.67C1009.89 704.37 1012.16 708.73 1016.67 710.81C1019.01 711.918 1021.69 712.088 1024.15 711.287C1026.61 710.485 1028.67 708.773 1029.91 706.5C1031.71 703.31 1036.05 705.62 1035.47 708.85C1034.56 713.85 1040.04 715.12 1043.36 713.85C1045.66 712.86 1047.57 711.133 1048.78 708.94C1049.02 708.528 1049.37 708.184 1049.78 707.94C1046.52 696.989 1042.27 686.356 1037.09 676.17C1030.88 679.5 1021.15 675.96 1017.66 669.8Z" fill="#F2B879"/>
<path d="M897.31 939.17C897.554 939.81 897.585 940.511 897.4 941.17C897.323 941.46 897.183 941.73 896.99 941.96C896.73 947.96 903.28 954.11 907.51 957.5C912.131 961.149 917.381 963.922 923 965.68C933.77 969.12 950.19 971.53 960.62 965.96C962.62 960.89 964.56 955.82 966.54 950.75C961.04 952.53 954.39 950.23 948.96 949.15C941.48 947.66 933.85 946.4 926.63 943.85C917.41 940.58 907.48 933.77 903.55 924.39C901.77 929.438 899.687 934.374 897.31 939.17V939.17Z" fill="#E27683"/>
<path d="M1019.21 590.59C1019.7 592.73 1022.78 591.87 1023.97 590.88C1024.62 590.347 1025.06 589.61 1025.23 588.79C1024.79 588.388 1024.26 588.099 1023.68 587.95C1022.55 587.66 1021.35 587.777 1020.29 588.28C1020.23 588.593 1020.1 588.886 1019.9 589.137C1019.7 589.387 1019.45 589.587 1019.16 589.72C1019.15 589.856 1019.15 589.994 1019.16 590.13C1019.16 590.285 1019.18 590.439 1019.21 590.59Z" fill="white"/>
<path d="M840.2 627.5C840.09 627.85 839.94 628.33 839.8 628.84C840.111 629.174 840.497 629.429 840.927 629.584C841.357 629.739 841.817 629.789 842.27 629.73C844.38 629.46 844.52 626.87 843.65 625.34C842 622.41 840.8 625.6 840.2 627.5Z" fill="white"/>
<path d="M914 895.14C912.76 899.14 911.05 902.98 909.77 906.96C908.85 909.82 908.15 912.73 907.38 915.63C909.54 921.3 911.49 926.53 916.26 930.73C917.779 932.052 919.427 933.218 921.18 934.21C925.32 918.47 930.18 902.47 936.67 887.57C931.611 889.768 926.421 891.651 921.13 893.21C918.86 893.87 916.46 894.5 914 895.14Z" fill="#F7941E"/>
<path d="M879.25 890.95C893.47 894.13 910.54 890.07 924.08 885.54C951.128 876.374 974.47 858.678 990.6 835.11C998.24 823.89 1004.91 810.93 1007.71 797.55C1009.54 788.79 1007.53 781.05 997.71 779.2C988.95 777.54 979.71 779.45 971.48 782.43C942.31 792.97 919.05 818.43 908.59 847.31C907.07 851.51 900.33 849.68 901.86 845.46C908.411 827.254 919.306 810.921 933.6 797.88C938.804 793.156 944.401 788.883 950.33 785.11C952.06 777.98 955.6 770.86 958.04 764.05C960.77 756.44 963.44 748.81 965.99 741.14C970.99 726.24 975.57 711.24 980.05 696.14C979.788 695.69 979.706 695.156 979.821 694.648C979.936 694.139 980.239 693.693 980.67 693.4L981.06 693.1C981.448 692.44 982.075 691.953 982.81 691.74C990.366 685.937 997.616 679.745 1004.53 673.19C1011.83 666.19 1019.16 659.19 1027.53 653.47C1028.26 653.055 1029.12 652.941 1029.93 653.152C1030.73 653.363 1031.43 653.883 1031.86 654.6C1042.79 670.778 1051.06 688.604 1056.34 707.4C1056.46 707.792 1056.5 708.204 1056.45 708.612C1056.41 709.02 1056.28 709.414 1056.08 709.77C1055.87 710.126 1055.6 710.437 1055.27 710.683C1054.94 710.929 1054.57 711.105 1054.17 711.2C1051.35 720.2 1048.57 729.2 1045.77 738.2C1052.7 739.814 1059.46 742.091 1065.95 745C1070.05 746.75 1066.51 752.73 1062.44 751C1052.74 746.87 1041.8 742.42 1031.02 744.15C1022.96 745.44 1014.46 750.71 1012.69 759.15C1010.63 768.97 1018.39 778.2 1025.5 783.86C1032.94 789.703 1041.5 793.949 1050.66 796.33C1066.09 800.41 1094.78 800.53 1093.38 777.62C1092.21 758.51 1074.51 741.4 1060.03 730.85C1059.77 730.656 1059.54 730.423 1059.35 730.16C1059 730.05 1058.67 729.87 1058.38 729.632C1058.1 729.394 1057.86 729.102 1057.69 728.773C1057.52 728.444 1057.42 728.084 1057.39 727.715C1057.35 727.345 1057.4 726.973 1057.51 726.62C1067.4 699.89 1074.31 672.83 1076.07 644.27C1076.93 630.36 1076.71 616.405 1075.4 602.53C1074.03 588.13 1070.81 574.31 1068 560.17C1067.89 559.676 1067.93 559.16 1068.1 558.686C1068.28 558.212 1068.59 557.8 1069 557.5C1070.37 552.85 1073 548.91 1075 544.5C1077.6 538.953 1079.08 532.942 1079.33 526.82C1079.73 516.57 1076.86 504.58 1068.68 497.69C1061.23 491.41 1046.68 491.2 1037.5 493.37C1034.94 493.885 1032.53 494.974 1030.45 496.555C1028.37 498.137 1026.68 500.169 1025.5 502.5C1024.87 503.74 1020.5 515.93 1021.71 516.67L1021.83 516.76C1025 518.232 1028.07 519.929 1031 521.84C1034.73 524.26 1031.32 530.2 1027.5 527.84C1011 517.64 992.21 514.77 973.11 514.38C953.476 514.022 933.839 514.967 914.33 517.21C894.87 519.44 875.41 523.4 857.13 530.54C848.322 533.967 839.846 538.194 831.81 543.17C824.1 547.98 817.35 553.84 810.13 559.29C807.96 560.93 806 557.58 807.45 555.82C809.999 552.752 812.802 549.906 815.83 547.31C815.699 547.096 815.585 546.872 815.49 546.64C811.75 537.26 808.28 529.01 800.8 521.84C797.22 518.41 792.71 514.68 787.87 513.22C782.2 511.52 776.74 514.65 772.93 518.69C765.6 526.47 763.93 537.86 765.44 548.08C766.378 553.673 767.907 559.15 770 564.42C771 567.1 771.93 570.13 773.48 572.56C774.74 574.56 776.48 575.89 778.1 577.56C778.427 577.89 778.634 578.319 778.69 578.78C778.983 579.009 779.223 579.298 779.396 579.627C779.568 579.957 779.668 580.319 779.69 580.69C780.09 586.36 779.19 592.14 779.27 597.85C779.36 603.565 779.771 609.271 780.5 614.94C782.044 626.109 784.448 637.141 787.69 647.94C793.61 668.31 800.36 689.83 810.53 708.53C820.2 726.32 835.79 738.43 852.86 748.69C871.17 759.69 889.48 767.9 910.52 771.99C912.99 772.47 912.31 776.23 909.94 776.25C891.23 776.4 873.17 767.19 857.25 758.25C848.813 753.649 840.68 748.512 832.9 742.87C831.59 762.8 829.06 782.38 830.59 802.45C832.02 821.32 836.47 840.22 845.3 857.06C852.31 870.36 863.55 887.43 879.25 890.95ZM1048.06 614.25C1048.64 613.971 1049.25 613.753 1049.87 613.6C1050.42 613.447 1051 613.424 1051.56 613.531C1052.12 613.639 1052.65 613.874 1053.1 614.219C1053.55 614.564 1053.92 615.01 1054.18 615.521C1054.43 616.032 1054.56 616.595 1054.56 617.165C1054.56 617.735 1054.43 618.298 1054.18 618.809C1053.92 619.32 1053.55 619.766 1053.1 620.111C1052.65 620.456 1052.12 620.691 1051.56 620.799C1051 620.906 1050.42 620.883 1049.87 620.73C1049.25 620.555 1048.65 620.334 1048.06 620.07C1047.52 619.798 1047.07 619.382 1046.75 618.868C1046.44 618.355 1046.27 617.763 1046.27 617.16C1046.27 616.557 1046.44 615.965 1046.75 615.452C1047.07 614.938 1047.52 614.522 1048.06 614.25ZM1014.37 585.5C1015 584.149 1015.9 582.943 1017.02 581.96C1017.1 581.87 1017.17 581.78 1017.27 581.68C1018.11 580.866 1019.1 580.236 1020.2 579.83C1021.29 579.423 1022.46 579.25 1023.62 579.32C1025.47 579.522 1027.21 580.31 1028.59 581.569C1029.96 582.828 1030.9 584.492 1031.26 586.32C1035.83 594.19 1026.47 603.08 1018.68 598.81C1017.45 598.15 1016.36 597.253 1015.48 596.17C1014.32 595.104 1013.53 593.707 1013.2 592.17C1012.88 591.042 1012.82 589.856 1013.02 588.702C1013.23 587.547 1013.69 586.453 1014.37 585.5V585.5ZM830.93 675.5C830.358 675.835 829.7 675.993 829.038 675.953C828.377 675.914 827.742 675.679 827.213 675.279C826.685 674.878 826.288 674.33 826.071 673.704C825.855 673.078 825.829 672.401 825.997 671.76C826.165 671.119 826.519 670.542 827.015 670.102C827.511 669.663 828.126 669.38 828.783 669.29C829.439 669.2 830.108 669.307 830.704 669.597C831.299 669.887 831.796 670.348 832.13 670.92C832.56 671.691 832.674 672.598 832.451 673.451C832.227 674.305 831.682 675.039 830.93 675.5ZM851.09 627.44C849.92 631.95 846.09 639.19 840.59 638.95C839.443 638.947 838.315 638.647 837.317 638.082C836.319 637.516 835.483 636.703 834.89 635.72C831.41 633.65 829.96 628.72 831.29 624.72C833.03 619.45 838.78 612.62 844.93 614.58C850.35 616.25 852.43 622.29 851.09 627.4V627.44ZM899.76 616.34C899.612 615.775 899.692 615.174 899.983 614.668C900.275 614.162 900.754 613.791 901.317 613.635C901.88 613.48 902.482 613.553 902.992 613.838C903.501 614.124 903.878 614.599 904.04 615.16C907.2 623.45 913.73 642.29 925.8 634.81C935.8 628.63 932.36 615.46 932.8 605.92C932.817 605.327 933.044 604.76 933.44 604.319C933.837 603.878 934.377 603.592 934.965 603.513C935.552 603.433 936.149 603.565 936.648 603.886C937.148 604.206 937.517 604.693 937.69 605.26C941.5 617.43 939.83 636.42 925.92 641.51C910 647.29 902.4 628.63 899.76 616.3V616.34Z" fill="#00AEEF"/>
<path d="M1034 670.29C1032.21 667.06 1030.33 663.87 1028.32 660.74C1026.12 662.38 1023.99 664.14 1021.9 665.97C1023.36 667.864 1025.29 669.34 1027.5 670.25C1029.61 670.953 1031.88 670.967 1034 670.29V670.29Z" fill="#58595B"/>
<path d="M1038.5 720.36C1036.84 720.064 1035.28 719.393 1033.92 718.401C1032.56 717.408 1031.45 716.118 1030.66 714.63L1030.5 714.74C1029.55 718.81 1027.5 722.91 1026.39 726.74C1025.2 730.79 1024.21 734.87 1023.29 738.98C1028.54 737.138 1034.15 736.525 1039.68 737.19C1041.55 731.33 1043.42 725.477 1045.27 719.63C1043.13 720.535 1040.78 720.789 1038.5 720.36V720.36Z" fill="#F7941E"/>
<path d="M971.21 743.72C968.48 751.72 965.73 759.72 962.89 767.66C961.43 771.73 960.14 776.16 958.57 780.43C964.892 777.156 971.616 774.725 978.57 773.2C978.627 773.136 978.695 773.082 978.77 773.04C981.25 771.52 982.54 764.43 983.46 761.65C984.526 758.41 985.593 755.173 986.66 751.94L992.36 734.68C994.98 726.74 997.28 718.48 1000.1 710.51C998.373 710.975 996.568 711.077 994.8 710.81C990.14 710.1 986.69 707.18 984.27 703.46C980.136 716.953 975.783 730.373 971.21 743.72Z" fill="#F7941E"/>
<path d="M940 886.08C940.005 886.14 940.005 886.2 940 886.26C934.83 902.78 929 919.04 923.95 935.6C926.217 936.65 928.557 937.535 930.95 938.25C936.168 939.705 941.459 940.887 946.8 941.79C947.98 942.02 949.34 942.36 950.8 942.73C951.97 933.86 956.34 924.68 959.35 916.3C962.51 907.48 965.807 898.71 969.24 889.99C972.46 881.81 975.794 873.68 979.24 865.6C980.98 861.54 982.68 857.4 984.51 853.31C971.989 867.072 956.859 878.21 940 886.08V886.08Z" fill="#F7941E"/>
<path d="M1008.74 776.66C1009.65 777.393 1010.48 778.228 1011.2 779.15C1011.2 778.99 1011.2 778.82 1011.2 778.65C1004.04 767.65 1002.73 753.72 1014.4 744.15C1016.01 742.824 1017.75 741.665 1019.59 740.69C1020.65 735.381 1021.99 730.131 1023.59 724.96C1024.36 722.46 1025.06 719.66 1026.03 716.96C1023.04 717.959 1019.83 718.067 1016.78 717.27C1014.31 716.565 1012.01 715.346 1010.04 713.693C1008.07 712.041 1006.47 709.992 1005.35 707.68C1005.12 707.884 1004.87 708.074 1004.62 708.25C1003.7 711.44 1002.05 714.71 1001.28 717.09C999.047 723.93 996.813 730.77 994.58 737.61L987.49 759.19C986.22 763.05 985.41 768.42 983.27 772.34C983.87 772.26 984.48 772.16 985.09 772.09C992.76 771.33 1002.45 771.6 1008.74 776.66Z" fill="#F7941E"/>
<path d="M991.82 844.5C989.28 851.18 986.09 857.68 983.28 864.23C979.36 873.37 975.57 882.57 971.91 891.83C968.363 900.89 964.953 910.003 961.68 919.17C958.91 926.98 957.02 935.99 953.05 943.29C957.67 944.42 962.78 945.35 966.16 943.45C966.641 943.141 967.199 942.972 967.771 942.961C968.343 942.951 968.907 943.099 969.4 943.39C977.88 921.657 986.346 899.92 994.8 878.18C1005.8 849.83 1016.68 821.65 1025.44 792.52C1022.78 790.71 1020.27 788.705 1017.91 786.52C1016.56 785.271 1015.3 783.935 1014.13 782.52C1014.01 782.801 1013.81 783.039 1013.55 783.2C1014.99 787.291 1015.37 791.682 1014.65 795.96C1012.65 810.9 1004.65 826.05 996.26 838.35C994.84 840.5 993.35 842.5 991.82 844.5Z" fill="#F7941E"/>
<path d="M854 881.5C853.511 882.232 853.315 883.12 853.45 883.99C859.12 923.57 875.27 961.04 893.9 996.1C903.3 1013.78 913.17 1031.39 923.9 1048.32C930.09 1058.13 945.06 1077.56 958.9 1069.24C965.14 1065.49 966.56 1057.24 966.75 1050.61C967.06 1038.89 966.672 1027.17 965.59 1015.5C967.84 1014.81 970.17 1014.29 972.47 1013.78C981.53 1011.78 990.66 1009.96 999.88 1008.78C1008.68 1007.61 1017.56 1007.09 1026.44 1007.23C1030.43 1007.35 1034.41 1007.68 1038.36 1008.23C1039.68 1017.76 1041.36 1027.43 1043.52 1036.76C1045.38 1044.76 1049.09 1052.76 1057.13 1056.13C1060.53 1057.64 1064.36 1057.88 1067.92 1056.8C1072.37 1055.34 1071.98 1051.65 1072.66 1047.51C1074.54 1036.11 1076.35 1024.71 1078.02 1013.28C1084.62 968.15 1089.27 922.43 1086.8 876.78C1085.48 852.56 1082.38 828.15 1075.8 804.78C1090.12 802.12 1101.74 792.25 1099.95 775.91C1097.74 755.69 1080.46 737.32 1064.14 726.42C1074.73 700.87 1080.39 672.86 1082.14 645.35C1083.89 617.41 1082.31 586.76 1073.53 559.93L1073.6 559.85C1082.47 546.94 1087.6 531.85 1084.81 516.1C1082.55 503.5 1075 490.58 1061.6 487.79C1050.25 485.41 1033.75 484.89 1024.84 493.67C1022.41 496.06 1016.68 507.2 1016.18 514.44C1003.74 509.77 990.18 508 976.95 507.54C955.665 506.927 934.365 507.963 913.24 510.64C892.87 513.11 872.77 517.51 853.77 525.38C842.83 529.91 831.14 535.64 821.13 543.07C818.64 531.64 809.93 520.79 800.96 513.89C790.57 505.89 779.32 504.09 769.36 513.95C760.61 522.61 758 535.71 759.56 547.5C760.56 555.5 763.2 563.15 766.35 570.56C767.96 574.34 770.18 579.81 774.45 580.93C772.27 588.93 772.98 598.23 773.56 606.36C774.228 615.219 775.531 624.018 777.46 632.69C781.46 651.08 787.72 668.91 794.29 686.51C800.1 702.06 806.65 717.42 818.11 729.72C821.247 733.071 824.608 736.205 828.17 739.1C828.116 739.244 828.069 739.391 828.03 739.54C823.981 760.604 822.823 782.123 824.59 803.5C826.03 821.63 830.1 839.5 837.89 856.01C841.89 864.5 847.27 873.75 854 881.5ZM1080.55 921.93C1079.09 962.08 1073.55 1001.93 1067.09 1041.56C1066.73 1043.75 1066.81 1047.04 1065.86 1049.02C1064.55 1051.78 1061.86 1051.24 1059.24 1050.02C1054 1047.56 1051.63 1042.28 1050.24 1036.95C1047.81 1027.87 1046.83 1018.42 1045.06 1009.17C1047.75 1009.53 1050.45 1009.85 1053.17 1010.06C1056.98 1010.35 1057.17 1004.99 1054.02 1003.82C1044.67 1000.34 1033.09 1000.18 1023.21 1000.28C1013.14 1000.45 1003.09 1001.39 993.16 1003.07C983.45 1004.65 973.4 1006.39 964.03 1009.44C957.55 1011.56 951.53 1014.95 949.09 1021.65C948.09 1024.43 952.25 1025.94 953.72 1023.6C955.244 1021.22 957.346 1019.26 959.83 1017.91C959.61 1026.39 960.06 1034.91 960.22 1043.41C960.33 1049.23 961.47 1058.91 956.22 1063.04C949.63 1068.24 939.53 1058.04 935.59 1053.37C930.38 1047.14 926.47 1039.8 922.35 1032.84C904.48 1002.67 887.27 971.84 875 938.91C868.915 922.538 864.267 905.668 861.11 888.49C864.145 891.075 867.508 893.251 871.11 894.96C881.47 899.75 894.45 899.14 906.47 896.85C906.481 896.951 906.498 897.051 906.52 897.15C904 902.486 902.147 908.112 901 913.9C897.37 922.3 894.26 931.01 890.87 939.5C890.726 939.829 890.664 940.189 890.688 940.547C890.713 940.906 890.823 941.253 891.01 941.56C890.09 947.45 894.52 953.51 898.22 957.73C903.851 963.906 910.891 968.63 918.74 971.5C927.74 974.96 937.63 976.11 947.22 975.91C952.57 975.8 961.54 976.17 964.95 971.14C965.522 970.749 965.959 970.19 966.2 969.54C977.733 939.653 989.297 909.783 1000.89 879.93C1011.55 852.46 1023.99 824.75 1030.89 795.93C1042.71 802.63 1056.15 805.941 1069.73 805.5H1070.08C1078.51 843.692 1082.04 882.805 1080.57 921.89L1080.55 921.93ZM1037.13 676.16C1042.31 686.346 1046.56 696.979 1049.82 707.93C1049.41 708.174 1049.06 708.518 1048.82 708.93C1047.61 711.123 1045.7 712.85 1043.4 713.84C1040.08 715.11 1034.6 713.84 1035.51 708.84C1036.09 705.61 1031.75 703.3 1029.95 706.49C1028.71 708.765 1026.65 710.479 1024.19 711.283C1021.73 712.086 1019.05 711.917 1016.71 710.81C1012.2 708.73 1009.93 704.37 1009.09 699.67C1008.56 696.77 1003.72 696.76 1003.21 699.67C1002.42 704.15 997.49 706.04 993.5 704.1C990.23 702.51 988.42 699.16 987.31 695.8C998.7 689.15 1007.89 678.97 1017.7 669.8C1021.15 675.96 1030.88 679.5 1037.13 676.16ZM1021.9 665.97C1023.99 664.14 1026.12 662.38 1028.32 660.74C1030.32 663.87 1032.21 667.06 1034 670.29C1031.89 670.98 1029.61 670.98 1027.5 670.29C1025.29 669.369 1023.35 667.878 1021.9 665.97ZM1045.27 719.68C1043.41 725.527 1041.55 731.38 1039.68 737.24C1034.15 736.575 1028.54 737.188 1023.29 739.03C1024.21 734.92 1025.2 730.84 1026.39 726.79C1027.53 722.91 1029.55 718.79 1030.5 714.79L1030.66 714.68C1031.45 716.168 1032.56 717.458 1033.92 718.451C1035.28 719.443 1036.84 720.114 1038.5 720.41C1040.78 720.839 1043.13 720.585 1045.27 719.68V719.68ZM994.78 710.81C996.548 711.077 998.353 710.975 1000.08 710.51C997.26 718.51 994.96 726.74 992.34 734.68L986.64 751.94C985.58 755.173 984.513 758.41 983.44 761.65C982.52 764.43 981.23 771.52 978.75 773.04C978.675 773.082 978.607 773.136 978.55 773.2C971.596 774.725 964.872 777.156 958.55 780.43C960.12 776.16 961.41 771.73 962.87 767.66C965.71 759.66 968.46 751.66 971.19 743.72C975.737 730.387 980.07 716.967 984.19 703.46C986.67 707.18 990.12 710.1 994.78 710.81ZM987.52 759.24L994.61 737.66C996.85 730.82 999.083 723.98 1001.31 717.14C1002.08 714.76 1003.73 711.49 1004.65 708.3C1004.9 708.124 1005.15 707.934 1005.38 707.73C1006.5 710.042 1008.1 712.091 1010.07 713.744C1012.04 715.396 1014.34 716.615 1016.81 717.32C1019.86 718.117 1023.07 718.009 1026.06 717.01C1025.06 719.66 1024.39 722.46 1023.62 725.01C1022.02 730.181 1020.68 735.431 1019.62 740.74C1017.78 741.715 1016.04 742.874 1014.43 744.2C1002.76 753.77 1004.07 767.69 1011.23 778.7C1011.23 778.87 1011.23 779.04 1011.23 779.2C1010.51 778.278 1009.68 777.443 1008.77 776.71C1002.48 771.65 992.77 771.38 985.15 772.19C984.54 772.26 983.93 772.36 983.33 772.44C985.44 768.5 986.25 763.1 987.52 759.24ZM1014.65 796.03C1015.37 791.752 1014.99 787.361 1013.55 783.27C1013.81 783.109 1014.01 782.871 1014.13 782.59C1015.3 784.005 1016.56 785.341 1017.91 786.59C1020.27 788.775 1022.78 790.78 1025.44 792.59C1016.68 821.72 1005.82 849.9 994.8 878.25C986.347 899.99 977.88 921.727 969.4 943.46C968.907 943.169 968.343 943.021 967.771 943.031C967.199 943.042 966.641 943.211 966.16 943.52C962.78 945.42 957.67 944.52 953.05 943.36C957.05 936.06 958.91 927.05 961.68 919.24C964.947 910.08 968.357 900.967 971.91 891.9C975.55 882.64 979.34 873.44 983.28 864.3C986.09 857.75 989.28 851.25 991.82 844.57C993.35 842.57 994.82 840.57 996.26 838.47C1004.66 826.12 1012.6 810.97 1014.65 796.03V796.03ZM979.21 865.6C975.75 873.68 972.417 881.81 969.21 889.99C965.737 898.71 962.433 907.48 959.3 916.3C956.3 924.68 951.92 933.86 950.75 942.73C949.31 942.36 947.95 942.02 946.75 941.79C941.409 940.887 936.118 939.705 930.9 938.25C928.506 937.535 926.167 936.65 923.9 935.6C928.96 919.04 934.78 902.78 939.95 886.26C939.955 886.2 939.955 886.14 939.95 886.08C956.813 878.211 971.945 867.073 984.47 853.31C982.65 857.4 981 861.5 979.21 865.6ZM921.21 934.21C919.457 933.218 917.809 932.052 916.29 930.73C911.52 926.53 909.57 921.3 907.41 915.63C908.18 912.73 908.88 909.82 909.8 906.96C911.08 902.96 912.8 899.13 914.03 895.14C916.49 894.52 918.89 893.87 921.16 893.21C926.451 891.651 931.641 889.768 936.7 887.57C930.21 902.5 925.32 918.5 921.18 934.21H921.21ZM926.66 943.85C933.88 946.4 941.51 947.66 948.99 949.15C954.42 950.23 961.07 952.53 966.57 950.75C964.57 955.82 962.63 960.89 960.65 965.96C950.22 971.53 933.8 969.12 923.03 965.68C917.4 963.925 912.14 961.152 907.51 957.5C903.28 954.11 896.73 947.98 896.99 941.96C897.183 941.73 897.323 941.46 897.4 941.17C897.585 940.511 897.554 939.81 897.31 939.17C899.687 934.374 901.77 929.438 903.55 924.39C907.48 933.77 917.41 940.58 926.63 943.85H926.66ZM832.95 742.85C840.73 748.492 848.863 753.629 857.3 758.23C873.22 767.18 891.3 776.39 909.99 776.23C912.36 776.23 913.04 772.45 910.57 771.97C889.57 767.88 871.22 759.67 852.91 748.67C835.84 738.41 820.25 726.3 810.58 708.51C800.41 689.81 793.66 668.29 787.74 647.92C784.497 637.121 782.093 626.089 780.55 614.92C779.82 609.251 779.41 603.545 779.32 597.83C779.24 592.12 780.14 586.34 779.74 580.67C779.718 580.299 779.618 579.937 779.445 579.607C779.273 579.278 779.033 578.989 778.74 578.76C778.684 578.299 778.477 577.87 778.15 577.54C776.53 575.88 774.79 574.54 773.53 572.54C772 570.13 771 567.1 770 564.42C767.896 559.151 766.358 553.674 765.41 548.08C763.89 537.86 765.57 526.47 772.9 518.69C776.71 514.69 782.17 511.52 787.84 513.22C792.68 514.68 797.19 518.41 800.77 521.84C808.25 529.01 811.72 537.26 815.46 546.64C815.555 546.872 815.669 547.096 815.8 547.31C812.772 549.906 809.969 552.752 807.42 555.82C805.97 557.58 807.93 560.93 810.1 559.29C817.32 553.84 824.1 547.98 831.78 543.17C839.824 538.179 848.31 533.938 857.13 530.5C875.41 523.36 894.87 519.4 914.33 517.17C933.839 514.927 953.475 513.982 973.11 514.34C992.21 514.73 1011 517.6 1027.49 527.79C1031.31 530.16 1034.72 524.22 1030.99 521.79C1028.06 519.89 1025 518.203 1021.83 516.74L1021.71 516.65C1020.48 515.91 1024.87 503.72 1025.5 502.48C1026.68 500.138 1028.39 498.096 1030.48 496.51C1032.57 494.925 1034.99 493.837 1037.57 493.33C1046.79 491.16 1061.3 491.33 1068.75 497.65C1076.93 504.54 1079.8 516.53 1079.4 526.78C1079.15 532.916 1077.68 538.94 1075.07 544.5C1073.02 548.87 1070.41 552.81 1069.07 557.5C1068.65 557.805 1068.33 558.229 1068.15 558.717C1067.97 559.205 1067.94 559.736 1068.07 560.24C1070.88 574.38 1074.07 588.24 1075.47 602.6C1076.78 616.475 1077 630.43 1076.14 644.34C1074.38 672.9 1067.47 699.96 1057.58 726.69C1057.47 727.043 1057.42 727.415 1057.46 727.785C1057.49 728.154 1057.59 728.514 1057.76 728.843C1057.93 729.172 1058.17 729.464 1058.45 729.702C1058.74 729.94 1059.07 730.12 1059.42 730.23C1059.61 730.493 1059.84 730.726 1060.1 730.92C1074.58 741.47 1092.28 758.58 1093.45 777.69C1094.85 800.6 1066.16 800.48 1050.73 796.4C1041.57 794.019 1033.01 789.773 1025.57 783.93C1018.46 778.27 1010.7 769.04 1012.76 759.22C1014.53 750.75 1023.03 745.48 1031.09 744.22C1041.87 742.49 1052.81 746.94 1062.51 751.07C1066.58 752.8 1070.12 746.82 1066.02 745.07C1059.53 742.161 1052.77 739.884 1045.84 738.27C1048.64 729.27 1051.42 720.27 1054.24 711.27C1054.64 711.175 1055.01 710.999 1055.34 710.753C1055.67 710.507 1055.94 710.196 1056.15 709.84C1056.35 709.484 1056.48 709.09 1056.52 708.682C1056.57 708.275 1056.53 707.862 1056.41 707.47C1051.13 688.674 1042.86 670.848 1031.93 654.67C1031.5 653.953 1030.8 653.433 1030 653.222C1029.19 653.011 1028.33 653.125 1027.6 653.54C1019.24 659.3 1011.91 666.23 1004.6 673.26C997.686 679.815 990.436 686.007 982.88 691.81C982.144 692.023 981.518 692.51 981.13 693.17L980.74 693.47C980.309 693.764 980.005 694.209 979.89 694.718C979.775 695.226 979.857 695.76 980.12 696.21C975.64 711.27 971.02 726.27 966.06 741.21C963.51 748.88 960.84 756.51 958.11 764.12C955.67 770.93 952.11 778.05 950.4 785.18C944.47 788.954 938.874 793.226 933.67 797.95C919.369 810.979 908.464 827.301 901.9 845.5C900.37 849.72 907.11 851.55 908.63 847.35C919.09 818.51 942.35 793.01 971.52 782.47C979.78 779.47 988.99 777.58 997.75 779.24C1007.53 781.09 1009.54 788.83 1007.75 797.59C1004.95 810.97 998.28 823.93 990.64 835.15C974.487 858.695 951.131 876.363 924.08 885.5C910.54 890.03 893.47 894.09 879.25 890.91C863.55 887.39 852.31 870.32 845.32 856.99C836.49 840.15 832.04 821.25 830.61 802.38C829.08 782.35 831.61 762.77 832.92 742.84L832.95 742.85Z" fill="#231F20"/>
<path d="M844.93 614.5C838.78 612.5 833.03 619.37 831.29 624.64C829.96 628.71 831.41 633.64 834.89 635.64C835.482 636.623 836.318 637.436 837.317 638.002C838.315 638.568 839.442 638.867 840.59 638.87C846.05 639.11 849.92 631.87 851.09 627.36C852.43 622.29 850.35 616.25 844.93 614.5ZM842.27 629.72C841.817 629.779 841.357 629.729 840.927 629.574C840.497 629.419 840.111 629.164 839.8 628.83C839.94 628.32 840.09 627.83 840.2 627.49C840.8 625.58 841.99 622.39 843.65 625.33C844.52 626.88 844.38 629.5 842.27 629.74V629.72Z" fill="#231F20"/>
<path d="M925.94 641.5C939.85 636.41 941.52 617.42 937.71 605.25C937.537 604.683 937.168 604.196 936.668 603.876C936.169 603.556 935.572 603.423 934.985 603.503C934.397 603.582 933.857 603.868 933.46 604.309C933.064 604.75 932.837 605.317 932.82 605.91C932.36 615.45 935.82 628.62 925.82 634.8C913.75 642.28 907.22 623.44 904.06 615.15C903.898 614.589 903.521 614.114 903.012 613.828C902.502 613.543 901.9 613.47 901.337 613.625C900.774 613.781 900.295 614.152 900.003 614.658C899.712 615.164 899.631 615.765 899.78 616.33C902.4 628.63 910 647.29 925.94 641.5Z" fill="#231F20"/>
<path d="M1015.48 596.19C1016.36 597.273 1017.45 598.17 1018.68 598.83C1026.47 603.1 1035.83 594.21 1031.26 586.34C1030.9 584.512 1029.96 582.848 1028.59 581.589C1027.21 580.33 1025.47 579.542 1023.62 579.34C1022.46 579.27 1021.29 579.443 1020.2 579.85C1019.1 580.256 1018.11 580.886 1017.27 581.7C1017.17 581.8 1017.1 581.89 1017.02 581.98C1015.9 582.963 1015 584.169 1014.37 585.52C1013.69 586.469 1013.23 587.558 1013.03 588.707C1012.83 589.856 1012.89 591.036 1013.2 592.16C1013.52 593.708 1014.32 595.117 1015.48 596.19V596.19ZM1019.16 589.72C1019.45 589.587 1019.7 589.387 1019.9 589.137C1020.1 588.886 1020.23 588.593 1020.29 588.28C1021.35 587.777 1022.55 587.66 1023.68 587.95C1024.26 588.099 1024.79 588.388 1025.23 588.79C1025.06 589.61 1024.62 590.347 1023.97 590.88C1022.78 591.88 1019.7 592.73 1019.21 590.59C1019.17 590.446 1019.15 590.298 1019.14 590.15V590.15C1019.14 590.006 1019.14 589.863 1019.16 589.72V589.72Z" fill="#231F20"/>
<path d="M1048.06 620.07C1048.65 620.334 1049.25 620.555 1049.87 620.73C1050.42 620.883 1051 620.906 1051.56 620.799C1052.12 620.691 1052.65 620.456 1053.1 620.111C1053.55 619.766 1053.92 619.32 1054.18 618.809C1054.43 618.298 1054.56 617.735 1054.56 617.165C1054.56 616.595 1054.43 616.032 1054.18 615.521C1053.92 615.01 1053.55 614.564 1053.1 614.219C1052.65 613.874 1052.12 613.639 1051.56 613.531C1051 613.424 1050.42 613.447 1049.87 613.6C1049.25 613.753 1048.64 613.971 1048.06 614.25C1047.52 614.522 1047.07 614.938 1046.75 615.452C1046.44 615.965 1046.27 616.557 1046.27 617.16C1046.27 617.763 1046.44 618.355 1046.75 618.868C1047.07 619.382 1047.52 619.798 1048.06 620.07Z" fill="#231F20"/>
<path d="M827.63 669.63C827.24 669.843 826.896 670.131 826.619 670.478C826.341 670.825 826.135 671.224 826.013 671.651C825.891 672.078 825.855 672.526 825.908 672.967C825.96 673.408 826.1 673.834 826.319 674.221C826.538 674.608 826.831 674.947 827.183 675.219C827.534 675.491 827.936 675.691 828.365 675.806C828.794 675.922 829.242 675.95 829.682 675.891C830.123 675.831 830.547 675.685 830.93 675.46C831.682 674.999 832.227 674.265 832.451 673.411C832.674 672.558 832.56 671.651 832.13 670.88C831.69 670.127 830.974 669.575 830.134 669.342C829.294 669.108 828.395 669.212 827.63 669.63V669.63Z" fill="#231F20"/>
<g clip-path="url(#clip0_701_181)">
<path d="M717.025 300.416L713.686 304.109C737.188 325.36 749.14 358.695 749.14 407.32C749.14 415.082 748.815 423.339 748.126 431.961L748.124 431.978L748.123 431.994C742.436 509.425 730.91 560.283 713.511 588.58C705.821 601.082 697.675 608.118 689.854 612.468C681.937 616.87 674.114 618.671 666.523 620.394L666.514 620.396L666.506 620.398L666.246 620.458L661.909 621.459L662.4 625.882C665.847 656.898 673.095 681.403 681.733 699.701C690.328 717.905 700.447 730.268 709.853 736.582L709.863 736.588L709.873 736.595C710.192 736.806 710.453 737.093 710.634 737.43C710.814 737.767 710.909 738.143 710.91 738.525V738.527C710.91 738.855 710.845 739.18 710.718 739.482C710.596 739.774 710.418 740.04 710.195 740.264C709.98 740.463 709.728 740.619 709.454 740.722C709.169 740.829 708.866 740.878 708.562 740.865L708.525 740.863L708.488 740.862C683.254 740.162 663.592 726.119 647.83 707.264C632.028 688.363 620.655 665.232 611.929 647.447L611.869 647.326C608.522 640.495 605.418 634.158 602.789 629.771L601.19 627.101L598.089 627.357C586.776 628.291 573.3 629.636 557.952 631.175C537.194 633.256 505.169 637.87 468.825 643.106C438.322 647.501 404.775 652.334 372.294 656.476C336.554 661.034 301.994 664.773 273.787 666.253C259.679 666.993 247.255 667.162 237.116 666.602C226.835 666.035 219.419 664.738 214.999 662.844L214.999 662.844C194.993 654.273 160.401 627.873 129.445 588.129C104.548 556.143 75.3497 506.636 75.3497 450.64V450.634C75.3228 429.978 79.5098 409.534 87.6546 390.552L87.6556 390.549C92.7367 378.69 103.65 368.248 122.149 358.926C137.956 350.964 158.672 344.175 185.666 338.223C235.63 327.227 418.848 290.193 477.489 284.547L477.495 284.546C487.758 283.546 497.921 282.546 507.926 281.545L717.025 300.416ZM717.025 300.416L713.686 304.109C692.552 284.997 663.117 277.004 628.919 274.907M717.025 300.416L628.919 274.907M628.919 274.907C594.728 272.81 556.591 276.64 518.572 280.475M628.919 274.907L518.572 280.475M518.572 280.475C515.024 280.835 511.476 281.192 507.928 281.545L518.572 280.475Z" fill="#88E0FF" stroke="#231F20" stroke-width="10"/>
<path d="M162.583 493.633C160.997 494.585 159.916 495.104 159.339 495.19C158.803 495.269 158.423 495.263 158.199 495.17C157.974 495.076 157.705 494.822 157.39 494.405C157.188 493.045 156.975 491.328 156.751 489.256C156.569 487.176 156.344 484.956 156.078 482.595C155.811 480.233 155.5 477.857 155.145 475.467C154.79 473.076 154.341 470.91 153.8 468.969C153.604 467.65 154.392 466.859 156.165 466.596C156.577 466.534 156.996 467.23 157.423 468.683C157.89 470.13 158.227 471.26 158.432 472.072C158.678 472.878 158.87 473.46 159.007 473.819C159.791 471.723 161.687 469.882 164.695 468.298C166.305 467.511 167.852 467.007 169.336 466.787C170.819 466.567 172.145 466.559 173.313 466.765C174.516 466.923 175.58 467.418 176.504 468.249C177.463 469.034 178.055 470.188 178.282 471.713C179.053 469.534 181.195 467.363 184.707 465.198C187.901 463.165 190.858 461.946 193.578 461.542C197.493 460.96 199.63 462.159 199.989 465.139L204.704 487.944C204.735 488.15 204.159 488.383 202.976 488.643C200.692 489.15 199.508 489.116 199.422 488.539C199.258 487.721 199.115 486.899 198.993 486.075L197.823 476.076C197.131 471.419 196.129 467.797 194.819 465.212C192.129 465.822 190.094 466.588 188.715 467.509C187.37 468.383 186.218 469.418 185.259 470.613C184.293 471.768 183.503 473.254 182.888 475.073C181.515 479.152 181.293 484.324 182.224 490.589C182.105 491.491 181.366 492.043 180.006 492.245C179.099 492.38 178.336 492.346 177.716 492.143C177.09 491.899 176.82 491.644 176.907 491.379C177.041 486.894 176.928 483.435 176.566 481.004C176.278 479.067 175.8 477.263 175.13 475.593C174.496 473.876 173.722 471.927 172.808 469.746C166.874 470.628 163.228 473.592 161.871 478.638C161.277 480.874 161.056 482.929 161.208 484.802C161.395 486.628 161.586 488.2 161.782 489.519C161.972 490.797 162.239 492.168 162.583 493.633ZM223.378 509.432C222.8 511.498 221.914 512.62 220.718 512.797C220.141 512.883 219.669 512.679 219.301 512.186C218.98 511.729 218.891 511.131 219.034 510.394C219.372 506.426 220.021 501.864 220.982 496.709C221.984 491.547 222.648 488.079 222.974 486.303C221.317 485.075 218.622 482.527 214.888 478.658C207.218 470.699 203.319 466.287 203.19 465.421C203.184 465.38 203.199 465.336 203.234 465.289L205.234 462.59C208.937 465.115 213.941 469.595 220.247 476.03C221.835 477.647 223.113 479.016 224.08 480.136C224.688 478.276 225.148 476.692 225.458 475.382C225.763 474.031 226.005 472.963 226.183 472.178C226.396 471.346 226.676 470.251 227.022 468.894C227.915 465.265 229.206 460.629 230.895 454.986C231.241 454.766 231.621 454.626 232.033 454.564C233.063 454.411 233.845 454.569 234.378 455.037C234.573 455.219 234.692 455.454 234.735 455.743C234.772 455.99 234.767 456.243 234.722 456.503L223.378 509.432ZM288.759 502.94L287.884 503.007C286.648 503.191 285.341 503.469 283.964 503.842L281.615 504.191C279.142 504.559 277.135 504.372 275.592 503.633C274.777 503.248 274.296 502.562 274.149 501.573L288.267 498.78C292.617 498.007 294.452 495.333 293.773 490.758C293.748 490.594 293.705 490.305 293.644 489.893C293.589 489.522 293.463 488.677 293.267 487.358L290.619 467.406C290.515 466.705 290.408 466.131 290.3 465.684C284.548 472.899 278.581 476.966 272.399 477.885C271.863 477.965 271.324 478.024 270.782 478.062C268.021 478.472 266.459 477.462 266.098 475.03C265.899 473.122 266.146 470.958 266.839 468.538C267.527 466.077 268.518 463.676 269.813 461.335C271.143 458.947 272.713 456.755 274.523 454.759C277.31 451.691 280.188 449.937 283.155 449.496C286.617 448.981 289.734 450.393 292.504 453.73C294.621 463.441 295.986 470.357 296.598 474.479C297.211 478.6 297.651 481.989 297.919 484.645C298.188 487.301 298.257 489.755 298.128 492.007C298.041 494.252 297.742 496.066 297.231 497.448C296.72 498.83 296.034 499.879 295.171 500.597C293.74 501.737 291.602 502.518 288.759 502.94ZM285.248 453.797C284.729 453.706 284.016 453.728 283.109 453.862C282.244 453.991 281.165 454.53 279.874 455.481C278.583 456.431 277.388 457.598 276.288 458.983C275.182 460.327 274.179 461.803 273.281 463.411C271.087 467.359 270.147 470.385 270.459 472.486C270.557 473.146 270.816 473.613 271.236 473.888C271.549 474.01 271.911 474.04 272.324 473.979C272.777 473.911 273.407 473.755 274.213 473.508C275.012 473.221 276.07 472.685 277.386 471.9C278.736 471.067 280.104 470.064 281.488 468.889C282.872 467.715 284.096 466.458 285.161 465.121C287.654 462.054 288.714 459.264 288.34 456.75C288.114 455.225 287.083 454.241 285.248 453.797ZM326.604 447.21C324.689 446.231 322.372 445.943 319.652 446.348C317.096 446.727 314.797 447.553 312.753 448.826C308.889 451.169 306.397 453.814 305.276 456.761C304.8 458.095 304.666 459.463 304.875 460.865C304.911 461.112 305.016 461.813 305.187 462.967C305.352 464.079 305.785 465.574 306.485 467.449C307.179 469.284 307.673 471.191 307.967 473.169C307.107 473.339 306.422 473.546 305.911 473.79C305.399 474.035 304.958 474.184 304.587 474.24C304.216 474.295 303.862 474.179 303.525 473.892C303.228 473.599 302.845 473.003 302.374 472.104C302.296 471.863 302.11 471.175 301.815 470.039C301.52 468.903 301.147 467.527 300.696 465.909C300.286 464.285 299.813 462.522 299.278 460.622C298.778 458.674 298.284 456.768 297.797 454.903C296.731 450.849 295.93 447.871 295.395 445.971C295.248 444.982 295.896 444.38 297.339 444.166C298.204 444.037 298.939 444.307 299.544 444.976C300.143 445.603 300.657 446.369 301.086 447.274C301.509 448.138 301.829 449.017 302.047 449.911C302.305 450.8 302.503 451.423 302.641 451.782C307.358 446.11 313.756 442.674 321.834 441.474C322.741 441.339 323.692 441.219 324.687 441.113C324.928 441.035 325.234 440.969 325.605 440.914C325.976 440.859 326.384 441.051 326.828 441.49C327.367 442 327.698 442.667 327.82 443.491C328.127 445.552 327.721 446.791 326.604 447.21ZM357.302 455.223C354.934 460.545 351.26 464.166 346.279 466.086C345.121 466.511 344.047 466.797 343.058 466.944C342.11 467.085 341.306 467.204 340.647 467.302C340.022 467.353 339.306 467.354 338.499 467.305C337.691 467.257 336.93 467.096 336.216 466.823C334.562 466.184 333.619 465.082 333.386 463.515C333.111 462.798 332.906 461.986 332.772 461.079C332.631 460.131 332.653 458.864 332.839 457.278C333.024 455.692 333.521 453.933 334.329 452.002C335.179 450.064 336.276 448.237 337.622 446.521C340.413 442.905 343.636 440.362 347.293 438.892C348.369 438.479 349.361 438.205 350.268 438.071C351.215 437.93 352.07 437.866 352.83 437.879C355.22 437.524 357.069 438.913 358.377 442.047C359.219 444.028 359.957 446.867 360.591 450.564C361.259 454.214 361.785 457.042 362.168 459.049C362.585 461.009 363.123 462.783 363.78 464.37L360.132 464.912C359.802 463.824 359.531 462.853 359.32 462C359.109 461.147 358.907 460.355 358.715 459.626C358.251 457.925 357.781 456.458 357.302 455.223ZM355.631 445.677C355.276 443.287 353.924 442.266 351.575 442.615C351.28 442.617 350.988 442.639 350.7 442.682C347.691 443.129 344.732 445.043 341.823 448.424C340.452 449.976 339.333 451.658 338.466 453.472C337.166 456.067 336.654 458.291 336.93 460.146C337.291 462.577 338.907 463.812 341.776 463.848C345.473 463.215 348.767 460.998 351.656 457.199C352.885 455.542 353.847 453.799 354.544 451.968C355.526 449.505 355.888 447.408 355.631 445.677ZM388.839 447.188C388.11 442.284 387.306 438.717 386.428 436.489C386.666 435.822 386.125 435.586 384.806 435.782C383.405 435.99 381.644 436.61 379.522 437.641C377.401 438.673 375.691 439.643 374.394 440.552C371.295 442.655 369.673 444.497 369.528 446.077L372.027 462.892L367.885 463.508C367.141 462.186 366.288 458.29 365.327 451.819C364.469 446.049 363.942 441.789 363.744 439.038C363.587 436.281 363.542 434.708 363.611 434.319C364.578 433.459 365.392 432.98 366.051 432.882C367.082 432.729 367.778 433.868 368.139 436.3C368.28 437.248 368.356 438.184 368.367 439.109C368.413 439.987 368.46 440.591 368.509 440.92C374.457 435.024 379.265 431.803 382.934 431.258C387.096 430.64 389.965 433.646 391.54 440.279C392.137 442.591 392.744 445.829 393.363 449.991L394.026 454.884C394.296 456.698 394.597 458.443 394.931 460.121C394.555 460.429 394.244 460.602 393.997 460.639C393.867 460.616 393.59 460.594 393.166 460.573C392.741 460.551 392.196 460.569 391.531 460.626C390.874 459.039 390.399 457.403 390.107 455.719C389.808 453.995 389.552 452.411 389.337 450.968L388.839 447.188ZM420.258 405.619C420.846 409.575 421.298 413.468 421.614 417.296C421.965 421.078 422.307 424.797 422.64 428.454C423.008 432.064 423.495 435.91 424.101 439.99C424.702 444.029 425.627 448.272 426.878 452.72C427.018 453.668 426.934 454.376 426.624 454.843C426.356 455.304 425.809 455.596 424.985 455.718C423.048 456.006 421.841 454.543 421.363 451.328L421.06 449.288C415.857 454.526 411.236 457.445 407.197 458.045C405.589 458.284 403.882 458.138 402.076 457.606C400.311 457.068 398.509 455.714 396.671 453.544C396.318 452.585 396.064 451.591 395.911 450.56C395.758 449.53 395.76 448.266 395.917 446.768C396.108 445.223 396.685 443.579 397.648 441.835C398.652 440.085 399.93 438.484 401.484 437.032C404.896 433.913 408.807 432.026 413.216 431.371C415.112 431.089 416.969 431.108 418.785 431.428C418.675 430.686 418.523 429.382 418.33 427.515C418.178 425.642 418.011 423.666 417.829 421.587C417.28 416.192 416.976 413.015 416.918 412.055C416.853 411.053 416.834 410.214 416.859 409.536C416.92 408.811 417.058 408.18 417.273 407.642C417.738 406.52 418.733 405.846 420.258 405.619ZM400.351 449.395C400.835 452.651 402.251 454.104 404.6 453.755C404.971 453.7 405.377 453.598 405.818 453.448C407.508 453.197 409.516 452.393 411.842 451.037C416.265 448.484 418.89 446.451 419.719 444.938L418.497 436.715C418.282 435.273 417.001 434.726 414.651 435.075C414.357 435.077 413.962 435.115 413.468 435.188C413.014 435.255 412.308 435.466 411.35 435.819C410.391 436.172 409.334 436.708 408.177 437.427C407.02 438.147 405.902 438.987 404.823 439.948C402.56 442.011 401.123 444.247 400.512 446.654C400.27 447.575 400.216 448.488 400.351 449.395ZM435.833 453.032C434.248 453.984 433.166 454.503 432.589 454.588C432.053 454.668 431.673 454.661 431.449 454.568C431.224 454.475 430.955 454.22 430.64 453.804C430.438 452.444 430.225 450.727 430.001 448.654C429.819 446.575 429.594 444.355 429.328 441.993C429.061 439.632 428.75 437.256 428.395 434.866C428.04 432.475 427.592 430.309 427.05 428.368C426.854 427.049 427.642 426.258 429.415 425.994C429.827 425.933 430.246 426.629 430.673 428.082C431.14 429.529 431.477 430.659 431.682 431.471C431.928 432.277 432.12 432.859 432.257 433.218C433.041 431.121 434.937 429.281 437.945 427.697C439.555 426.91 441.102 426.406 442.586 426.186C444.07 425.965 445.395 425.958 446.563 426.163C447.766 426.322 448.83 426.817 449.754 427.648C450.713 428.432 451.305 429.587 451.532 431.112C452.303 428.933 454.445 426.761 457.957 424.597C461.151 422.564 464.108 421.345 466.828 420.941C470.744 420.359 472.88 421.558 473.239 424.538L477.954 447.342C477.985 447.548 477.409 447.781 476.226 448.041C473.942 448.549 472.758 448.515 472.672 447.938C472.508 447.119 472.365 446.298 472.243 445.474L471.073 435.475C470.381 430.818 469.379 427.196 468.069 424.611C465.379 425.221 463.344 425.987 461.965 426.908C460.62 427.782 459.468 428.816 458.509 430.012C457.543 431.167 456.753 432.653 456.138 434.471C454.765 438.551 454.543 443.723 455.474 449.987C455.355 450.89 454.616 451.442 453.256 451.644C452.349 451.779 451.586 451.745 450.966 451.542C450.34 451.298 450.07 451.043 450.157 450.777C450.291 446.292 450.178 442.834 449.816 440.402C449.528 438.465 449.05 436.662 448.381 434.992C447.746 433.275 446.972 431.326 446.058 429.145C440.124 430.027 436.478 432.991 435.121 438.036C434.527 440.273 434.306 442.328 434.458 444.201C434.645 446.027 434.836 447.599 435.032 448.918C435.222 450.195 435.489 451.567 435.833 453.032ZM502.891 433.59C500.523 438.913 496.849 442.534 491.868 444.453C490.71 444.878 489.636 445.164 488.647 445.311C487.699 445.452 486.895 445.571 486.236 445.669C485.612 445.72 484.896 445.721 484.088 445.673C483.28 445.624 482.519 445.463 481.805 445.19C480.151 444.552 479.208 443.449 478.976 441.883C478.7 441.166 478.496 440.353 478.361 439.447C478.22 438.499 478.242 437.232 478.428 435.646C478.613 434.059 479.11 432.301 479.919 430.369C480.768 428.432 481.866 426.605 483.211 424.888C486.002 421.272 489.226 418.729 492.883 417.259C493.959 416.846 494.95 416.573 495.857 416.438C496.805 416.297 497.659 416.233 498.419 416.247C500.809 415.892 502.659 417.281 503.967 420.414C504.809 422.395 505.546 425.234 506.18 428.931C506.849 432.581 507.374 435.41 507.757 437.417C508.174 439.377 508.712 441.15 509.369 442.738L505.721 443.28C505.391 442.191 505.12 441.221 504.909 440.367C504.698 439.514 504.497 438.723 504.304 437.993C503.841 436.293 503.37 434.825 502.891 433.59ZM501.22 424.045C500.865 421.654 499.513 420.634 497.164 420.983C496.869 420.984 496.578 421.007 496.289 421.05C493.28 421.497 490.321 423.411 487.412 426.792C486.041 428.343 484.922 430.026 484.055 431.84C482.755 434.434 482.243 436.658 482.519 438.513C482.88 440.945 484.496 442.179 487.366 442.216C491.063 441.582 494.356 439.366 497.246 435.567C498.474 433.91 499.436 432.166 500.133 430.335C501.115 427.873 501.478 425.776 501.22 424.045ZM536.145 430.734C536.047 430.075 535.851 429.177 535.556 428.042C535.296 426.859 535.02 425.573 534.73 424.184C534.439 422.795 534.187 421.379 533.972 419.937C533.758 418.494 533.686 417.157 533.755 415.925C533.893 413.166 534.807 411.662 536.497 411.41C537.7 411.569 538.523 411.868 538.968 412.307C539.453 412.74 539.751 413.328 539.861 414.07C539.966 414.77 539.912 415.684 539.7 416.811C538.873 420.598 538.673 423.935 539.102 426.82C539.243 427.768 539.455 428.768 539.738 429.821C540.807 432.485 543.279 433.529 547.153 432.953C549.173 432.653 551.037 432.018 552.747 431.048C556.019 429.256 558.145 427.402 559.124 425.488C559.213 423.537 559.153 421.861 558.945 420.459C558.731 419.017 558.479 417.748 558.19 416.654C557.943 415.553 557.638 414.356 557.277 413.062C556.952 411.72 556.649 410.248 556.369 408.647C556.868 408.32 557.365 408.12 557.859 408.047C558.395 407.967 558.971 408.155 559.586 408.612C560.243 409.062 560.867 410.001 561.458 411.429C562.091 412.852 562.619 414.564 563.042 416.565C563.46 418.525 563.828 420.576 564.146 422.719C564.506 424.856 564.836 426.935 565.136 428.954C565.43 430.932 565.767 432.631 566.146 434.049C565.719 434.575 565.278 434.873 564.825 434.94C563.176 435.185 561.716 433.717 560.443 430.536C559.974 431.069 559.15 431.76 557.97 432.61C555.471 434.497 552.403 435.964 548.767 437.01C548.079 437.196 547.302 437.354 546.436 437.483C545.571 437.611 544.454 437.609 543.086 437.475C541.76 437.335 540.431 436.753 539.099 435.73C537.767 434.706 536.783 433.041 536.145 430.734ZM588.596 415.043C593.13 414.369 595.568 415.186 595.911 417.494C596.168 419.225 595.211 421.431 593.04 424.113C589.798 428.091 585.156 431.582 579.116 434.586C578.827 434.629 578.454 434.389 577.998 433.867C577.582 433.339 577.25 432.946 577.001 432.688C576.787 432.383 576.633 432.195 576.538 432.125C581.045 429.855 584.658 427.38 587.378 424.702C589.218 422.912 590.067 421.543 589.927 420.595C589.786 419.647 588.5 419.354 586.068 419.715C583.636 420.076 580.157 421.183 575.63 423.035C573.475 423.271 571.507 422.784 569.726 421.574C568.176 420.499 567.306 419.322 567.117 418.045C566.921 416.726 567.114 415.475 567.697 414.294C568.273 413.071 569.109 411.893 570.205 410.762C571.3 409.63 572.614 408.55 574.146 407.522C577.898 404.985 581.937 403.395 586.264 402.752C587.542 402.562 588.797 402.502 590.029 402.572C591.018 402.425 591.659 402.772 591.953 403.613C592.246 404.454 592.54 405.863 592.834 407.842C590.237 407.09 587.413 406.941 584.364 407.394C580.572 407.958 577.553 409.185 575.307 411.078C572.972 412.941 571.941 415.074 572.214 417.477C572.385 418.631 573.316 419.082 575.005 418.831L579.445 417.666C583.197 416.266 586.247 415.392 588.596 415.043ZM613.568 423.211C617.195 422.672 622.411 420.212 629.216 415.831C629.669 415.764 630.064 415.874 630.402 416.16C630.733 416.406 630.93 416.735 630.991 417.147C629.759 420.195 626.93 422.847 622.506 425.106C618.081 427.364 613.773 428.278 609.581 427.847C604.829 427.332 601.664 425.169 600.087 421.36C599.888 420.589 599.691 419.544 599.495 418.225C599.299 416.907 599.371 415.127 599.712 412.885C600.088 410.597 600.957 408.362 602.318 406.18C603.678 403.998 605.389 402.185 607.449 400.741C609.509 399.298 611.796 398.389 614.31 398.016C616.701 397.661 619.502 398.087 622.715 399.295C624.232 399.869 625.477 400.59 626.448 401.457C627.419 402.324 627.981 403.272 628.135 404.302C628.177 404.591 628.2 404.882 628.201 405.177C628.492 407.703 627.512 409.471 625.261 410.479C624.274 410.921 623.1 411.243 621.74 411.445L612.782 412.397C609.815 412.838 607.643 413.813 606.267 415.324C605.464 416.159 604.982 417.305 604.819 418.761C606.406 422.359 609.323 423.842 613.568 423.211ZM621.734 402.473C620.729 401.949 619.711 401.616 618.679 401.474C617.647 401.332 616.801 401.311 616.141 401.409C615.482 401.507 614.444 401.893 613.028 402.566C611.605 403.199 610.357 403.869 609.283 404.576C606.635 406.318 605.418 407.909 605.632 409.352C608.972 409.151 611.467 408.927 613.115 408.682C617.69 408.003 620.723 407.152 622.214 406.13C623.142 405.571 623.56 404.982 623.468 404.364C623.358 403.622 622.78 402.992 621.734 402.473ZM654.621 405.232C659.155 404.559 661.593 405.376 661.936 407.684C662.193 409.415 661.236 411.621 659.065 414.303C655.823 418.281 651.181 421.772 645.141 424.775C644.852 424.818 644.48 424.579 644.023 424.057C643.607 423.529 643.275 423.136 643.026 422.878C642.812 422.573 642.658 422.385 642.564 422.315C647.07 420.044 650.684 417.57 653.403 414.891C655.243 413.101 656.093 411.732 655.952 410.784C655.811 409.837 654.525 409.543 652.093 409.905C649.661 410.266 646.182 411.373 641.655 413.225C639.5 413.461 637.532 412.974 635.751 411.764C634.201 410.688 633.332 409.512 633.142 408.234C632.946 406.915 633.139 405.665 633.722 404.483C634.298 403.26 635.134 402.083 636.23 400.951C637.325 399.82 638.639 398.74 640.172 397.712C643.923 395.175 647.962 393.584 652.29 392.941C653.567 392.752 654.822 392.692 656.054 392.761C657.043 392.614 657.684 392.961 657.978 393.802C658.271 394.643 658.565 396.053 658.859 398.031C656.262 397.28 653.439 397.131 650.389 397.584C646.597 398.147 643.578 399.375 641.332 401.267C638.997 403.131 637.966 405.264 638.239 407.666C638.41 408.82 639.341 409.272 641.031 409.021L645.47 407.856C649.222 406.456 652.272 405.581 654.621 405.232ZM197.681 531.891L196.335 521.981C196.102 520.415 195.759 519.097 195.305 518.027L185.723 519.45L184.965 515.203L194.238 513.825L191.868 497.875C191.937 497.486 192.129 497.078 192.445 496.652C192.936 495.99 193.367 495.631 193.738 495.576C194.15 495.514 194.507 495.504 194.807 495.543C195.108 495.583 195.46 495.825 195.863 496.271C196.927 498.893 197.866 502.945 198.681 508.426C198.883 509.786 199.143 511.117 199.463 512.417C200.757 512.056 202.064 511.778 203.383 511.582C203.383 511.582 204.454 511.423 206.598 511.104C207.381 510.988 208.096 510.84 208.743 510.659L209.219 515.138L200.156 516.232L203.634 537.514C202.942 537.954 202.327 538.214 201.791 538.293C199.731 538.6 198.361 536.465 197.681 531.891ZM243.749 530.227C243.482 530.982 242.566 531.477 241 531.709C239.475 531.936 238.629 531.493 238.464 530.38C237.742 525.517 237.142 522.194 236.667 520.411C235.702 516.468 234.6 514.441 233.362 514.331C230.309 514.195 227.835 514.267 225.939 514.549C224.084 514.825 222.624 515.631 221.559 516.969C220.53 518.259 219.881 520.272 219.613 523.008C219.381 525.696 219.473 529.432 219.888 534.214L215.128 534.922C214.862 532.56 214.578 530.37 214.278 528.35C213.978 526.331 213.582 523.946 213.089 521.197C212.59 518.407 212.034 515.372 211.42 512.094C210.651 508.333 210.073 505.154 209.687 502.557C209.296 499.92 209.102 497.484 209.107 495.251C209.403 494.406 209.943 493.926 210.726 493.81C211.673 493.669 212.467 493.909 213.107 494.53C213.741 495.11 214.118 495.665 214.239 496.194L215.446 506.441C216.015 510.274 216.626 513.11 217.279 514.951C220.621 511.927 224.27 510.121 228.227 509.533C229.504 509.343 230.88 509.244 232.353 509.236C235.683 510.384 237.956 511.795 239.174 513.467C239.768 514.348 240.206 515.315 240.489 516.368C240.772 517.421 241.035 518.625 241.278 519.978C242.224 524.64 243.047 528.056 243.749 530.227ZM258.134 524.551C261.76 524.012 266.976 521.552 273.781 517.171C274.235 517.104 274.63 517.213 274.968 517.5C275.299 517.746 275.495 518.075 275.556 518.487C274.324 521.534 271.496 524.187 267.072 526.445C262.647 528.703 258.339 529.617 254.147 529.187C249.394 528.672 246.23 526.509 244.653 522.7C244.454 521.929 244.256 520.884 244.06 519.565C243.864 518.246 243.937 516.466 244.278 514.225C244.654 511.937 245.522 509.701 246.883 507.519C248.244 505.337 249.954 503.525 252.015 502.081C254.075 500.638 256.362 499.729 258.876 499.356C261.266 499 264.068 499.427 267.28 500.634C268.798 501.209 270.042 501.93 271.014 502.797C271.985 503.663 272.547 504.612 272.7 505.642C272.743 505.931 272.765 506.222 272.767 506.517C273.058 509.043 272.078 510.811 269.827 511.819C268.839 512.261 267.665 512.582 266.305 512.785L257.348 513.736C254.381 514.177 252.209 515.153 250.832 516.663C250.03 517.499 249.547 518.645 249.384 520.101C250.972 523.698 253.888 525.182 258.134 524.551ZM266.299 503.813C265.295 503.288 264.276 502.955 263.244 502.814C262.212 502.672 261.367 502.65 260.707 502.748C260.048 502.846 259.01 503.232 257.593 503.906C256.171 504.539 254.923 505.209 253.848 505.916C251.2 507.657 249.984 509.249 250.198 510.692C253.538 510.49 256.032 510.267 257.681 510.022C262.256 509.342 265.288 508.492 266.779 507.47C267.707 506.911 268.125 506.322 268.033 505.704C267.923 504.962 267.345 504.332 266.299 503.813ZM326.717 501.344C326.258 504.487 325.909 507.382 325.67 510.03C325.473 512.671 325.211 514.879 324.885 516.654C324.34 519.221 323.49 520.59 322.336 520.761C321.718 520.853 320.975 520.669 320.106 520.208C317.91 518.47 314.566 514.397 310.076 507.987C305.692 501.73 303.374 497.757 303.123 496.067C303.013 495.325 303.172 494.838 303.601 494.606C304.024 494.332 304.536 494.235 305.137 494.314C306.6 494.518 307.684 495.01 308.39 495.79C308.739 496.159 309.197 496.828 309.762 497.797L311.877 501.401C314.251 505.471 316.549 509.173 318.772 512.508C319.471 510.972 320.067 509.03 320.56 506.682L321.687 501.08C322.643 496.178 323.775 493.588 325.081 493.31C326.014 492.497 329.647 495.685 335.98 502.874C338.667 505.929 340.327 507.746 340.961 508.326C341.332 508.271 341.581 506.97 341.708 504.424C341.876 501.872 342.02 499.723 342.14 497.978C342.295 496.186 342.551 494.505 342.908 492.936C343.753 489.272 345.062 487.308 346.834 487.044C347.411 486.959 347.833 487.107 348.101 487.488C348.403 487.822 348.573 488.113 348.61 488.36C348.646 488.608 348.674 488.793 348.692 488.917C348.406 490.392 348.129 492.075 347.863 493.968C347.591 495.82 347.286 497.74 346.95 499.728C346.648 501.668 346.326 503.612 345.984 505.558C345.676 507.457 345.344 509.192 344.987 510.761C344.105 514.178 343.229 516.077 342.359 516.459C341.707 516.893 340.454 516.258 338.6 514.553C337.765 513.751 336.864 512.789 335.897 511.669C334.93 510.549 333.916 509.394 332.855 508.204C330.263 505.219 328.217 502.932 326.717 501.344ZM368.917 508.09C372.544 507.551 377.76 505.091 384.565 500.71C385.018 500.643 385.414 500.752 385.751 501.039C386.083 501.285 386.279 501.614 386.34 502.026C385.108 505.073 382.28 507.726 377.855 509.984C373.431 512.242 369.122 513.156 364.93 512.726C360.178 512.211 357.013 510.048 355.436 506.239C355.237 505.468 355.04 504.423 354.844 503.104C354.648 501.785 354.721 500.005 355.062 497.764C355.438 495.476 356.306 493.24 357.667 491.058C359.028 488.876 360.738 487.064 362.798 485.62C364.859 484.177 367.146 483.268 369.66 482.895C372.05 482.539 374.852 482.966 378.064 484.173C379.582 484.748 380.826 485.469 381.797 486.336C382.769 487.202 383.331 488.151 383.484 489.181C383.527 489.47 383.549 489.761 383.551 490.056C383.842 492.582 382.862 494.35 380.61 495.358C379.623 495.8 378.449 496.122 377.089 496.324L368.132 497.275C365.164 497.716 362.993 498.692 361.616 500.202C360.814 501.038 360.331 502.184 360.168 503.64C361.756 507.237 364.672 508.721 368.917 508.09ZM377.083 487.352C376.078 486.827 375.06 486.494 374.028 486.353C372.996 486.211 372.15 486.189 371.491 486.287C370.831 486.385 369.794 486.771 368.377 487.445C366.955 488.078 365.706 488.748 364.632 489.455C361.984 491.196 360.767 492.788 360.982 494.231C364.322 494.029 366.816 493.806 368.465 493.561C373.039 492.881 376.072 492.031 377.563 491.009C378.491 490.45 378.909 489.861 378.817 489.243C378.707 488.501 378.129 487.871 377.083 487.352ZM386.241 473.291L384.87 465.344C384.772 464.684 384.923 464.135 385.321 463.697C385.719 463.259 386.248 462.991 386.907 462.893C387.567 462.795 388.192 462.891 388.783 463.183C389.368 463.433 389.644 463.876 389.612 464.513L394.013 491.155C396.095 487.307 399.167 483.881 403.228 480.877C406.602 478.353 409.67 476.887 412.431 476.476C414.863 476.115 416.854 476.619 418.406 477.99C419.579 479.079 420.318 480.654 420.624 482.715C420.924 484.734 420.796 486.565 420.24 488.206C419.718 489.8 418.943 491.389 417.915 492.974C416.881 494.518 415.649 496.007 414.219 497.441C412.789 498.875 411.321 500.189 409.813 501.382C406.95 503.66 404.083 505.624 401.21 507.272C400.951 507.227 400.536 507.267 399.965 507.394C399.394 507.521 398.696 507.646 397.872 507.768C395.646 508.099 393.649 508.122 391.879 507.837C390.886 503.983 389.795 498.058 388.607 490.063L386.241 473.291ZM395.944 502.874C396.011 503.327 396.457 503.492 397.282 503.37C398.147 503.241 399.174 502.92 400.361 502.407C401.548 501.893 402.949 501.117 404.564 500.076C406.214 498.989 407.83 497.674 409.412 496.133C413.099 492.595 415.699 488.691 417.213 484.422C416.328 482.153 414.546 481.217 411.868 481.615C409.436 481.976 406.83 483.29 404.05 485.557C400.108 488.796 397.494 492.47 396.209 496.579C395.653 498.22 395.491 499.824 395.724 501.39C395.785 501.802 395.834 502.132 395.871 502.379C395.907 502.626 395.932 502.791 395.944 502.874ZM445.518 484.829C450.051 484.155 452.49 484.973 452.833 487.281C453.09 489.012 452.133 491.218 449.962 493.899C446.72 497.878 442.078 501.368 436.037 504.372C435.749 504.415 435.376 504.176 434.919 503.654C434.504 503.126 434.172 502.733 433.923 502.475C433.709 502.17 433.555 501.982 433.46 501.912C437.967 499.641 441.58 497.167 444.299 494.488C446.14 492.698 446.989 491.329 446.848 490.381C446.708 489.433 445.421 489.14 442.99 489.501C440.558 489.863 437.079 490.969 432.552 492.822C430.396 493.058 428.428 492.571 426.648 491.361C425.098 490.285 424.228 489.109 424.038 487.831C423.842 486.512 424.036 485.262 424.618 484.08C425.195 482.857 426.031 481.68 427.126 480.548C428.222 479.417 429.536 478.337 431.068 477.309C434.819 474.771 438.859 473.181 443.186 472.538C444.464 472.348 445.719 472.288 446.951 472.358C447.94 472.211 448.581 472.558 448.874 473.399C449.168 474.24 449.462 475.65 449.756 477.628C447.159 476.877 444.335 476.727 441.285 477.181C437.494 477.744 434.475 478.972 432.228 480.864C429.894 482.728 428.862 484.861 429.135 487.263C429.307 488.417 430.237 488.869 431.927 488.618L436.367 487.453C440.118 486.053 443.169 485.178 445.518 484.829ZM459.768 469.316C461.449 476.944 463.228 485.799 465.105 495.883C465.048 497.197 464.154 497.983 462.423 498.24C461.969 498.308 461.483 498.296 460.964 498.204C460.48 498.066 460.152 497.84 459.979 497.529L455.873 469.895L459.768 469.316ZM452.769 461.763C452.555 460.32 453.292 459.474 454.982 459.223C456.095 459.057 457.038 459.17 457.813 459.56C458.004 459.995 458.133 460.439 458.2 460.893C458.261 461.305 458.158 461.742 457.889 462.203C457.621 462.664 457.157 462.943 456.497 463.041C455.838 463.139 455.157 463.093 454.455 462.903C453.746 462.671 453.184 462.291 452.769 461.763ZM476.557 490.453L475.21 480.544C474.978 478.977 474.634 477.659 474.181 476.589L464.598 478.013L463.841 473.766L473.114 472.388L470.744 456.438C470.813 456.049 471.005 455.641 471.321 455.215C471.812 454.552 472.243 454.194 472.614 454.138C473.026 454.077 473.383 454.066 473.683 454.106C473.984 454.145 474.336 454.388 474.739 454.834C475.803 457.456 476.742 461.508 477.556 466.989C477.758 468.349 478.019 469.679 478.339 470.98C479.633 470.619 480.94 470.341 482.259 470.145C482.259 470.145 483.33 469.986 485.473 469.667C486.256 469.551 486.972 469.402 487.619 469.222L488.095 473.701L479.032 474.794L482.51 496.077C481.817 496.517 481.203 496.777 480.667 496.856C478.607 497.162 477.236 495.028 476.557 490.453ZM505.666 487.771C509.293 487.232 514.509 484.772 521.314 480.391C521.767 480.324 522.162 480.433 522.5 480.72C522.831 480.966 523.028 481.295 523.089 481.707C521.857 484.754 519.028 487.407 514.604 489.665C510.179 491.923 505.871 492.837 501.679 492.407C496.927 491.892 493.762 489.729 492.185 485.92C491.986 485.149 491.789 484.104 491.593 482.785C491.397 481.466 491.469 479.686 491.81 477.445C492.186 475.157 493.055 472.921 494.416 470.739C495.776 468.557 497.487 466.745 499.547 465.301C501.607 463.858 503.894 462.949 506.408 462.576C508.799 462.22 511.6 462.647 514.813 463.854C516.33 464.429 517.575 465.15 518.546 466.017C519.517 466.883 520.079 467.832 520.233 468.862C520.275 469.151 520.298 469.442 520.299 469.737C520.59 472.263 519.61 474.031 517.359 475.039C516.372 475.481 515.198 475.803 513.838 476.005L504.88 476.956C501.913 477.397 499.741 478.373 498.365 479.883C497.562 480.719 497.08 481.865 496.917 483.321C498.505 486.918 501.421 488.402 505.666 487.771ZM513.832 467.033C512.827 466.508 511.809 466.175 510.777 466.034C509.745 465.892 508.899 465.87 508.239 465.968C507.58 466.066 506.542 466.452 505.126 467.126C503.703 467.759 502.455 468.429 501.381 469.136C498.733 470.877 497.516 472.469 497.73 473.912C501.07 473.71 503.565 473.487 505.213 473.242C509.788 472.562 512.821 471.712 514.312 470.69C515.24 470.131 515.658 469.542 515.566 468.924C515.456 468.182 514.878 467.552 513.832 467.033ZM561.746 477.795L560.4 467.886C560.167 466.319 559.824 465.001 559.37 463.931L549.788 465.355L549.031 461.108L558.304 459.73L555.934 443.78C556.002 443.391 556.195 442.983 556.51 442.557C557.002 441.894 557.433 441.536 557.804 441.48C558.216 441.419 558.572 441.408 558.873 441.448C559.174 441.487 559.526 441.73 559.929 442.176C560.993 444.798 561.932 448.85 562.746 454.331C562.948 455.691 563.209 457.021 563.529 458.322C564.823 457.961 566.13 457.683 567.448 457.487C567.448 457.487 568.52 457.327 570.663 457.009C571.446 456.893 572.161 456.744 572.808 456.564L573.284 461.043L564.222 462.136L567.7 483.419C567.007 483.859 566.393 484.119 565.857 484.198C563.796 484.504 562.426 482.37 561.746 477.795ZM578.687 469.339C577.965 464.475 579.485 460.248 583.248 456.656C586.237 453.81 590.044 451.791 594.669 450.599C594.916 450.562 595.493 450.476 596.4 450.341C597.307 450.207 598.562 450.294 600.167 450.603C603.718 451.255 606.329 452.952 608 455.695C608.666 456.775 609.061 457.728 609.183 458.552C609.3 459.335 609.362 459.894 609.369 460.23C610.135 465.382 608.78 469.733 605.306 473.282C602.083 476.541 597.752 478.574 592.312 479.383C588.396 479.965 585.294 479.499 583.005 477.985C580.757 476.466 579.318 473.584 578.687 469.339ZM583.173 470.188C583.553 472.744 584.49 474.374 585.985 475.078C587.114 475.585 588.894 475.657 591.325 475.296C593.757 474.935 595.872 474.431 597.672 473.784C599.471 473.138 601.025 472.254 602.333 471.133C605.13 468.695 606.219 465.395 605.601 461.233C605.233 458.76 604.274 456.838 602.722 455.468C601.029 453.993 599.007 453.429 596.658 453.778C595.094 454.306 593.512 454.857 591.912 455.431C590.354 456 588.924 456.865 587.622 458.028C584.79 460.513 583.307 464.566 583.173 470.188ZM614.296 464.048C613.574 459.184 615.094 454.957 618.857 451.365C621.846 448.519 625.653 446.5 630.278 445.308C630.525 445.271 631.102 445.185 632.009 445.05C632.916 444.916 634.172 445.003 635.776 445.312C639.327 445.964 641.938 447.661 643.609 450.404C644.275 451.484 644.67 452.437 644.792 453.261C644.909 454.044 644.971 454.603 644.978 454.939C645.744 460.091 644.389 464.441 640.915 467.991C637.692 471.25 633.361 473.283 627.921 474.092C624.005 474.674 620.903 474.208 618.614 472.694C616.366 471.175 614.927 468.293 614.296 464.048ZM618.783 464.897C619.162 467.453 620.099 469.083 621.594 469.787C622.723 470.294 624.503 470.366 626.934 470.005C629.366 469.644 631.481 469.14 633.281 468.493C635.08 467.847 636.634 466.963 637.942 465.842C640.739 463.404 641.828 460.104 641.21 455.941C640.842 453.469 639.883 451.547 638.331 450.177C636.638 448.702 634.616 448.138 632.267 448.487C630.703 449.015 629.121 449.566 627.521 450.14C625.963 450.709 624.533 451.574 623.231 452.737C620.399 455.221 618.916 459.275 618.783 464.897Z" fill="black"/>
</g>
<defs>
<clipPath id="clip0_701_181">
<rect width="600" height="747" fill="white" transform="matrix(0 1 1 0 32 181.5)"/>
</clipPath>
</defs>
</svg>
