<svg width="826" height="744" viewBox="0 0 826 744" fill="none" xmlns="http://www.w3.org/2000/svg">
<path d="M464.873 77.7398L465.375 77.7445C466.447 77.8151 467.488 78.141 468.412 78.6979C469.464 79.3323 470.323 80.2424 470.896 81.3296L470.899 81.3357L516.689 168.006L519.546 173.414L524.278 169.538L634.168 79.5382L634.178 79.5302L634.188 79.5221C635.374 78.5403 636.865 78.0022 638.405 78C639.425 78.0074 640.431 78.2375 641.352 78.6741C642.273 79.1104 643.087 79.7425 643.738 80.5261C644.364 81.294 644.811 82.1911 645.047 83.1529C645.285 84.119 645.304 85.1261 645.103 86.1008L645.101 86.1106L645.099 86.1205L626.989 175.82L625.246 184.452L633.551 181.526L751.371 140.016L751.374 140.015C752.118 139.752 752.902 139.619 753.691 139.62C754.875 139.629 756.035 139.946 757.059 140.54C758.085 141.135 758.939 141.989 759.533 143.016L759.537 143.023C760.128 144.039 760.44 145.194 760.44 146.37C760.44 147.546 760.128 148.701 759.537 149.717L759.525 149.739L759.512 149.761L707.672 241.031L704.764 246.151L710.288 248.191L799.668 281.191L799.669 281.191C800.982 281.675 802.112 282.555 802.905 283.709C803.698 284.863 804.113 286.234 804.094 287.633C804.075 289.033 803.623 290.392 802.799 291.524C801.976 292.656 800.822 293.505 799.496 293.954L801.1 298.69L799.496 293.954L694.396 329.554L686.244 332.316L692.681 338.029L809.761 441.949C810.787 442.86 811.512 444.06 811.842 445.391C812.171 446.722 812.089 448.122 811.607 449.406C811.124 450.69 810.264 451.797 809.139 452.581C808.02 453.361 806.693 453.786 805.329 453.8C804.688 453.796 804.05 453.709 803.431 453.54C803.427 453.539 803.424 453.538 803.42 453.537L637.341 407.303L629.016 404.986L631.156 413.358L656.936 514.238L656.939 514.251L656.942 514.264C657.198 515.241 657.226 516.263 657.026 517.252C656.827 518.235 656.407 519.16 655.798 519.957C655.149 520.782 654.323 521.451 653.38 521.914C652.437 522.377 651.402 522.621 650.352 522.63C648.609 522.621 646.937 521.933 645.692 520.712L645.684 520.704L645.676 520.696L545.286 423.056L541.035 418.921L537.678 423.81L471.818 519.74L471.804 519.76L471.79 519.781C471.186 520.68 470.368 521.416 469.411 521.924C468.453 522.432 467.385 522.695 466.301 522.69L466.265 522.69L466.229 522.69C465.344 522.699 464.467 522.533 463.648 522.202C462.828 521.87 462.082 521.38 461.453 520.758C460.823 520.137 460.323 519.397 459.981 518.582C459.639 517.767 459.462 516.892 459.46 516.007L459.46 515.988L459.46 515.968L458.46 419.298L458.377 411.261L451.204 414.888L340.464 470.888L340.455 470.892L340.447 470.896C339.196 471.535 337.777 471.767 336.388 471.561L335.654 476.506L336.388 471.561C334.999 471.354 333.708 470.72 332.697 469.746C331.685 468.771 331.003 467.506 330.744 466.125C330.486 464.745 330.665 463.318 331.256 462.044L331.26 462.034L331.265 462.025L381.465 352.585L384.241 346.531L377.653 345.554L254.253 327.254L254.247 327.253C252.796 327.04 251.453 326.361 250.421 325.319C249.389 324.277 248.723 322.928 248.524 321.474C248.325 320.021 248.603 318.543 249.317 317.261C250.03 315.98 251.141 314.965 252.481 314.369L252.49 314.365L362.84 265.055L368.263 262.631L364.95 257.701L312.8 180.101L312.784 180.078L312.768 180.055C312.082 179.058 311.684 177.891 311.619 176.682C311.554 175.474 311.824 174.271 312.399 173.206L312.419 173.17L312.438 173.133C312.844 172.35 313.4 171.656 314.074 171.088C314.749 170.521 315.528 170.092 316.369 169.826C317.209 169.56 318.093 169.462 318.971 169.538C319.849 169.613 320.704 169.861 321.486 170.268L321.499 170.274L321.513 170.281L406.513 213.771L411.617 216.383L413.51 210.97L458.51 82.2804L458.517 82.2605L458.523 82.2406C458.974 80.9177 459.83 79.7706 460.969 78.9625C462.109 78.1544 463.475 77.7265 464.873 77.7398Z" fill="#88E0FF" stroke="#231F20" stroke-width="10"/>
<path d="M443.305 280.844C442.805 280.844 442.273 280.688 441.711 280.375C440.617 279.719 440.18 279.141 440.398 278.641C440.773 277.984 441.258 276.672 441.852 274.703L443.117 270.484C443.555 269.141 443.992 267.656 444.43 266.031L431.914 253.281C431.695 253 431.586 252.75 431.586 252.531C431.586 252.312 431.711 252.141 431.961 252.016C432.367 251.828 432.852 251.734 433.414 251.734C434.008 251.734 434.602 251.828 435.195 252.016C435.82 252.203 436.586 252.672 437.492 253.422C439.273 254.922 442.195 258.094 446.258 262.938C448.102 257.562 449.43 254.109 450.242 252.578C451.055 251.016 451.695 250.016 452.164 249.578C452.664 249.109 453.102 248.859 453.477 248.828C453.883 248.797 454.227 248.812 454.508 248.875C454.789 248.938 454.992 249.156 455.117 249.531C454.148 251.594 453.211 253.938 452.305 256.562C451.43 259.156 450.523 261.844 449.586 264.625C447.117 272 445.023 277.406 443.305 280.844ZM458.352 271.094C458.352 267.406 459.945 264.438 463.133 262.188C465.664 260.406 468.711 259.328 472.273 258.953C472.461 258.953 472.898 258.953 473.586 258.953C474.273 258.953 475.195 259.156 476.352 259.562C478.914 260.438 480.664 261.984 481.602 264.203C481.977 265.078 482.164 265.828 482.164 266.453C482.164 267.047 482.148 267.469 482.117 267.719C482.117 271.625 480.633 274.703 477.664 276.953C474.914 279.016 471.477 280.047 467.352 280.047C464.383 280.047 462.133 279.359 460.602 277.984C459.102 276.609 458.352 274.312 458.352 271.094ZM461.586 272.219C461.586 274.156 462.102 275.469 463.133 276.156C463.914 276.656 465.227 276.906 467.07 276.906C468.914 276.906 470.539 276.766 471.945 276.484C473.352 276.203 474.602 275.719 475.695 275.031C478.039 273.531 479.211 271.203 479.211 268.047C479.211 266.172 478.711 264.641 477.711 263.453C476.617 262.172 475.18 261.531 473.398 261.531C472.18 261.75 470.945 261.984 469.695 262.234C468.477 262.484 467.32 262.969 466.227 263.688C463.852 265.219 462.305 268.062 461.586 272.219ZM483.945 273.766C483.945 273.266 483.898 272.578 483.805 271.703C483.742 270.797 483.68 269.812 483.617 268.75C483.555 267.688 483.523 266.609 483.523 265.516C483.523 264.422 483.617 263.422 483.805 262.516C484.211 260.484 485.055 259.469 486.336 259.469C487.211 259.719 487.789 260.031 488.07 260.406C488.383 260.781 488.539 261.25 488.539 261.812C488.539 262.344 488.398 263.016 488.117 263.828C487.086 266.547 486.57 269 486.57 271.188C486.57 271.906 486.617 272.672 486.711 273.484C487.211 275.578 488.93 276.625 491.867 276.625C493.398 276.625 494.852 276.359 496.227 275.828C498.852 274.859 500.633 273.719 501.57 272.406C501.852 270.969 501.992 269.719 501.992 268.656C501.992 267.562 501.945 266.594 501.852 265.75C501.789 264.906 501.695 263.984 501.57 262.984C501.477 261.953 501.414 260.828 501.383 259.609C501.789 259.422 502.18 259.328 502.555 259.328C502.961 259.328 503.367 259.531 503.773 259.938C504.211 260.344 504.57 261.109 504.852 262.234C505.164 263.359 505.367 264.688 505.461 266.219C505.555 267.719 505.602 269.281 505.602 270.906C505.633 272.531 505.648 274.109 505.648 275.641C505.648 277.141 505.711 278.438 505.836 279.531C505.461 279.875 505.102 280.047 504.758 280.047C503.508 280.047 502.586 278.797 501.992 276.297C501.586 276.641 500.898 277.062 499.93 277.562C497.867 278.688 495.43 279.438 492.617 279.812C492.086 279.875 491.492 279.906 490.836 279.906C490.18 279.906 489.352 279.781 488.352 279.531C487.383 279.281 486.461 278.703 485.586 277.797C484.711 276.891 484.164 275.547 483.945 273.766ZM531.57 262.891C530.258 261.953 528.57 261.484 526.508 261.484C524.57 261.484 522.773 261.844 521.117 262.562C517.992 263.875 515.852 265.562 514.695 267.625C514.195 268.562 513.945 269.562 513.945 270.625C513.945 270.812 513.945 271.344 513.945 272.219C513.945 273.062 514.102 274.219 514.414 275.688C514.727 277.125 514.883 278.594 514.883 280.094C514.227 280.125 513.695 280.203 513.289 280.328C512.883 280.453 512.539 280.516 512.258 280.516C511.977 280.516 511.727 280.391 511.508 280.141C511.32 279.891 511.102 279.406 510.852 278.688C510.82 278.5 510.758 277.969 510.664 277.094C510.57 276.219 510.445 275.156 510.289 273.906C510.164 272.656 510.008 271.297 509.82 269.828C509.664 268.328 509.508 266.859 509.352 265.422C509.008 262.297 508.742 260 508.555 258.531C508.555 257.781 509.102 257.406 510.195 257.406C510.852 257.406 511.367 257.688 511.742 258.25C512.117 258.781 512.414 259.406 512.633 260.125C512.852 260.812 512.992 261.5 513.055 262.188C513.148 262.875 513.227 263.359 513.289 263.641C517.414 259.953 522.539 258.109 528.664 258.109C529.352 258.109 530.07 258.125 530.82 258.156C531.008 258.125 531.242 258.109 531.523 258.109C531.805 258.109 532.086 258.297 532.367 258.672C532.711 259.109 532.883 259.641 532.883 260.266C532.883 261.828 532.445 262.703 531.57 262.891ZM570.289 267.906C573.727 267.906 575.445 268.781 575.445 270.531C575.445 271.844 574.492 273.375 572.586 275.125C569.742 277.719 565.914 279.797 561.102 281.359C560.883 281.359 560.633 281.141 560.352 280.703C560.102 280.266 559.898 279.938 559.742 279.719C559.617 279.469 559.523 279.312 559.461 279.25C563.055 278.062 566.008 276.625 568.32 274.938C569.883 273.812 570.664 272.891 570.664 272.172C570.664 271.453 569.742 271.094 567.898 271.094C566.055 271.094 563.352 271.531 559.789 272.406C558.164 272.344 556.758 271.766 555.57 270.672C554.539 269.703 554.023 268.734 554.023 267.766C554.023 266.766 554.305 265.859 554.867 265.047C555.43 264.203 556.18 263.422 557.117 262.703C558.055 261.984 559.148 261.328 560.398 260.734C563.461 259.266 566.633 258.531 569.914 258.531C570.883 258.531 571.82 258.625 572.727 258.812C573.477 258.812 573.914 259.141 574.039 259.797C574.164 260.453 574.227 261.531 574.227 263.031C572.383 262.188 570.305 261.766 567.992 261.766C565.117 261.766 562.742 262.344 560.867 263.5C558.93 264.625 557.93 266.094 557.867 267.906C557.867 268.781 558.508 269.219 559.789 269.219L563.211 268.844C566.148 268.219 568.508 267.906 570.289 267.906ZM582.57 257.969C582.977 263.812 583.32 270.578 583.602 278.266C583.414 279.234 582.664 279.719 581.352 279.719C581.008 279.719 580.648 279.656 580.273 279.531C579.93 279.375 579.711 279.172 579.617 278.922V257.969H582.57ZM578.211 251.594C578.211 250.5 578.852 249.953 580.133 249.953C580.977 249.953 581.664 250.141 582.195 250.516C582.289 250.859 582.336 251.203 582.336 251.547C582.336 251.859 582.211 252.172 581.961 252.484C581.711 252.797 581.336 252.953 580.836 252.953C580.336 252.953 579.836 252.844 579.336 252.625C578.836 252.375 578.461 252.031 578.211 251.594ZM592.695 275.5L592.789 268C592.789 266.812 592.68 265.797 592.461 264.953H585.195L585.102 261.719H592.133V249.625C592.227 249.344 592.414 249.062 592.695 248.781C593.133 248.344 593.492 248.125 593.773 248.125C594.086 248.125 594.352 248.156 594.57 248.219C594.789 248.281 595.023 248.5 595.273 248.875C595.773 250.938 596.023 254.047 596.023 258.203C596.023 259.234 596.07 260.25 596.164 261.25C597.164 261.125 598.164 261.062 599.164 261.062C599.164 261.062 599.977 261.062 601.602 261.062C602.195 261.062 602.742 261.031 603.242 260.969L603.102 264.344L596.258 264.156L596.492 280.328C595.93 280.578 595.445 280.703 595.039 280.703C593.477 280.703 592.695 278.969 592.695 275.5ZM614.586 276.719C617.336 276.719 621.477 275.469 627.008 272.969C627.352 272.969 627.633 273.094 627.852 273.344C628.07 273.562 628.18 273.828 628.18 274.141C626.93 276.266 624.539 277.922 621.008 279.109C617.477 280.297 614.18 280.5 611.117 279.719C607.648 278.812 605.539 276.859 604.789 273.859C604.727 273.266 604.695 272.469 604.695 271.469C604.695 270.469 604.945 269.156 605.445 267.531C605.977 265.875 606.867 264.312 608.117 262.844C609.367 261.375 610.836 260.219 612.523 259.375C614.211 258.531 616.008 258.109 617.914 258.109C619.727 258.109 621.758 258.734 624.008 259.984C625.07 260.578 625.914 261.25 626.539 262C627.164 262.75 627.477 263.516 627.477 264.297C627.477 264.516 627.461 264.734 627.43 264.953C627.367 266.859 626.445 268.062 624.664 268.562C623.883 268.781 622.977 268.891 621.945 268.891L615.195 268.609C612.945 268.609 611.227 269.094 610.039 270.062C609.352 270.594 608.867 271.391 608.586 272.453C609.367 275.297 611.367 276.719 614.586 276.719ZM622.93 262.234C622.242 261.734 621.523 261.375 620.773 261.156C620.023 260.938 619.398 260.828 618.898 260.828C618.398 260.828 617.586 261 616.461 261.344C615.336 261.656 614.336 262.016 613.461 262.422C611.305 263.422 610.227 264.469 610.227 265.562C612.727 265.781 614.602 265.891 615.852 265.891C619.32 265.891 621.664 265.594 622.883 265C623.633 264.688 624.008 264.297 624.008 263.828C624.008 263.266 623.648 262.734 622.93 262.234ZM415.438 315.062C414.75 317.344 414.172 319.453 413.703 321.391C413.266 323.328 412.828 324.938 412.391 326.219C411.703 328.062 410.922 328.984 410.047 328.984C409.578 328.984 409.047 328.766 408.453 328.328C407.016 326.797 404.984 323.406 402.359 318.156C399.797 313.031 398.516 309.828 398.516 308.547C398.516 307.984 398.688 307.641 399.031 307.516C399.375 307.359 399.766 307.344 400.203 307.469C401.266 307.781 402.016 308.266 402.453 308.922C402.672 309.234 402.938 309.781 403.25 310.562L404.422 313.469C405.734 316.75 407.031 319.75 408.312 322.469C409 321.406 409.656 320.031 410.281 318.344L411.734 314.312C412.984 310.781 414.109 308.984 415.109 308.922C415.891 308.422 418.234 311.188 422.141 317.219C423.797 319.781 424.828 321.312 425.234 321.812C425.516 321.812 425.844 320.875 426.219 319C426.625 317.125 426.969 315.547 427.25 314.266C427.562 312.953 427.938 311.734 428.375 310.609C429.406 307.984 430.594 306.672 431.938 306.672C432.375 306.672 432.672 306.828 432.828 307.141C433.016 307.422 433.109 307.656 433.109 307.844C433.109 308.031 433.109 308.172 433.109 308.266C432.734 309.328 432.344 310.547 431.938 311.922C431.531 313.266 431.094 314.656 430.625 316.094C430.188 317.5 429.734 318.906 429.266 320.312C428.828 321.688 428.391 322.938 427.953 324.062C426.922 326.5 426.062 327.812 425.375 328C424.844 328.25 423.984 327.641 422.797 326.172C422.266 325.484 421.703 324.672 421.109 323.734C420.516 322.797 419.891 321.828 419.234 320.828C417.641 318.328 416.375 316.406 415.438 315.062ZM437.609 319.094C437.609 315.406 439.203 312.438 442.391 310.188C444.922 308.406 447.969 307.328 451.531 306.953C451.719 306.953 452.156 306.953 452.844 306.953C453.531 306.953 454.453 307.156 455.609 307.562C458.172 308.438 459.922 309.984 460.859 312.203C461.234 313.078 461.422 313.828 461.422 314.453C461.422 315.047 461.406 315.469 461.375 315.719C461.375 319.625 459.891 322.703 456.922 324.953C454.172 327.016 450.734 328.047 446.609 328.047C443.641 328.047 441.391 327.359 439.859 325.984C438.359 324.609 437.609 322.312 437.609 319.094ZM440.844 320.219C440.844 322.156 441.359 323.469 442.391 324.156C443.172 324.656 444.484 324.906 446.328 324.906C448.172 324.906 449.797 324.766 451.203 324.484C452.609 324.203 453.859 323.719 454.953 323.031C457.297 321.531 458.469 319.203 458.469 316.047C458.469 314.172 457.969 312.641 456.969 311.453C455.875 310.172 454.438 309.531 452.656 309.531C451.438 309.75 450.203 309.984 448.953 310.234C447.734 310.484 446.578 310.969 445.484 311.688C443.109 313.219 441.562 316.062 440.844 320.219ZM486.453 310.891C485.141 309.953 483.453 309.484 481.391 309.484C479.453 309.484 477.656 309.844 476 310.562C472.875 311.875 470.734 313.562 469.578 315.625C469.078 316.562 468.828 317.562 468.828 318.625C468.828 318.812 468.828 319.344 468.828 320.219C468.828 321.062 468.984 322.219 469.297 323.688C469.609 325.125 469.766 326.594 469.766 328.094C469.109 328.125 468.578 328.203 468.172 328.328C467.766 328.453 467.422 328.516 467.141 328.516C466.859 328.516 466.609 328.391 466.391 328.141C466.203 327.891 465.984 327.406 465.734 326.688C465.703 326.5 465.641 325.969 465.547 325.094C465.453 324.219 465.328 323.156 465.172 321.906C465.047 320.656 464.891 319.297 464.703 317.828C464.547 316.328 464.391 314.859 464.234 313.422C463.891 310.297 463.625 308 463.438 306.531C463.438 305.781 463.984 305.406 465.078 305.406C465.734 305.406 466.25 305.688 466.625 306.25C467 306.781 467.297 307.406 467.516 308.125C467.734 308.812 467.875 309.5 467.938 310.188C468.031 310.875 468.109 311.359 468.172 311.641C472.297 307.953 477.422 306.109 483.547 306.109C484.234 306.109 484.953 306.125 485.703 306.156C485.891 306.125 486.125 306.109 486.406 306.109C486.688 306.109 486.969 306.297 487.25 306.672C487.594 307.109 487.766 307.641 487.766 308.266C487.766 309.828 487.328 310.703 486.453 310.891ZM494.562 319.469L494.797 323.547C494.797 326.047 494.203 327.562 493.016 328.094C492.766 328.188 492.469 328.234 492.125 328.234C491.781 328.234 491.375 328.156 490.906 328L490.953 310.469C490.953 307.938 490.797 305.406 490.484 302.875C490.203 300.312 490.062 297.766 490.062 295.234C490.062 294.234 490.594 293.734 491.656 293.734H492.031C492.25 293.734 492.391 293.75 492.453 293.781C492.922 295.719 493.234 298.062 493.391 300.812C493.734 306.906 494.047 311 494.328 313.094C494.859 312.812 496.047 312.016 497.891 310.703C499.734 309.391 501.219 308.344 502.344 307.562C503.469 306.75 504.531 306 505.531 305.312C507.875 303.781 509.344 303.016 509.938 303.016C510.438 303.016 510.828 303.312 511.109 303.906C509.547 305.875 507.031 308.062 503.562 310.469C502.156 311.438 500.75 312.406 499.344 313.375C497.969 314.312 496.703 315.297 495.547 316.328C497.641 316.891 499.625 317.484 501.5 318.109C503.375 318.703 505.188 319.25 506.938 319.75C510.969 320.938 514.438 321.609 517.344 321.766C517.344 322.609 517.266 323.156 517.109 323.406C516.828 323.844 516.25 324.094 515.375 324.156H515C513.094 323.625 510.562 323.031 507.406 322.375C501.188 321.094 496.906 320.125 494.562 319.469ZM535.438 315.906C538.875 315.906 540.594 316.781 540.594 318.531C540.594 319.844 539.641 321.375 537.734 323.125C534.891 325.719 531.062 327.797 526.25 329.359C526.031 329.359 525.781 329.141 525.5 328.703C525.25 328.266 525.047 327.938 524.891 327.719C524.766 327.469 524.672 327.312 524.609 327.25C528.203 326.062 531.156 324.625 533.469 322.938C535.031 321.812 535.812 320.891 535.812 320.172C535.812 319.453 534.891 319.094 533.047 319.094C531.203 319.094 528.5 319.531 524.938 320.406C523.312 320.344 521.906 319.766 520.719 318.672C519.688 317.703 519.172 316.734 519.172 315.766C519.172 314.766 519.453 313.859 520.016 313.047C520.578 312.203 521.328 311.422 522.266 310.703C523.203 309.984 524.297 309.328 525.547 308.734C528.609 307.266 531.781 306.531 535.062 306.531C536.031 306.531 536.969 306.625 537.875 306.812C538.625 306.812 539.062 307.141 539.188 307.797C539.312 308.453 539.375 309.531 539.375 311.031C537.531 310.188 535.453 309.766 533.141 309.766C530.266 309.766 527.891 310.344 526.016 311.5C524.078 312.625 523.078 314.094 523.016 315.906C523.016 316.781 523.656 317.219 524.938 317.219L528.359 316.844C531.297 316.219 533.656 315.906 535.438 315.906ZM584.75 327.344C584.469 327.875 583.734 328.141 582.547 328.141C581.391 328.141 580.812 327.719 580.812 326.875C580.812 323.188 580.734 320.656 580.578 319.281C580.297 316.25 579.703 314.625 578.797 314.406C576.547 313.969 574.703 313.75 573.266 313.75C571.859 313.75 570.688 314.188 569.75 315.062C568.844 315.906 568.141 317.328 567.641 319.328C567.172 321.297 566.828 324.078 566.609 327.672H563C563.062 325.891 563.094 324.234 563.094 322.703C563.094 321.172 563.062 319.359 563 317.266C562.938 315.141 562.859 312.828 562.766 310.328C562.609 307.453 562.531 305.031 562.531 303.062C562.531 301.062 562.656 299.234 562.906 297.578C563.219 296.984 563.672 296.688 564.266 296.688C564.984 296.688 565.547 296.953 565.953 297.484C566.359 297.984 566.578 298.438 566.609 298.844L566.375 306.578C566.375 309.484 566.516 311.656 566.797 313.094C569.609 311.219 572.516 310.281 575.516 310.281C576.484 310.281 577.516 310.359 578.609 310.516C580.953 311.734 582.484 313.031 583.203 314.406C583.547 315.125 583.766 315.891 583.859 316.703C583.953 317.516 584.016 318.438 584.047 319.469C584.234 323.031 584.469 325.656 584.75 327.344ZM596.047 324.719C598.797 324.719 602.938 323.469 608.469 320.969C608.812 320.969 609.094 321.094 609.312 321.344C609.531 321.562 609.641 321.828 609.641 322.141C608.391 324.266 606 325.922 602.469 327.109C598.938 328.297 595.641 328.5 592.578 327.719C589.109 326.812 587 324.859 586.25 321.859C586.188 321.266 586.156 320.469 586.156 319.469C586.156 318.469 586.406 317.156 586.906 315.531C587.438 313.875 588.328 312.312 589.578 310.844C590.828 309.375 592.297 308.219 593.984 307.375C595.672 306.531 597.469 306.109 599.375 306.109C601.188 306.109 603.219 306.734 605.469 307.984C606.531 308.578 607.375 309.25 608 310C608.625 310.75 608.938 311.516 608.938 312.297C608.938 312.516 608.922 312.734 608.891 312.953C608.828 314.859 607.906 316.062 606.125 316.562C605.344 316.781 604.438 316.891 603.406 316.891L596.656 316.609C594.406 316.609 592.688 317.094 591.5 318.062C590.812 318.594 590.328 319.391 590.047 320.453C590.828 323.297 592.828 324.719 596.047 324.719ZM604.391 310.234C603.703 309.734 602.984 309.375 602.234 309.156C601.484 308.938 600.859 308.828 600.359 308.828C599.859 308.828 599.047 309 597.922 309.344C596.797 309.656 595.797 310.016 594.922 310.422C592.766 311.422 591.688 312.469 591.688 313.562C594.188 313.781 596.062 313.891 597.312 313.891C600.781 313.891 603.125 313.594 604.344 313C605.094 312.688 605.469 312.297 605.469 311.828C605.469 311.266 605.109 310.734 604.391 310.234ZM635.469 310.891C634.156 309.953 632.469 309.484 630.406 309.484C628.469 309.484 626.672 309.844 625.016 310.562C621.891 311.875 619.75 313.562 618.594 315.625C618.094 316.562 617.844 317.562 617.844 318.625C617.844 318.812 617.844 319.344 617.844 320.219C617.844 321.062 618 322.219 618.312 323.688C618.625 325.125 618.781 326.594 618.781 328.094C618.125 328.125 617.594 328.203 617.188 328.328C616.781 328.453 616.438 328.516 616.156 328.516C615.875 328.516 615.625 328.391 615.406 328.141C615.219 327.891 615 327.406 614.75 326.688C614.719 326.5 614.656 325.969 614.562 325.094C614.469 324.219 614.344 323.156 614.188 321.906C614.062 320.656 613.906 319.297 613.719 317.828C613.562 316.328 613.406 314.859 613.25 313.422C612.906 310.297 612.641 308 612.453 306.531C612.453 305.781 613 305.406 614.094 305.406C614.75 305.406 615.266 305.688 615.641 306.25C616.016 306.781 616.312 307.406 616.531 308.125C616.75 308.812 616.891 309.5 616.953 310.188C617.047 310.875 617.125 311.359 617.188 311.641C621.312 307.953 626.438 306.109 632.562 306.109C633.25 306.109 633.969 306.125 634.719 306.156C634.906 306.125 635.141 306.109 635.422 306.109C635.703 306.109 635.984 306.297 636.266 306.672C636.609 307.109 636.781 307.641 636.781 308.266C636.781 309.828 636.344 310.703 635.469 310.891ZM648.5 324.719C651.25 324.719 655.391 323.469 660.922 320.969C661.266 320.969 661.547 321.094 661.766 321.344C661.984 321.562 662.094 321.828 662.094 322.141C660.844 324.266 658.453 325.922 654.922 327.109C651.391 328.297 648.094 328.5 645.031 327.719C641.562 326.812 639.453 324.859 638.703 321.859C638.641 321.266 638.609 320.469 638.609 319.469C638.609 318.469 638.859 317.156 639.359 315.531C639.891 313.875 640.781 312.312 642.031 310.844C643.281 309.375 644.75 308.219 646.438 307.375C648.125 306.531 649.922 306.109 651.828 306.109C653.641 306.109 655.672 306.734 657.922 307.984C658.984 308.578 659.828 309.25 660.453 310C661.078 310.75 661.391 311.516 661.391 312.297C661.391 312.516 661.375 312.734 661.344 312.953C661.281 314.859 660.359 316.062 658.578 316.562C657.797 316.781 656.891 316.891 655.859 316.891L649.109 316.609C646.859 316.609 645.141 317.094 643.953 318.062C643.266 318.594 642.781 319.391 642.5 320.453C643.281 323.297 645.281 324.719 648.5 324.719ZM656.844 310.234C656.156 309.734 655.438 309.375 654.688 309.156C653.938 308.938 653.312 308.828 652.812 308.828C652.312 308.828 651.5 309 650.375 309.344C649.25 309.656 648.25 310.016 647.375 310.422C645.219 311.422 644.141 312.469 644.141 313.562C646.641 313.781 648.516 313.891 649.766 313.891C653.234 313.891 655.578 313.594 656.797 313C657.547 312.688 657.922 312.297 657.922 311.828C657.922 311.266 657.562 310.734 656.844 310.234ZM489.453 371.5L489.547 364C489.547 362.812 489.438 361.797 489.219 360.953H481.953L481.859 357.719H488.891V345.625C488.984 345.344 489.172 345.062 489.453 344.781C489.891 344.344 490.25 344.125 490.531 344.125C490.844 344.125 491.109 344.156 491.328 344.219C491.547 344.281 491.781 344.5 492.031 344.875C492.531 346.938 492.781 350.047 492.781 354.203C492.781 355.234 492.828 356.25 492.922 357.25C493.922 357.125 494.922 357.062 495.922 357.062C495.922 357.062 496.734 357.062 498.359 357.062C498.953 357.062 499.5 357.031 500 356.969L499.859 360.344L493.016 360.156L493.25 376.328C492.688 376.578 492.203 376.703 491.797 376.703C490.234 376.703 489.453 374.969 489.453 371.5ZM502.953 367.094C502.953 363.406 504.547 360.438 507.734 358.188C510.266 356.406 513.312 355.328 516.875 354.953C517.062 354.953 517.5 354.953 518.188 354.953C518.875 354.953 519.797 355.156 520.953 355.562C523.516 356.438 525.266 357.984 526.203 360.203C526.578 361.078 526.766 361.828 526.766 362.453C526.766 363.047 526.75 363.469 526.719 363.719C526.719 367.625 525.234 370.703 522.266 372.953C519.516 375.016 516.078 376.047 511.953 376.047C508.984 376.047 506.734 375.359 505.203 373.984C503.703 372.609 502.953 370.312 502.953 367.094ZM506.188 368.219C506.188 370.156 506.703 371.469 507.734 372.156C508.516 372.656 509.828 372.906 511.672 372.906C513.516 372.906 515.141 372.766 516.547 372.484C517.953 372.203 519.203 371.719 520.297 371.031C522.641 369.531 523.812 367.203 523.812 364.047C523.812 362.172 523.312 360.641 522.312 359.453C521.219 358.172 519.781 357.531 518 357.531C516.781 357.75 515.547 357.984 514.297 358.234C513.078 358.484 511.922 358.969 510.828 359.688C508.453 361.219 506.906 364.062 506.188 368.219ZM529.953 367.094C529.953 363.406 531.547 360.438 534.734 358.188C537.266 356.406 540.312 355.328 543.875 354.953C544.062 354.953 544.5 354.953 545.188 354.953C545.875 354.953 546.797 355.156 547.953 355.562C550.516 356.438 552.266 357.984 553.203 360.203C553.578 361.078 553.766 361.828 553.766 362.453C553.766 363.047 553.75 363.469 553.719 363.719C553.719 367.625 552.234 370.703 549.266 372.953C546.516 375.016 543.078 376.047 538.953 376.047C535.984 376.047 533.734 375.359 532.203 373.984C530.703 372.609 529.953 370.312 529.953 367.094ZM533.188 368.219C533.188 370.156 533.703 371.469 534.734 372.156C535.516 372.656 536.828 372.906 538.672 372.906C540.516 372.906 542.141 372.766 543.547 372.484C544.953 372.203 546.203 371.719 547.297 371.031C549.641 369.531 550.812 367.203 550.812 364.047C550.812 362.172 550.312 360.641 549.312 359.453C548.219 358.172 546.781 357.531 545 357.531C543.781 357.75 542.547 357.984 541.297 358.234C540.078 358.484 538.922 358.969 537.828 359.688C535.453 361.219 533.906 364.062 533.188 368.219ZM558.359 367.094C560.578 363.062 561.781 360.234 561.969 358.609C561.969 357.922 561.406 357.219 560.281 356.5C559.812 356.219 559.328 355.938 558.828 355.656C557.172 354.688 556.344 353.562 556.344 352.281C556.344 351.969 556.391 351.625 556.484 351.25C557.641 351.281 558.578 351.5 559.297 351.906C560.016 352.312 560.672 352.719 561.266 353.125C562.484 354 563.438 354.438 564.125 354.438C564.438 354.438 564.75 354.406 565.062 354.344L568.906 344.219C569.156 343.562 570.031 343.234 571.531 343.234C571.531 344.391 571.359 345.812 571.016 347.5C570.703 349.156 570.469 350.438 570.312 351.344C570.156 352.25 570.078 353.188 570.078 354.156C571.047 354.156 572.234 353.984 573.641 353.641C575.047 353.266 576.109 353 576.828 352.844C577.578 352.656 578.359 352.562 579.172 352.562C579.172 353.562 578.938 354.344 578.469 354.906C578 355.438 577.406 355.875 576.688 356.219C575.969 356.531 575.203 356.797 574.391 357.016C573.578 357.203 572.812 357.453 572.094 357.766C570.438 358.484 569.609 359.656 569.609 361.281C569.609 362.219 569.797 363.234 570.172 364.328C570.922 366.391 571.297 367.797 571.297 368.547C571.297 369.266 571.062 369.734 570.594 369.953C570.156 370.172 569.594 370.422 568.906 370.703C568.281 370.391 567.844 369.922 567.594 369.297C567.344 368.641 567.141 367.953 566.984 367.234C566.828 366.484 566.625 365.797 566.375 365.172C566.125 364.516 565.688 364.031 565.062 363.719C564.5 364.188 563.969 364.781 563.469 365.5C563 366.188 562.484 366.859 561.922 367.516C561.391 368.172 560.812 368.734 560.188 369.203C559.562 369.672 558.844 369.906 558.031 369.906C557.906 369.906 557.734 369.812 557.516 369.625C557.328 369.438 557.234 369.281 557.234 369.156C557.516 368.594 557.891 367.906 558.359 367.094Z" fill="black"/>
<path d="M3.84375 695.094C6.0625 691.062 7.26562 688.234 7.45312 686.609C7.45312 685.922 6.89062 685.219 5.76562 684.5C5.29688 684.219 4.8125 683.938 4.3125 683.656C2.65625 682.688 1.82812 681.562 1.82812 680.281C1.82812 679.969 1.875 679.625 1.96875 679.25C3.125 679.281 4.0625 679.5 4.78125 679.906C5.5 680.312 6.15625 680.719 6.75 681.125C7.96875 682 8.92188 682.438 9.60938 682.438C9.92188 682.438 10.2344 682.406 10.5469 682.344L14.3906 672.219C14.6406 671.562 15.5156 671.234 17.0156 671.234C17.0156 672.391 16.8438 673.812 16.5 675.5C16.1875 677.156 15.9531 678.438 15.7969 679.344C15.6406 680.25 15.5625 681.188 15.5625 682.156C16.5312 682.156 17.7188 681.984 19.125 681.641C20.5312 681.266 21.5938 681 22.3125 680.844C23.0625 680.656 23.8438 680.562 24.6562 680.562C24.6562 681.562 24.4219 682.344 23.9531 682.906C23.4844 683.438 22.8906 683.875 22.1719 684.219C21.4531 684.531 20.6875 684.797 19.875 685.016C19.0625 685.203 18.2969 685.453 17.5781 685.766C15.9219 686.484 15.0938 687.656 15.0938 689.281C15.0938 690.219 15.2812 691.234 15.6562 692.328C16.4062 694.391 16.7812 695.797 16.7812 696.547C16.7812 697.266 16.5469 697.734 16.0781 697.953C15.6406 698.172 15.0781 698.422 14.3906 698.703C13.7656 698.391 13.3281 697.922 13.0781 697.297C12.8281 696.641 12.625 695.953 12.4688 695.234C12.3125 694.484 12.1094 693.797 11.8594 693.172C11.6094 692.516 11.1719 692.031 10.5469 691.719C9.98438 692.188 9.45312 692.781 8.95312 693.5C8.48438 694.188 7.96875 694.859 7.40625 695.516C6.875 696.172 6.29688 696.734 5.67188 697.203C5.04688 697.672 4.32812 697.906 3.51562 697.906C3.39062 697.906 3.21875 697.812 3 697.625C2.8125 697.438 2.71875 697.281 2.71875 697.156C3 696.594 3.375 695.906 3.84375 695.094ZM44.0625 696.219C41.7188 699.906 38.5938 702.188 34.6875 703.062C33.7812 703.25 32.9531 703.344 32.2031 703.344C31.4844 703.344 30.875 703.344 30.375 703.344C29.9062 703.312 29.375 703.234 28.7812 703.109C28.1875 702.984 27.6406 702.781 27.1406 702.5C25.9844 701.844 25.4062 700.922 25.4062 699.734C25.2812 699.172 25.2188 698.547 25.2188 697.859C25.2188 697.141 25.375 696.203 25.6875 695.047C26 693.891 26.5625 692.641 27.375 691.297C28.2188 689.953 29.2344 688.719 30.4219 687.594C32.8906 685.219 35.5625 683.688 38.4375 683C39.2812 682.812 40.0469 682.719 40.7344 682.719C41.4531 682.719 42.0938 682.766 42.6562 682.859C44.4688 682.859 45.6875 684.094 46.3125 686.562C46.7188 688.125 46.9531 690.312 47.0156 693.125C47.1094 695.906 47.1875 698.062 47.25 699.594C47.3438 701.094 47.5469 702.469 47.8594 703.719H45.0938C44.9688 702.875 44.875 702.125 44.8125 701.469C44.75 700.812 44.6875 700.203 44.625 699.641C44.4688 698.328 44.2812 697.188 44.0625 696.219ZM43.875 688.953C43.875 687.141 42.9844 686.234 41.2031 686.234C40.9844 686.203 40.7656 686.188 40.5469 686.188C38.2656 686.188 35.8594 687.281 33.3281 689.469C32.1406 690.469 31.125 691.594 30.2812 692.844C29.0312 694.625 28.4062 696.219 28.4062 697.625C28.4062 699.469 29.4688 700.562 31.5938 700.906C34.4062 700.844 37.0938 699.562 39.6562 697.062C40.75 695.969 41.6562 694.781 42.375 693.5C43.375 691.781 43.875 690.266 43.875 688.953ZM91.3125 703.344C91.0312 703.875 90.2969 704.141 89.1094 704.141C87.9531 704.141 87.375 703.719 87.375 702.875C87.375 699.188 87.2969 696.656 87.1406 695.281C86.8594 692.25 86.2656 690.625 85.3594 690.406C83.1094 689.969 81.2656 689.75 79.8281 689.75C78.4219 689.75 77.25 690.188 76.3125 691.062C75.4062 691.906 74.7031 693.328 74.2031 695.328C73.7344 697.297 73.3906 700.078 73.1719 703.672H69.5625C69.625 701.891 69.6562 700.234 69.6562 698.703C69.6562 697.172 69.625 695.359 69.5625 693.266C69.5 691.141 69.4219 688.828 69.3281 686.328C69.1719 683.453 69.0938 681.031 69.0938 679.062C69.0938 677.062 69.2188 675.234 69.4688 673.578C69.7812 672.984 70.2344 672.688 70.8281 672.688C71.5469 672.688 72.1094 672.953 72.5156 673.484C72.9219 673.984 73.1406 674.438 73.1719 674.844L72.9375 682.578C72.9375 685.484 73.0781 687.656 73.3594 689.094C76.1719 687.219 79.0781 686.281 82.0781 686.281C83.0469 686.281 84.0781 686.359 85.1719 686.516C87.5156 687.734 89.0469 689.031 89.7656 690.406C90.1094 691.125 90.3281 691.891 90.4219 692.703C90.5156 693.516 90.5781 694.438 90.6094 695.469C90.7969 699.031 91.0312 701.656 91.3125 703.344ZM102.938 721.672C102.281 723.141 101.5 723.875 100.594 723.875C100.156 723.875 99.8281 723.672 99.6094 723.266C99.4219 722.891 99.4219 722.438 99.6094 721.906C100.297 719 101.281 715.688 102.562 711.969C103.875 708.25 104.75 705.75 105.188 704.469C104.094 703.375 102.375 701.188 100.031 697.906C95.2188 691.156 92.8125 687.453 92.8125 686.797C92.8125 686.766 92.8281 686.734 92.8594 686.703L94.6406 684.922C97.1094 687.203 100.328 691.078 104.297 696.547C105.297 697.922 106.094 699.078 106.688 700.016C107.344 698.703 107.859 697.578 108.234 696.641C108.609 695.672 108.906 694.906 109.125 694.344C109.375 693.75 109.703 692.969 110.109 692C111.172 689.406 112.641 686.109 114.516 682.109C114.797 681.984 115.094 681.922 115.406 681.922C116.188 681.922 116.75 682.125 117.094 682.531C117.219 682.688 117.281 682.875 117.281 683.094C117.281 683.281 117.25 683.469 117.188 683.656L102.938 721.672ZM123.891 685.203C128.141 683.734 131.812 683 134.906 683C138.844 683 141.469 684.031 142.781 686.094C143.375 687.062 143.672 688.109 143.672 689.234C143.672 690.797 143.172 692.406 142.172 694.062C141.203 695.719 139.906 697.219 138.281 698.562C134.5 701.656 129.906 703.578 124.5 704.328C124.5 704.672 124.5 705.219 124.5 705.969C124.531 706.75 124.547 707.609 124.547 708.547C124.578 709.484 124.594 710.484 124.594 711.547C124.625 712.609 124.656 713.625 124.688 714.594C124.781 717 124.844 718.375 124.875 718.719C124.938 719.062 124.969 719.344 124.969 719.562C124.969 720.344 124.719 720.922 124.219 721.297C123.719 721.703 123.062 721.906 122.25 721.906C122.094 721.906 121.938 721.906 121.781 721.906L121.031 684.219C121.312 683.812 121.688 683.625 122.156 683.656C122.625 683.688 123 683.812 123.281 684.031C123.562 684.25 123.766 684.641 123.891 685.203ZM137.578 686.844C136.547 686.312 135.438 686.047 134.25 686.047C133.094 686.047 131.938 686.156 130.781 686.375C128.156 686.875 126.219 687.984 124.969 689.703C124.406 690.516 124.125 691.516 124.125 692.703C124.125 692.828 124.125 692.953 124.125 693.078V701.188C130.562 699.75 135.125 697.75 137.812 695.188C139.375 693.719 140.156 692.203 140.156 690.641C140.156 688.984 139.297 687.719 137.578 686.844ZM155.672 700.719C158.422 700.719 162.562 699.469 168.094 696.969C168.438 696.969 168.719 697.094 168.938 697.344C169.156 697.562 169.266 697.828 169.266 698.141C168.016 700.266 165.625 701.922 162.094 703.109C158.562 704.297 155.266 704.5 152.203 703.719C148.734 702.812 146.625 700.859 145.875 697.859C145.812 697.266 145.781 696.469 145.781 695.469C145.781 694.469 146.031 693.156 146.531 691.531C147.062 689.875 147.953 688.312 149.203 686.844C150.453 685.375 151.922 684.219 153.609 683.375C155.297 682.531 157.094 682.109 159 682.109C160.812 682.109 162.844 682.734 165.094 683.984C166.156 684.578 167 685.25 167.625 686C168.25 686.75 168.562 687.516 168.562 688.297C168.562 688.516 168.547 688.734 168.516 688.953C168.453 690.859 167.531 692.062 165.75 692.562C164.969 692.781 164.062 692.891 163.031 692.891L156.281 692.609C154.031 692.609 152.312 693.094 151.125 694.062C150.438 694.594 149.953 695.391 149.672 696.453C150.453 699.297 152.453 700.719 155.672 700.719ZM164.016 686.234C163.328 685.734 162.609 685.375 161.859 685.156C161.109 684.938 160.484 684.828 159.984 684.828C159.484 684.828 158.672 685 157.547 685.344C156.422 685.656 155.422 686.016 154.547 686.422C152.391 687.422 151.312 688.469 151.312 689.562C153.812 689.781 155.688 689.891 156.938 689.891C160.406 689.891 162.75 689.594 163.969 689C164.719 688.688 165.094 688.297 165.094 687.828C165.094 687.266 164.734 686.734 164.016 686.234ZM195.094 686.891C193.781 685.953 192.094 685.484 190.031 685.484C188.094 685.484 186.297 685.844 184.641 686.562C181.516 687.875 179.375 689.562 178.219 691.625C177.719 692.562 177.469 693.562 177.469 694.625C177.469 694.812 177.469 695.344 177.469 696.219C177.469 697.062 177.625 698.219 177.938 699.688C178.25 701.125 178.406 702.594 178.406 704.094C177.75 704.125 177.219 704.203 176.812 704.328C176.406 704.453 176.062 704.516 175.781 704.516C175.5 704.516 175.25 704.391 175.031 704.141C174.844 703.891 174.625 703.406 174.375 702.688C174.344 702.5 174.281 701.969 174.188 701.094C174.094 700.219 173.969 699.156 173.812 697.906C173.688 696.656 173.531 695.297 173.344 693.828C173.188 692.328 173.031 690.859 172.875 689.422C172.531 686.297 172.266 684 172.078 682.531C172.078 681.781 172.625 681.406 173.719 681.406C174.375 681.406 174.891 681.688 175.266 682.25C175.641 682.781 175.938 683.406 176.156 684.125C176.375 684.812 176.516 685.5 176.578 686.188C176.672 686.875 176.75 687.359 176.812 687.641C180.938 683.953 186.062 682.109 192.188 682.109C192.875 682.109 193.594 682.125 194.344 682.156C194.531 682.125 194.766 682.109 195.047 682.109C195.328 682.109 195.609 682.297 195.891 682.672C196.234 683.109 196.406 683.641 196.406 684.266C196.406 685.828 195.969 686.703 195.094 686.891ZM198.844 676.812L198.703 670.766C198.703 670.266 198.875 669.875 199.219 669.594C199.562 669.312 199.984 669.172 200.484 669.172C200.984 669.172 201.438 669.312 201.844 669.594C202.25 669.844 202.406 670.203 202.312 670.672L202.641 690.922C204.609 688.297 207.266 686.094 210.609 684.312C213.391 682.812 215.828 682.062 217.922 682.062C219.766 682.062 221.188 682.656 222.188 683.844C222.938 684.781 223.312 686.031 223.312 687.594C223.312 689.125 223.016 690.469 222.422 691.625C221.859 692.75 221.109 693.844 220.172 694.906C219.234 695.938 218.156 696.906 216.938 697.812C215.719 698.719 214.484 699.531 213.234 700.25C210.859 701.625 208.516 702.766 206.203 703.672C206.016 703.609 205.703 703.594 205.266 703.625C204.828 703.656 204.297 703.672 203.672 703.672C201.984 703.672 200.5 703.469 199.219 703.062C198.906 700.094 198.75 695.578 198.75 689.516L198.844 676.812ZM202.781 699.828C202.781 700.172 203.094 700.344 203.719 700.344C204.375 700.344 205.172 700.219 206.109 699.969C207.047 699.719 208.172 699.297 209.484 698.703C210.828 698.078 212.172 697.281 213.516 696.312C216.641 694.094 219 691.484 220.594 688.484C220.188 686.703 218.969 685.812 216.938 685.812C215.094 685.812 213.016 686.5 210.703 687.875C207.422 689.844 205.078 692.281 203.672 695.188C203.078 696.344 202.781 697.516 202.781 698.703C202.781 699.016 202.781 699.266 202.781 699.453C202.781 699.641 202.781 699.766 202.781 699.828ZM226.688 695.094C226.688 691.406 228.281 688.438 231.469 686.188C234 684.406 237.047 683.328 240.609 682.953C240.797 682.953 241.234 682.953 241.922 682.953C242.609 682.953 243.531 683.156 244.688 683.562C247.25 684.438 249 685.984 249.938 688.203C250.312 689.078 250.5 689.828 250.5 690.453C250.5 691.047 250.484 691.469 250.453 691.719C250.453 695.625 248.969 698.703 246 700.953C243.25 703.016 239.812 704.047 235.688 704.047C232.719 704.047 230.469 703.359 228.938 701.984C227.438 700.609 226.688 698.312 226.688 695.094ZM229.922 696.219C229.922 698.156 230.438 699.469 231.469 700.156C232.25 700.656 233.562 700.906 235.406 700.906C237.25 700.906 238.875 700.766 240.281 700.484C241.688 700.203 242.938 699.719 244.031 699.031C246.375 697.531 247.547 695.203 247.547 692.047C247.547 690.172 247.047 688.641 246.047 687.453C244.953 686.172 243.516 685.531 241.734 685.531C240.516 685.75 239.281 685.984 238.031 686.234C236.812 686.484 235.656 686.969 234.562 687.688C232.188 689.219 230.641 692.062 229.922 696.219ZM253.359 685.812C253.297 684.125 253.234 682.625 253.172 681.312C253.109 679.969 253.062 678.984 253.031 678.359C253.031 677.703 252.781 676.125 252.281 673.625C252.562 673.25 252.828 672.891 253.078 672.547C253.359 672.203 253.75 672.031 254.25 672.031C255.344 672.031 256.188 676.641 256.781 685.859C257.094 691.203 257.25 696.547 257.25 701.891C257.25 703.328 256.25 704.047 254.25 704.047L253.875 704C253.875 702.375 253.828 700.297 253.734 697.766C253.641 695.234 253.562 693.031 253.5 691.156C253.469 689.281 253.422 687.5 253.359 685.812ZM269.625 700.719C272.375 700.719 276.516 699.469 282.047 696.969C282.391 696.969 282.672 697.094 282.891 697.344C283.109 697.562 283.219 697.828 283.219 698.141C281.969 700.266 279.578 701.922 276.047 703.109C272.516 704.297 269.219 704.5 266.156 703.719C262.688 702.812 260.578 700.859 259.828 697.859C259.766 697.266 259.734 696.469 259.734 695.469C259.734 694.469 259.984 693.156 260.484 691.531C261.016 689.875 261.906 688.312 263.156 686.844C264.406 685.375 265.875 684.219 267.562 683.375C269.25 682.531 271.047 682.109 272.953 682.109C274.766 682.109 276.797 682.734 279.047 683.984C280.109 684.578 280.953 685.25 281.578 686C282.203 686.75 282.516 687.516 282.516 688.297C282.516 688.516 282.5 688.734 282.469 688.953C282.406 690.859 281.484 692.062 279.703 692.562C278.922 692.781 278.016 692.891 276.984 692.891L270.234 692.609C267.984 692.609 266.266 693.094 265.078 694.062C264.391 694.594 263.906 695.391 263.625 696.453C264.406 699.297 266.406 700.719 269.625 700.719ZM277.969 686.234C277.281 685.734 276.562 685.375 275.812 685.156C275.062 684.938 274.438 684.828 273.938 684.828C273.438 684.828 272.625 685 271.5 685.344C270.375 685.656 269.375 686.016 268.5 686.422C266.344 687.422 265.266 688.469 265.266 689.562C267.766 689.781 269.641 689.891 270.891 689.891C274.359 689.891 276.703 689.594 277.922 689C278.672 688.688 279.047 688.297 279.047 687.828C279.047 687.266 278.688 686.734 277.969 686.234Z" fill="black"/>
<path d="M301.661 482.7C304.933 494.469 307.506 506.487 310.362 518.326C313.718 532.199 316.137 546.79 320.718 560.304C322.643 565.931 325.852 570.641 332.056 571.77C338.383 572.925 345.647 571.424 351.91 570.525C364.751 568.705 377.437 565.916 389.858 562.184C400.42 559.008 414.453 555.421 415.172 542.125C415.505 535.959 413.734 529.812 412.297 523.87C410.77 517.552 409.127 511.257 407.369 504.986C403.853 492.456 399.904 480.05 395.524 467.769C394.324 464.426 393.117 461.089 391.834 457.785C390.711 454.903 389.839 451.695 386.553 450.636C381.516 449.019 373.72 452.638 368.972 453.928C355.933 457.47 342.903 461.044 329.881 464.65L310.349 470.008C307.968 470.65 304.632 471.041 302.585 472.575C299.441 474.936 300.878 479.274 301.622 482.431C301.641 482.527 301.648 482.611 301.661 482.7Z" fill="#88E0FF"/>
<path d="M289.95 575.986C300.082 620.171 308.129 669.669 340.212 703.036C334.533 691.634 330.837 678.82 326.904 667.327C315.138 632.614 305.206 597.305 297.15 561.549C293.011 543.441 289.142 525.249 285.69 507.007C283.322 494.469 280.929 480.698 282.424 467.634C278.099 474.782 275.776 483.201 275.109 491.453C273.966 505.537 277.034 519.474 280.126 533.123C283.386 547.41 286.661 561.698 289.95 575.986Z" fill="#58595B"/>
<path d="M292.985 517.678C299.954 552.142 308.033 586.432 317.735 620.235C322.547 636.991 327.807 653.606 333.513 670.08C338.756 685.133 343.78 700.367 352.32 713.887C353.212 714.58 354.091 715.273 355.015 715.94C355.382 716.195 355.655 716.564 355.791 716.99C355.928 717.415 355.922 717.874 355.773 718.295C357.304 719.326 358.895 720.293 360.547 721.195C373.989 728.497 391.186 732.29 406.432 732.104C420.619 731.924 435.634 726.938 444.162 714.958C451.638 704.46 453.242 691.095 453.421 678.55C453.851 651.042 450.945 623.097 447.005 595.903C443.007 568.113 437.231 540.608 429.712 513.558C426.151 500.725 422.243 488.039 417.892 475.475C413.837 463.771 409.178 452.074 401.966 441.916C397.879 436.141 392.54 428.653 384.75 429.083C378.417 429.449 371.917 431.207 365.738 432.509C352.121 435.363 338.659 438.864 325.351 443.013C313.038 446.863 298.401 450.271 288.872 459.453C288.763 459.556 288.667 459.665 288.564 459.767C287.142 468.929 286.873 478.233 287.762 487.462C288.834 497.638 290.964 507.674 292.985 517.678ZM323.818 610.873C323.715 606.959 324.459 602.442 328.162 600.337C332.891 597.642 339.16 596.526 344.409 595.268C348.124 594.383 352.712 593.343 355.875 596.224C358.808 598.881 359.68 604.239 359.045 607.96C358.294 612.381 355.112 615.108 351.21 616.944C347.765 618.548 343.882 620.255 340.013 620.068C336.523 620.992 332.955 621.583 329.747 620.62C325.486 619.305 323.914 614.961 323.818 610.873ZM330.234 637.855C330.138 633.935 330.876 629.418 334.578 627.319C339.314 624.624 345.583 623.469 350.825 622.25C354.547 621.365 359.128 620.325 362.292 623.206C365.231 625.863 366.097 631.221 365.468 634.942C364.717 639.357 361.528 642.084 357.627 643.926C354.188 645.536 350.306 647.243 346.43 647.057C342.939 647.975 339.372 648.571 336.163 647.602C331.967 646.287 330.363 641.936 330.26 637.855H330.234ZM366.739 589.692C371.474 586.997 377.743 585.88 382.986 584.623C386.707 583.737 391.289 582.698 394.452 585.579C397.391 588.235 398.257 593.593 397.628 597.315C396.878 601.736 393.689 604.463 389.787 606.298C386.348 607.902 382.466 609.609 378.59 609.423C375.1 610.347 371.532 610.938 368.324 609.975C364.044 608.692 362.472 604.328 362.369 600.241C362.324 596.314 363.081 591.797 366.764 589.692H366.739ZM372.661 660.744C371.91 665.165 368.721 667.892 364.82 669.727C361.381 671.331 357.499 673.038 353.623 672.852C350.132 673.776 346.565 674.366 343.356 673.404C339.076 672.121 337.504 667.757 337.402 663.67C337.305 659.749 338.043 655.232 341.746 653.134C346.481 650.439 352.744 649.322 357.993 648.064C361.714 647.179 366.296 646.139 369.459 649.021C372.443 651.664 373.316 657.022 372.687 660.744H372.661ZM368.869 627.217C368.766 623.296 369.511 618.779 373.213 616.68C377.942 613.985 384.211 612.863 389.46 611.611C393.175 610.719 397.763 609.686 400.927 612.561C403.859 615.224 404.732 620.582 404.096 624.303C403.346 628.718 400.163 631.445 396.262 633.287C392.816 634.897 388.934 636.604 385.065 636.418C381.568 637.336 378.006 637.932 374.798 636.964C370.537 635.635 368.965 631.291 368.869 627.217ZM376.062 653.018C375.959 649.097 376.704 644.58 380.406 642.482C385.135 639.787 391.404 638.664 396.653 637.413C400.368 636.527 404.956 635.488 408.12 638.369C411.052 641.025 411.918 646.383 411.29 650.105C410.539 654.526 407.356 657.253 403.455 659.088C399.983 660.673 396.133 662.38 392.283 662.194C388.786 663.118 385.225 663.708 382.017 662.746C377.73 661.443 376.158 657.099 376.062 653.012V653.018ZM420.247 676.869C419.496 681.283 416.314 684.011 412.412 685.852C408.967 687.463 405.085 689.163 401.209 688.984C397.718 689.901 394.151 690.498 390.942 689.529C386.662 688.246 385.09 683.882 384.988 679.801C384.891 675.881 385.629 671.363 389.338 669.265C394.067 666.57 400.336 665.447 405.585 664.196C409.3 663.304 413.882 662.271 417.052 665.146C420.01 667.783 420.876 673.141 420.247 676.862V676.869ZM449.899 637.727C449.148 642.142 445.959 644.869 442.057 646.71C438.618 648.321 434.736 650.022 430.86 649.842C427.37 650.759 423.802 651.356 420.594 650.387C416.32 649.104 414.748 644.741 414.645 640.66C414.549 636.739 415.287 632.222 418.99 630.123C423.725 627.428 429.988 626.305 435.237 625.054C438.958 624.162 443.54 623.129 446.703 626.01C449.655 628.667 450.527 634.025 449.899 637.746V637.727ZM442.706 611.919C441.955 616.34 438.766 619.067 434.864 620.903C431.425 622.507 427.543 624.214 423.667 624.034C420.177 624.952 416.609 625.548 413.401 624.579C409.121 623.296 407.549 618.933 407.446 614.852C407.35 610.931 408.088 606.414 411.79 604.316C416.526 601.614 422.795 600.498 428.037 599.246C431.759 598.354 436.34 597.321 439.504 600.196C442.462 602.865 443.334 608.217 442.706 611.939V611.919ZM433.081 573.208C436.013 575.864 436.886 581.222 436.25 584.944C435.5 589.365 432.317 592.092 428.416 593.927C424.97 595.538 421.088 597.244 417.219 597.058C413.721 597.976 410.16 598.573 406.952 597.61C402.672 596.327 401.1 591.957 401.004 587.876C400.901 583.955 401.645 579.438 405.348 577.34C410.077 574.645 416.346 573.522 421.595 572.271C425.336 571.392 429.924 570.359 433.087 573.227L433.081 573.208ZM295.764 472.684C296.406 470.826 297.627 469.222 299.248 468.109C302.033 466.133 305.626 465.491 308.873 464.606L322.194 460.954C339.96 456.078 357.723 451.193 375.485 446.299C380.259 445.015 385.809 443.591 390.455 446.074C395.787 448.923 397.308 455.994 399.252 461.211C404.736 475.905 409.551 490.822 413.696 505.961C415.775 513.584 417.758 521.258 419.419 528.984C420.748 535.163 421.813 541.817 419.933 548.016C416.327 559.861 403.686 563.833 393.066 567.099C378.163 571.655 362.885 574.876 347.412 576.724C335.06 578.219 322.521 578.476 316.766 565.45C314.122 559.482 312.98 552.86 311.459 546.546L305.883 523.331C302.521 509.33 298.677 495.296 295.956 481.122C295.569 479.816 295.325 478.471 295.231 477.112C295.109 476.399 294.968 475.681 294.846 474.968C294.766 474.542 294.81 474.101 294.974 473.699C295.138 473.298 295.414 472.952 295.77 472.703L295.764 472.684Z" fill="#939598"/>
<path d="M405.823 591.495C406.214 592.231 406.802 592.843 407.522 593.264C408.242 593.684 409.064 593.896 409.897 593.876C406.484 590.59 405.142 585.374 407.08 581.004C405.431 582.396 405.098 584.604 405.04 586.843C404.9 588.435 405.17 590.036 405.823 591.495V591.495Z" fill="#58595B"/>
<path d="M360.983 651.42C357.161 652.209 353.384 653.205 349.67 654.404C349.151 654.565 348.612 654.719 348.073 654.873C348.069 655.114 348.01 655.351 347.899 655.565C345.756 659.64 345.512 664.645 349.856 667.468C353.52 669.855 357.601 668.38 361.272 666.827C365.16 665.21 368.779 663.182 368.798 658.485C368.798 656.477 368.407 654.276 367.111 652.71C365.436 650.721 363.408 650.958 360.983 651.42Z" fill="#88E0FF"/>
<path d="M374.824 604.046C378.487 606.427 382.568 604.951 386.239 603.404C390.127 601.794 393.746 599.76 393.766 595.063C393.766 593.054 393.374 590.853 392.078 589.288C390.403 587.273 388.388 587.51 385.95 587.972C382.128 588.762 378.352 589.758 374.637 590.956C374.118 591.116 373.579 591.27 373.04 591.424C373.04 591.666 372.981 591.904 372.866 592.117C370.723 596.211 370.467 601.216 374.824 604.046Z" fill="#88E0FF"/>
<path d="M362.991 427.164C364.702 426.796 366.428 426.437 368.17 426.086C364.127 416.724 360.027 407.382 355.978 398.026C355.535 396.993 355.394 395.536 356.408 394.728C367.72 385.636 359 368.625 345.114 370.807C336.696 372.122 335.066 379.386 335.22 386.797C335.335 392.527 339.801 402.839 347.174 397.956C348.348 397.173 350.466 397.628 351.069 398.982C353.456 404.302 355.792 409.647 358.127 415.024C359.789 418.784 362.369 422.948 362.991 427.164Z" fill="#58595B"/>
<path d="M336.221 614.691C339.878 617.072 343.966 615.602 347.63 614.05C351.518 612.439 355.144 610.405 355.163 605.708C355.163 603.7 354.765 601.499 353.469 599.933C351.801 597.918 349.779 598.156 347.341 598.618C343.521 599.407 339.747 600.403 336.035 601.601C335.509 601.762 334.97 601.916 334.431 602.07C334.431 602.312 334.372 602.55 334.257 602.763C332.114 606.857 331.877 611.862 336.221 614.691Z" fill="#88E0FF"/>
<path d="M342.663 641.667C346.327 644.054 350.408 642.578 354.078 641.057C357.967 639.44 361.586 637.413 361.605 632.716C361.605 630.714 361.214 628.513 359.918 626.941C358.243 624.92 356.228 625.163 353.79 625.625C349.967 626.411 346.19 627.407 342.477 628.609C341.957 628.77 341.418 628.924 340.879 629.078C340.879 629.319 340.82 629.557 340.706 629.771C338.563 633.839 338.319 638.837 342.663 641.667Z" fill="#88E0FF"/>
<path d="M336.317 630.983C334.662 632.376 334.328 634.583 334.27 636.822C334.232 638.362 334.309 640.088 335.053 641.474C335.971 643.181 337.466 643.765 339.134 643.855C335.714 640.57 334.379 635.353 336.317 630.983Z" fill="#58595B"/>
<path d="M329.868 604.008C328.219 605.4 327.886 607.601 327.828 609.84C327.688 611.434 327.958 613.038 328.611 614.499C329.528 616.206 331.017 616.79 332.685 616.879C329.272 613.588 327.931 608.377 329.868 604.008Z" fill="#58595B"/>
<path d="M413.458 591.688C417.116 594.075 421.203 592.599 424.867 591.078C428.756 589.461 432.381 587.433 432.4 582.736C432.4 580.734 432.002 578.533 430.706 576.961C429.038 574.94 427.017 575.184 424.578 575.646C420.758 576.432 416.983 577.428 413.272 578.63C412.746 578.79 412.207 578.944 411.668 579.098C411.668 579.34 411.608 579.578 411.495 579.791C409.326 583.859 409.089 588.858 413.458 591.688Z" fill="#88E0FF"/>
<path d="M420.716 633.787C419.067 635.18 418.733 637.387 418.675 639.626C418.637 641.166 418.714 642.893 419.458 644.279C420.376 645.985 421.871 646.569 423.539 646.659C420.119 643.374 418.778 638.157 420.716 633.787Z" fill="#58595B"/>
<path d="M438.195 628.423C434.373 629.209 430.596 630.203 426.882 631.4L425.284 631.875C425.281 632.116 425.222 632.354 425.111 632.568C422.968 636.643 422.724 641.641 427.036 644.471C430.7 646.852 434.781 645.382 438.451 643.862C442.333 642.245 445.959 640.217 445.978 635.52C445.978 633.518 445.587 631.317 444.291 629.745C442.648 627.717 440.633 627.955 438.195 628.423Z" fill="#88E0FF"/>
<path d="M408.543 667.539C404.723 668.325 400.949 669.319 397.237 670.516L395.633 670.991C395.633 671.233 395.573 671.471 395.46 671.684C393.316 675.759 393.073 680.757 397.423 683.587C401.081 685.968 405.162 684.498 408.832 682.945C412.72 681.328 416.339 679.301 416.365 674.604C416.365 672.602 415.967 670.401 414.671 668.829C413.003 666.833 410.981 667.071 408.543 667.539Z" fill="#88E0FF"/>
<path d="M413.529 607.967C411.873 609.359 411.54 611.566 411.482 613.799C411.443 615.346 411.52 617.072 412.265 618.458C413.182 620.165 414.677 620.749 416.346 620.839C412.926 617.592 411.585 612.356 413.529 607.967Z" fill="#58595B"/>
<path d="M431.001 602.615C427.179 603.404 423.403 604.4 419.689 605.599C419.169 605.759 418.63 605.913 418.091 606.067C418.088 606.311 418.029 606.55 417.918 606.767C415.775 610.835 415.531 615.84 419.875 618.67C423.539 621.05 427.62 619.581 431.29 618.028C435.14 616.417 438.798 614.383 438.817 609.686C438.817 607.678 438.426 605.483 437.129 603.911C435.455 601.916 433.44 602.153 431.001 602.615Z" fill="#88E0FF"/>
<path d="M391.071 672.903C389.421 674.296 389.081 676.503 389.024 678.742C388.985 680.282 389.069 682.009 389.813 683.395C390.724 685.101 392.219 685.685 393.887 685.775C390.467 682.49 389.133 677.267 391.071 672.903Z" fill="#58595B"/>
<path d="M388.465 656.823C392.123 659.21 396.21 657.734 399.874 656.214C403.763 654.597 407.382 652.569 407.407 647.872C407.407 645.863 407.01 643.663 405.713 642.097C404.045 640.082 402.024 640.319 399.586 640.781C395.766 641.571 391.991 642.567 388.279 643.765C387.753 643.926 387.214 644.08 386.675 644.234C386.675 644.475 386.616 644.713 386.502 644.927C384.359 648.995 384.121 654 388.465 656.823Z" fill="#88E0FF"/>
<path d="M374.92 620.338C373.271 621.73 372.937 623.938 372.879 626.177C372.74 627.769 373.009 629.371 373.662 630.829C374.58 632.536 376.068 633.12 377.737 633.21C374.317 629.924 372.982 624.708 374.92 620.338Z" fill="#58595B"/>
<path d="M343.517 656.785C341.868 658.183 341.534 660.384 341.476 662.624C341.438 664.164 341.515 665.89 342.259 667.276C342.651 668.013 343.24 668.626 343.961 669.046C344.682 669.467 345.506 669.678 346.34 669.657C342.907 666.358 341.592 661.154 343.517 656.785Z" fill="#58595B"/>
<path d="M381.272 631.022C384.93 633.409 389.017 631.933 392.681 630.412C396.57 628.795 400.189 626.767 400.214 622.07C400.214 620.068 399.817 617.868 398.52 616.295C396.852 614.274 394.831 614.512 392.392 614.98C388.573 615.767 384.798 616.761 381.086 617.957L379.482 618.432C379.482 618.674 379.422 618.912 379.309 619.125C377.166 623.193 376.928 628.192 381.272 631.022Z" fill="#88E0FF"/>
<path d="M371.294 606.228C367.874 602.942 366.54 597.726 368.477 593.362C366.822 594.755 366.488 596.956 366.431 599.195C366.392 600.735 366.475 602.468 367.213 603.854C367.606 604.589 368.196 605.201 368.917 605.62C369.638 606.039 370.461 606.25 371.294 606.228Z" fill="#58595B"/>
<path d="M382.113 646.139C380.464 647.538 380.13 649.739 380.072 651.979C379.933 653.571 380.202 655.172 380.855 656.631C381.247 657.366 381.835 657.979 382.555 658.399C383.274 658.82 384.097 659.032 384.93 659.011C381.516 655.726 380.175 650.509 382.113 646.139Z" fill="#58595B"/>
<path d="M299.768 638.645C305.896 659.178 314.488 679.468 327.745 696.356C334.411 706.084 341.938 715.394 351.57 722.305C363.203 730.647 377.737 734.741 391.744 736.845C416.846 740.625 444.361 733.688 454.519 708.086C459.119 696.536 459.601 683.619 459.344 671.318C459.036 656.047 458.016 640.775 456.553 625.58C453.639 595.33 448.654 565.315 441.634 535.747C438.053 520.668 433.936 505.732 429.282 490.939C425.124 477.747 420.876 464.394 414.742 451.958C411.991 446.287 408.667 440.912 404.822 435.917C401.183 431.245 396.595 425.432 390.621 423.776C385.244 422.288 379.219 423.776 373.765 424.963C369.671 415.781 365.648 406.56 361.573 397.372C364.464 394.376 366.307 390.526 366.829 386.396C367.35 382.266 366.522 378.078 364.467 374.458C359.667 366.309 348.695 363.376 340.116 366.758C330.241 370.678 328.566 382.408 330.375 391.86C331.864 399.56 339.423 406.669 347.168 404.218C349.029 408.496 350.904 412.784 352.795 417.084C354.335 420.581 355.612 424.989 357.929 428.268C355.214 428.91 352.5 429.551 349.792 430.193C334.971 433.817 320.377 438.316 306.088 443.668C298.735 446.459 291.972 449.911 286.312 454.826C285.996 454.912 285.706 455.074 285.466 455.298C285.227 455.521 285.046 455.8 284.939 456.11C282.027 458.856 279.523 462.004 277.502 465.459C262.654 490.818 271.939 521.412 278.028 547.919C284.99 578.148 290.9 608.903 299.768 638.645ZM351.069 398.982C350.466 397.628 348.348 397.173 347.174 397.956C339.801 402.864 335.335 392.527 335.22 386.797C335.066 379.386 336.696 372.122 345.114 370.807C359 368.631 367.72 385.636 356.395 394.728C355.381 395.536 355.522 396.993 355.965 398.026C360.027 407.382 364.127 416.724 368.157 426.086C366.446 426.441 364.72 426.801 362.978 427.164C362.337 422.948 359.77 418.784 358.121 414.973C355.792 409.647 353.456 404.302 351.069 398.982ZM288.584 459.78C288.686 459.677 288.783 459.568 288.892 459.466C298.446 450.283 313.057 446.87 325.37 443.026C338.631 438.881 352.094 435.38 365.757 432.522C371.949 431.239 378.436 429.461 384.769 429.096C392.559 428.646 397.898 436.154 401.985 441.929C409.198 452.087 413.856 463.784 417.912 475.488C422.262 488.052 426.17 500.763 429.731 513.571C437.251 540.621 443.027 568.126 447.024 595.916C450.945 623.11 453.851 651.055 453.441 678.563C453.242 691.114 451.657 704.48 444.181 714.977C435.654 726.957 420.639 731.943 406.451 732.123C391.205 732.309 374.009 728.517 360.566 721.214C358.919 720.316 357.328 719.349 355.792 718.314C355.941 717.893 355.948 717.434 355.811 717.009C355.674 716.583 355.401 716.215 355.035 715.959C354.111 715.317 353.232 714.599 352.34 713.906C343.812 700.386 338.775 685.153 333.532 670.099C327.8 653.638 322.541 637.023 317.754 620.255C308.033 586.432 299.954 552.142 292.985 517.678C290.964 507.674 288.834 497.638 287.782 487.474C286.892 478.246 287.161 468.942 288.584 459.78V459.78ZM275.109 491.44C275.75 483.188 278.099 474.757 282.424 467.621C280.929 480.66 283.322 494.456 285.69 506.994C289.142 525.243 293.011 543.434 297.15 561.536C305.206 597.295 315.138 632.605 326.904 667.321C330.837 678.813 334.533 691.627 340.212 703.03C308.129 669.663 300.082 620.171 289.95 575.98C286.678 561.688 283.403 547.395 280.126 533.103C277.014 519.462 273.966 505.525 275.109 491.44Z" fill="#231F20"/>
<path d="M295.225 477.15C295.319 478.509 295.562 479.854 295.95 481.161C298.671 495.335 302.514 509.394 305.877 523.369L311.433 546.585C312.954 552.899 314.096 559.521 316.74 565.488C322.515 578.514 335.034 578.257 347.386 576.762C362.859 574.914 378.138 571.693 393.041 567.137C403.66 563.871 416.301 559.899 419.907 548.054C421.787 541.875 420.722 535.221 419.394 529.022C417.732 521.322 415.749 513.622 413.67 505.999C409.546 490.869 404.732 475.952 399.226 461.25C397.301 456.033 395.761 448.962 390.429 446.113C385.783 443.629 380.233 445.028 375.459 446.337C357.689 451.201 339.926 456.086 322.168 460.993L308.867 464.625C305.658 465.51 302.039 466.152 299.242 468.128C297.621 469.242 296.4 470.845 295.757 472.703C295.394 472.954 295.111 473.306 294.946 473.715C294.78 474.125 294.739 474.574 294.827 475.007C294.962 475.719 295.103 476.425 295.225 477.15ZM302.585 472.575C304.632 471.041 307.968 470.65 310.349 470.008L329.881 464.644C342.916 461.063 355.946 457.489 368.972 453.922C373.701 452.638 381.516 449.013 386.553 450.63C389.839 451.689 390.711 454.897 391.834 457.778C393.118 461.083 394.324 464.419 395.524 467.762C399.913 480.01 403.861 492.415 407.369 504.979C409.127 511.242 410.77 517.537 412.297 523.863C413.734 529.805 415.505 535.952 415.172 542.119C414.453 555.414 400.413 559.001 389.858 562.177C377.437 565.91 364.751 568.699 351.91 570.519C345.647 571.417 338.383 572.919 332.057 571.764C325.858 570.634 322.637 565.925 320.718 560.297C316.111 546.784 313.718 532.192 310.362 518.319C307.506 506.481 304.933 494.462 301.661 482.694C301.661 482.604 301.661 482.521 301.622 482.425C300.878 479.274 299.441 474.936 302.585 472.575Z" fill="#231F20"/>
<path d="M340.013 620.056C343.863 620.242 347.764 618.535 351.21 616.931C355.112 615.108 358.269 612.381 359.045 607.947C359.687 604.226 358.808 598.868 355.875 596.211C352.712 593.343 348.124 594.37 344.409 595.255C339.16 596.539 332.891 597.629 328.162 600.324C324.478 602.429 323.715 606.946 323.817 610.861C323.914 614.948 325.486 619.292 329.766 620.595C332.942 621.57 336.522 620.98 340.013 620.056ZM328.611 614.499C327.958 613.038 327.688 611.434 327.828 609.84C327.886 607.601 328.219 605.4 329.868 604.008C327.943 608.377 329.272 613.588 332.685 616.879C331.017 616.79 329.528 616.206 328.611 614.499V614.499ZM334.257 602.782C334.372 602.569 334.431 602.331 334.431 602.089C334.97 601.935 335.509 601.781 336.035 601.621C339.755 600.421 343.538 599.425 347.367 598.637C349.805 598.175 351.858 597.937 353.495 599.952C354.778 601.512 355.195 603.712 355.189 605.727C355.189 610.437 351.544 612.471 347.655 614.069C343.991 615.596 339.904 617.066 336.247 614.711C331.877 611.862 332.114 606.857 334.257 602.782V602.782Z" fill="#231F20"/>
<path d="M368.375 609.962C371.545 610.925 375.125 610.334 378.641 609.41C382.491 609.596 386.399 607.89 389.839 606.285C393.74 604.463 396.929 601.736 397.68 597.302C398.321 593.58 397.442 588.223 394.503 585.566C391.34 582.698 386.759 583.724 383.037 584.61C377.794 585.893 371.525 586.984 366.79 589.679C363.107 591.784 362.35 596.301 362.446 600.215C362.523 604.316 364.095 608.66 368.375 609.962ZM372.866 592.137C372.981 591.924 373.04 591.686 373.04 591.444C373.579 591.29 374.118 591.136 374.637 590.975C378.352 589.777 382.128 588.781 385.95 587.992C388.388 587.53 390.403 587.292 392.078 589.307C393.361 590.866 393.778 593.067 393.766 595.082C393.766 599.792 390.127 601.826 386.239 603.424C382.568 604.944 378.487 606.42 374.824 604.065C370.467 601.216 370.723 596.211 372.866 592.137V592.137ZM366.45 599.195C366.508 596.956 366.841 594.755 368.497 593.362C366.572 597.726 367.894 602.942 371.314 606.228C370.48 606.25 369.657 606.039 368.936 605.62C368.215 605.201 367.625 604.589 367.233 603.854C366.475 602.468 366.392 600.735 366.431 599.195H366.45Z" fill="#231F20"/>
<path d="M401.029 587.876C401.125 591.957 402.698 596.308 406.977 597.61C410.147 598.573 413.728 597.976 417.244 597.058C421.094 597.244 424.996 595.538 428.441 593.927C432.343 592.111 435.5 589.384 436.276 584.944C436.918 581.222 436.039 575.864 433.106 573.208C429.943 570.339 425.355 571.366 421.64 572.251C416.391 573.503 410.09 574.626 405.393 577.321C401.69 579.438 400.927 583.956 401.029 587.876ZM411.469 579.785C411.583 579.571 411.642 579.333 411.642 579.092C412.181 578.938 412.72 578.784 413.247 578.623C416.958 577.422 420.732 576.426 424.553 575.639C426.991 575.177 429.012 574.934 430.681 576.955C431.964 578.514 432.381 580.715 432.375 582.73C432.375 587.446 428.73 589.474 424.841 591.072C421.178 592.592 417.09 594.068 413.433 591.681C409.089 588.858 409.326 583.859 411.469 579.785ZM407.08 581.004C405.155 585.374 406.483 590.59 409.897 593.876C409.064 593.896 408.242 593.684 407.522 593.264C406.802 592.843 406.214 592.231 405.822 591.495C405.17 590.036 404.9 588.435 405.04 586.843C405.117 584.604 405.431 582.396 407.08 581.017V581.004Z" fill="#231F20"/>
<path d="M346.455 647.038C350.305 647.224 354.213 645.517 357.653 643.906C361.554 642.084 364.743 639.357 365.494 634.923C366.135 631.201 365.256 625.843 362.317 623.187C359.154 620.319 354.573 621.345 350.851 622.231C345.608 623.482 339.339 624.605 334.604 627.3C330.921 629.398 330.164 633.916 330.26 637.836C330.362 641.917 331.935 646.268 336.214 647.564C339.384 648.552 342.965 647.955 346.455 647.038ZM335.053 641.474C334.309 640.088 334.232 638.362 334.27 636.822C334.328 634.583 334.662 632.376 336.317 630.983C334.392 635.353 335.714 640.57 339.134 643.855C337.466 643.765 335.971 643.181 335.053 641.474V641.474ZM340.706 629.783C340.82 629.57 340.879 629.332 340.879 629.09C341.418 628.936 341.957 628.782 342.477 628.622C346.188 627.413 349.962 626.411 353.783 625.619C356.222 625.157 358.236 624.913 359.911 626.934C361.195 628.494 361.612 630.694 361.599 632.709C361.599 637.426 357.961 639.453 354.072 641.051C350.402 642.572 346.321 644.048 342.657 641.661C338.319 638.837 338.563 633.839 340.706 629.783Z" fill="#231F20"/>
<path d="M385.065 636.392C388.915 636.579 392.816 634.872 396.262 633.261C400.163 631.439 403.32 628.712 404.096 624.278C404.738 620.556 403.859 615.198 400.927 612.535C397.763 609.673 393.175 610.694 389.46 611.586C384.211 612.837 377.91 613.96 373.213 616.655C369.53 618.753 368.766 623.27 368.869 627.191C368.965 631.272 370.537 635.616 374.817 636.919C377.993 637.907 381.568 637.31 385.065 636.392ZM373.675 630.829C373.022 629.371 372.753 627.769 372.892 626.177C372.95 623.938 373.284 621.73 374.933 620.338C373.008 624.708 374.336 629.924 377.75 633.21C376.068 633.12 374.58 632.536 373.675 630.829ZM379.322 619.119C379.435 618.906 379.495 618.668 379.495 618.426L381.099 617.951C384.811 616.755 388.585 615.761 392.405 614.974C394.844 614.505 396.865 614.268 398.533 616.289C399.817 617.848 400.234 620.049 400.227 622.064C400.227 626.78 396.583 628.808 392.694 630.406C389.03 631.927 384.943 633.402 381.285 631.015C376.928 628.192 377.166 623.193 379.309 619.119H379.322Z" fill="#231F20"/>
<path d="M428.063 599.253C422.82 600.504 416.551 601.621 411.816 604.322C408.132 606.42 407.375 610.938 407.472 614.858C407.574 618.939 409.146 623.283 413.426 624.586C416.596 625.555 420.177 624.958 423.693 624.04C427.543 624.22 431.451 622.513 434.89 620.909C438.791 619.087 441.98 616.36 442.731 611.926C443.373 608.204 442.487 602.853 439.555 600.19C436.366 597.334 431.784 598.342 428.063 599.253ZM412.265 618.503C411.52 617.117 411.443 615.391 411.482 613.844C411.54 611.611 411.873 609.404 413.529 608.012C411.604 612.381 412.926 617.598 416.346 620.883C414.677 620.8 413.182 620.158 412.265 618.477V618.503ZM437.129 603.956C438.413 605.522 438.83 607.716 438.817 609.731C438.817 614.441 435.172 616.475 431.29 618.073C427.62 619.6 423.539 621.069 419.875 618.715C415.531 615.885 415.775 610.88 417.918 606.812C418.029 606.595 418.088 606.356 418.091 606.112C418.63 605.958 419.169 605.804 419.689 605.644C423.403 604.445 427.179 603.448 431.001 602.66C433.44 602.153 435.455 601.916 437.129 603.931V603.956Z" fill="#231F20"/>
<path d="M358.044 648.052C352.795 649.335 346.532 650.426 341.797 653.121C338.114 655.219 337.357 659.736 337.453 663.657C337.556 667.744 339.128 672.088 343.408 673.391C346.577 674.354 350.158 673.763 353.674 672.839C357.524 673.025 361.432 671.318 364.871 669.714C368.773 667.892 371.962 665.165 372.712 660.731C373.354 657.009 372.469 651.651 369.536 648.995C366.347 646.139 361.766 647.166 358.044 648.052ZM342.246 667.302C341.502 665.916 341.425 664.19 341.463 662.65C341.521 660.41 341.855 658.209 343.504 656.81C341.579 661.18 342.907 666.397 346.327 669.682C345.488 669.704 344.66 669.49 343.936 669.064C343.213 668.639 342.623 668.019 342.233 667.276L342.246 667.302ZM361.272 666.885C357.601 668.405 353.52 669.881 349.856 667.526C345.512 664.703 345.756 659.698 347.899 655.623C348.01 655.409 348.069 655.172 348.072 654.93C348.611 654.776 349.15 654.622 349.67 654.462C353.384 653.263 357.161 652.267 360.983 651.478C363.421 651.016 365.436 650.779 367.111 652.761C368.394 654.321 368.811 656.522 368.798 658.536C368.779 663.214 365.16 665.242 361.272 666.859V666.885Z" fill="#231F20"/>
<path d="M392.283 662.194C396.133 662.38 400.035 660.673 403.48 659.069C407.382 657.247 410.539 654.52 411.315 650.086C411.957 646.364 411.078 641.006 408.145 638.35C404.982 635.481 400.394 636.508 396.679 637.393C391.43 638.645 385.161 639.768 380.432 642.463C376.749 644.561 375.985 649.078 376.088 652.999C376.184 657.086 377.756 661.43 382.036 662.733C385.18 663.708 388.761 663.15 392.283 662.194ZM380.881 656.631C380.228 655.172 379.959 653.571 380.098 651.979C380.156 649.739 380.49 647.538 382.139 646.139C380.214 650.509 381.542 655.726 384.956 659.011C384.118 659.036 383.29 658.827 382.566 658.406C381.841 657.985 381.249 657.37 380.855 656.631H380.881ZM386.528 644.92C386.641 644.707 386.701 644.469 386.701 644.227C387.24 644.073 387.779 643.919 388.305 643.759C392.017 642.56 395.791 641.564 399.611 640.775C402.05 640.313 404.071 640.076 405.739 642.09C407.022 643.65 407.44 645.851 407.433 647.865C407.433 652.575 403.788 654.603 399.9 656.207C396.236 657.728 392.149 659.204 388.491 656.817C384.121 654 384.359 648.995 386.508 644.92H386.528Z" fill="#231F20"/>
<path d="M405.611 664.17C400.362 665.454 394.093 666.544 389.364 669.239C385.674 671.338 384.917 675.855 385.013 679.776C385.116 683.857 386.688 688.201 390.968 689.503C394.138 690.472 397.718 689.875 401.235 688.958C405.085 689.137 408.992 687.437 412.438 685.826C416.339 684.004 419.496 681.277 420.273 676.843C420.915 673.121 420.035 667.764 417.103 665.101C413.908 662.252 409.326 663.278 405.611 664.17ZM389.813 683.42C389.069 682.034 388.985 680.308 389.024 678.768C389.081 676.529 389.422 674.321 391.071 672.929C389.146 677.299 390.467 682.515 393.888 685.801C392.219 685.685 390.724 685.101 389.813 683.395V683.42ZM408.832 683.003C405.162 684.524 401.081 685.993 397.423 683.645C393.073 680.815 393.316 675.817 395.46 671.742C395.573 671.529 395.633 671.291 395.633 671.049L397.237 670.574C400.949 669.377 404.723 668.383 408.543 667.597C410.982 667.128 413.035 666.891 414.671 668.88C415.954 670.446 416.372 672.647 416.365 674.655C416.339 679.333 412.72 681.36 408.832 682.977V683.003Z" fill="#231F20"/>
<path d="M435.275 625.054C430.026 626.306 423.764 627.428 419.028 630.123C415.345 632.222 414.588 636.739 414.684 640.66C414.787 644.741 416.359 649.085 420.632 650.387C423.841 651.356 427.389 650.759 430.899 649.842C434.749 650.022 438.657 648.321 442.096 646.711C445.997 644.888 449.186 642.161 449.937 637.727C450.579 634.006 449.693 628.648 446.729 625.991C443.559 623.142 438.977 624.162 435.275 625.054ZM419.477 644.304C418.733 642.918 418.656 641.192 418.694 639.652C418.752 637.413 419.086 635.205 420.735 633.813C418.81 638.183 420.138 643.399 423.558 646.685C421.871 646.569 420.376 645.985 419.458 644.279L419.477 644.304ZM444.342 629.758C445.625 631.323 446.042 633.524 446.029 635.533C446.029 640.249 442.385 642.277 438.503 643.874C434.832 645.395 430.751 646.865 427.087 644.484C422.743 641.654 422.987 636.656 425.162 632.581C425.273 632.367 425.332 632.129 425.336 631.888L426.933 631.413C430.647 630.216 434.424 629.222 438.246 628.436C440.633 627.955 442.648 627.717 444.323 629.732L444.342 629.758Z" fill="#231F20"/>
</svg>
