<svg width="829" height="864" viewBox="0 0 829 864" fill="none" xmlns="http://www.w3.org/2000/svg">
<path d="M521.939 598.844C521.894 597.447 522.136 596.056 522.648 594.756C523.16 593.456 523.932 592.274 524.917 591.282C531.907 594.767 539.953 596.032 547.492 597.788C554.085 599.313 562.109 602.436 569.179 601.75C573.379 604.909 578.518 609.361 574.962 614.038C572.75 616.93 565.752 614.891 562.716 614.472C559.037 613.952 555.372 613.287 551.728 612.549C544.184 611.006 536.759 608.931 529.507 606.34C525.351 604.822 521.881 603.904 521.939 598.844Z" fill="#F2B879"/>
<path d="M684.528 652.944C679.188 649.344 673.692 645.997 668.039 642.903C656.908 636.764 645.226 631.681 633.146 627.723C620.192 623.53 606.602 620.718 592.925 621.896C589.726 622.173 586.545 622.632 583.398 623.27C581.47 623.568 579.563 623.986 577.687 624.52C576.579 622.698 574.994 621.214 573.104 620.226C574.562 620.007 575.938 619.41 577.095 618.496C578.253 617.582 579.152 616.382 579.704 615.014C582.19 608.921 578.909 603.716 574.138 600.383C579.198 597.998 582.386 592.584 580.022 586.974C577.289 580.468 569.345 577.049 563.215 574.685C555.755 571.794 547.868 570.232 540.336 567.55C536.223 566.105 531.495 564.319 528.459 561.044C525.423 557.77 524.953 553.281 528.734 550.613C534.929 546.218 545.36 546.746 552.531 546.999C560.627 547.288 568.239 549.457 576.118 550.707C575.67 552.984 575.272 555.233 574.925 557.423C574.297 561.348 580.195 563.105 580.99 559.093C584.778 539.958 589.535 514.079 610.144 506.981C605.568 519.566 600.501 532.44 598.578 545.611C597.009 556.281 598.123 567.803 604.549 576.789C610.469 585.08 619.729 590.415 629.43 593.111C641.502 596.465 654.268 595.959 666.673 595.808C678.839 595.663 691.121 595.981 703.243 594.846C702.4 601.593 701.547 608.328 700.684 615.051C698.757 630.115 696.773 645.173 694.735 660.223C693.969 659.652 693.181 659.11 692.407 658.531C689.834 656.594 687.195 654.744 684.528 652.944Z" fill="#F2B879"/>
<path d="M528.264 612.578C530.541 613.301 532.847 613.908 534.936 614.53C540.888 616.312 546.946 617.722 553.073 618.752C557.229 619.438 561.574 620.14 565.861 620.414C565.96 620.586 566.095 620.735 566.258 620.848C568.514 622.366 572.28 623.841 572.822 626.877C573.624 631.424 568.036 631.048 565.102 630.491C559.044 629.378 553.044 627.838 547.03 626.523C544.001 625.857 540.972 625.221 537.943 624.578C535.297 624.014 532.16 623.674 529.876 622.099C526.276 619.626 526.955 615.961 528.264 612.578Z" fill="#F2B879"/>
<path d="M532.782 630.578C532.979 630.333 533.137 630.06 533.252 629.768C533.562 629.848 533.873 629.92 534.191 629.985C539.692 631.178 545.23 632.255 550.752 633.354C555.162 634.228 561.812 636.534 567.595 636.505C568.528 637.669 569.439 638.819 569.46 640.387C569.511 643.619 566.229 644.175 563.468 644.002C559.13 643.749 555.032 641.927 551.041 640.315C547.107 638.616 542.98 637.402 538.753 636.701C536.685 636.404 533.143 636.31 531.661 634.532C529.999 632.53 531.546 632.002 532.782 630.578Z" fill="#F2B879"/>
<path d="M712.518 519.985C709.626 543.457 706.735 566.972 703.793 590.415C689.465 589.215 674.878 589.967 660.543 589.988C646.671 589.988 631.946 589.721 619.686 582.377C607.245 574.916 602.727 561.919 604.448 547.895C606.306 532.766 612.978 517.918 617.705 503.518C618.472 501.183 616.122 499.463 614.033 499.846C591.226 504.002 581.598 526.043 576.95 546.775C570.183 543.45 561.979 542.351 554.671 541.715C546.849 541.05 537.856 540.789 530.317 543.327C525.076 545.091 520.363 548.792 519.994 554.698C519.994 555.016 519.994 555.327 519.994 555.637C509.325 563.979 510.46 579.362 519.698 587.719C514.045 592.012 514.638 604.468 519.698 608.443C520.657 609.174 521.68 609.815 522.756 610.359C520.052 614.32 520.623 620.638 523.558 624.455C524.436 625.582 525.511 626.54 526.731 627.282C524.274 629.826 523.97 635.349 526.464 638.24C528.958 641.132 532.319 642.028 535.861 642.578C540.515 643.279 545.078 644.491 549.466 646.192C556.03 648.664 565.839 652.402 571.875 646.814C575.215 643.727 575.056 638.949 572.598 635.732C574.412 635.084 575.971 633.87 577.044 632.269C577.648 631.407 578.091 630.442 578.352 629.421C582.653 628.019 593.236 627.065 594.393 627.029C600.132 626.802 605.879 627.241 611.518 628.337C622.064 630.433 632.423 634.12 642.392 638.11C652.159 642.033 661.607 646.709 670.649 652.098C675.198 654.801 679.637 657.674 683.964 660.715C686.856 662.76 690.174 666.216 693.709 667.604C692.827 674.114 691.937 680.62 691.041 687.121C690.152 693.562 688.721 700.22 688.497 706.776C671.357 704.485 653.95 703.509 636.731 702.114C604.159 699.468 571.535 697.35 538.905 695.499C522.332 694.536 505.749 693.695 489.156 692.977C480.993 692.615 472.831 692.275 464.673 691.957C456.887 691.661 448.646 690.598 440.868 691.386C439.748 689.68 440.449 686.015 440.659 684.403C441.266 679.705 441.902 675.006 442.495 670.314C443.637 661.158 444.765 652.023 445.878 642.91C449.805 610.54 453.468 578.138 456.865 545.705C460.133 514.014 463.509 482.309 465.54 450.51C483.865 452.823 502.255 454.608 520.667 456.083C554.02 458.75 587.431 460.42 620.821 462.509C653.415 464.526 685.93 467.374 718.409 470.555C718.409 470.83 718.409 471.111 718.409 471.393C716.674 478.731 716.363 486.704 715.518 494.056C714.556 502.679 713.595 511.34 712.518 519.985ZM625.621 654.079C628.744 659.551 635.119 663.96 639.854 668.023C644.832 672.406 650.081 676.472 655.57 680.196C657.051 681.172 658.613 678.996 657.42 677.796C652.7 673.032 647.669 668.616 642.767 664.061C638.343 659.956 633.804 654.173 628.44 651.281C628.048 651.069 627.599 650.989 627.158 651.053C626.717 651.116 626.308 651.32 625.992 651.633C625.676 651.947 625.469 652.354 625.402 652.795C625.335 653.235 625.412 653.685 625.621 654.079V654.079ZM556.601 684.483C556.612 684.864 556.759 685.229 557.014 685.513C557.27 685.797 557.617 685.981 557.996 686.032C558.374 686.083 558.758 685.998 559.08 685.793C559.402 685.587 559.64 685.274 559.752 684.909C561.039 681.295 561.466 677.348 561.993 673.575C562.564 669.49 563.215 665.24 562.955 661.112C562.98 660.922 562.968 660.729 562.919 660.544C562.87 660.359 562.785 660.185 562.669 660.033C562.553 659.88 562.408 659.752 562.243 659.656C562.077 659.56 561.894 659.497 561.704 659.471C561.514 659.446 561.321 659.458 561.136 659.507C560.951 659.556 560.777 659.641 560.625 659.757C560.472 659.873 560.344 660.018 560.248 660.183C560.152 660.349 560.089 660.532 560.063 660.722C558.668 664.618 558.119 668.89 557.548 673.011C557.005 676.741 556.355 680.688 556.601 684.483ZM495.359 530.886C494.448 526.939 490.819 523.202 488.13 520.281C484.993 516.877 481.537 514.433 477.865 511.701C476.21 510.472 474.251 513.147 475.696 514.513C478.763 517.515 481.643 520.702 484.32 524.055C486.865 527.077 488.983 530.98 492.156 533.322C493.79 534.551 495.749 532.556 495.359 530.886V530.886ZM499.696 612.99C494.036 611.913 487.899 612.448 482.144 612.267C475.986 612.072 469.762 611.855 463.617 611.335C461.615 611.161 461.21 614.422 463.147 614.819C469.151 616.123 475.242 616.993 481.371 617.422C487.255 617.769 493.978 618.253 499.696 616.561C501.344 616.077 501.575 613.345 499.696 612.969V612.99ZM510.069 657.917C505.616 659.594 501.597 663.259 497.939 666.281C493.662 669.755 489.783 673.692 486.373 678.02C485.585 679.032 486.597 680.774 487.87 679.95C492.055 677.225 495.951 674.341 499.862 671.24C503.773 668.139 508.819 665.124 511.97 661.199C513.062 659.854 512.115 657.151 510.069 657.917V657.917ZM535.522 510.754C534.799 506.128 531.907 501.422 529.739 497.316C527.57 493.21 525.531 488.106 521.845 485.229C520.912 484.506 518.903 484.803 519.105 486.364C519.705 491.012 522.64 495.263 524.715 499.376C526.948 503.814 528.777 508.961 532.008 512.764C533.541 514.556 535.804 512.576 535.522 510.754ZM663.673 510.797C659.336 513.241 655.085 515.72 650.849 518.308C646.989 520.672 642.673 522.797 639.457 526.028C638.3 527.192 639.457 529.469 641.127 528.92C645.464 527.424 649.208 524.51 653.018 522.045C657.196 519.349 661.288 516.573 665.372 513.732C667.128 512.489 665.581 509.72 663.673 510.797V510.797ZM674.516 549.782C666.714 550.522 658.954 551.66 651.268 553.194L639.204 555.413C635.589 556.071 631.585 556.498 628.361 558.37C626.799 559.273 626.965 562.042 628.888 562.411C635.907 563.755 644.502 560.784 651.377 559.324C659.398 557.738 667.266 555.457 674.892 552.507C676.222 551.972 676.215 549.652 674.523 549.782H674.516Z" fill="#FFF200"/>
<path d="M521.808 562.028C523.768 565.17 526.531 567.732 529.811 569.452C542.62 576.507 558.523 576.521 570.617 585.008C574.694 587.863 577.05 593.097 571.043 595.338C567.357 596.718 562.875 595.229 559.239 594.383C551.359 592.547 543.393 590.906 535.579 588.788C528.914 586.981 521.447 584.017 519.061 576.897C517.29 571.627 518.577 566.249 521.808 562.028Z" fill="#F2B879"/>
<path d="M751.878 452.187C750.432 459.517 749.093 466.866 747.859 474.234C732.809 563.148 727.944 653.269 718.293 742.819C715.893 765.134 713.718 787.637 710.031 809.779C709.698 811.781 709.373 814.181 708.159 815.873C706.525 818.142 704.002 817.998 701.472 817.976C696.173 817.933 690.882 817.651 685.569 817.42C673.926 816.914 662.283 816.376 650.639 815.808C604.332 813.538 558.051 810.844 511.797 807.726C488.795 806.184 465.805 804.536 442.827 802.781C436.798 802.319 430.733 801.986 424.719 801.336C420.938 800.938 416.681 800.324 413.478 798.097C409.018 794.996 408.924 789.668 409.192 784.731C409.488 779.338 409.951 773.953 410.341 768.568C413.7 721.947 417.047 675.321 420.382 628.691C423.688 582.591 427.003 536.491 430.329 490.391C431.167 478.738 432.003 467.08 432.837 455.418C433.654 443.982 433.741 432.214 435.324 420.864C436.083 415.385 440.348 415.356 445.054 415.761C450.396 416.224 455.723 416.889 461.065 417.358C472.046 418.32 483.048 418.999 494.057 419.484C580.304 423.308 668.314 415.146 752.789 436.833C752.225 441.257 751.748 445.688 751.228 450.119C751.181 450.49 751.214 450.867 751.327 451.224C751.439 451.581 751.627 451.909 751.878 452.187ZM706.879 731.405C709.214 722.614 709.684 713.116 710.927 704.116C712.12 695.442 713.544 686.81 714.404 678.092C714.455 677.572 713.624 677.478 713.515 677.97C711.477 686.933 710.168 696.042 708.78 705.135C707.479 713.658 705.513 722.571 705.549 731.209C705.549 731.372 705.608 731.53 705.715 731.653C705.821 731.776 705.969 731.857 706.13 731.881C706.291 731.904 706.456 731.869 706.593 731.782C706.731 731.695 706.832 731.561 706.879 731.405V731.405ZM702.014 760.182C704.043 754.075 705.294 747.736 705.737 741.315C705.737 740.722 704.935 740.694 704.754 741.185C702.623 747.256 701.261 753.57 700.699 759.98C700.626 760.797 701.79 760.862 702.014 760.182ZM433.249 535.274C433.437 535.997 434.348 535.737 434.427 535.115C434.796 532.303 434.659 529.549 435.461 526.773C435.663 526.05 434.608 525.79 434.362 526.469C433.394 529.173 432.512 532.404 433.249 535.274ZM440.427 465.22C440.326 464.916 439.798 464.851 439.704 465.22C438.981 469.68 439.032 474.176 438.179 478.658C437.391 482.771 436.618 486.892 436.01 491.041C434.868 498.899 433.119 507.711 434.29 515.619C434.391 516.298 435.454 516.233 435.598 515.619C436.61 511.405 436.625 506.944 437.044 502.607C437.456 497.937 438.013 493.282 438.671 488.641C439.704 481.405 442.661 472.413 440.427 465.22V465.22ZM723.072 468.068C723.042 467.649 722.875 467.252 722.596 466.937C722.318 466.622 721.944 466.407 721.532 466.326C721.451 466.298 721.369 466.274 721.286 466.254C702.752 463.08 684.094 460.977 665.372 459.3C598.477 453.293 531.22 451.601 464.535 443.093C461.716 442.731 460.639 445.261 461.26 447.466C461.264 447.485 461.264 447.505 461.26 447.524C458.832 467.396 456.865 487.282 454.791 507.212C451.191 541.751 447.352 576.263 443.275 610.749C441.208 628.253 439.071 645.746 436.863 663.23C435.851 671.269 433.972 679.697 433.885 687.808C433.849 692.868 435.859 697.993 441.454 698.347C441.822 698.37 442.19 698.318 442.538 698.196C450.584 699.222 459.041 698.81 467.116 699.107C476.33 699.449 485.544 699.815 494.759 700.205C527.404 701.615 560.034 703.285 592.643 705.396C609.211 706.465 625.773 707.612 642.326 708.836C658.157 709.986 674.039 711.764 689.906 712.342C690.283 712.585 690.711 712.738 691.156 712.787C691.602 712.836 692.053 712.781 692.473 712.626C692.894 712.471 693.273 712.221 693.58 711.894C693.887 711.568 694.114 711.174 694.243 710.745C697.019 702.121 697.402 692.413 698.581 683.463C699.713 675.049 700.834 666.635 701.942 658.221C706.101 626.583 710.05 594.916 713.79 563.22C715.655 547.245 717.325 531.262 719.067 515.272C719.92 507.407 720.802 499.549 721.59 491.677C722.327 483.971 723.845 475.796 723.086 468.068H723.072Z" fill="white"/>
<path d="M759.222 442.515C759.218 442.672 759.203 442.829 759.179 442.984C758.998 443.967 758.817 444.951 758.644 445.941C758.355 447.618 758.066 449.302 757.784 451.001C757.751 451.219 757.693 451.433 757.61 451.637C741.534 541.83 736.011 633.209 727.098 724.328C724.813 747.705 722.247 771.054 719.146 794.338C718.423 799.753 717.7 805.181 716.876 810.588C716.262 814.514 715.315 818.692 712.365 821.583C709.416 824.475 705.382 824.728 701.522 824.533C695.436 824.229 689.349 823.911 683.255 823.651C635.097 821.588 586.956 819.08 538.832 816.126C514.765 814.622 490.712 813 466.674 811.261C454.521 810.388 442.371 809.482 430.227 808.543C422.109 807.914 412.423 807.552 406.632 800.945C400.163 793.55 402.649 782.216 403.278 773.346C404.141 761.158 405.004 748.973 405.866 736.79C407.587 712.415 409.312 688.039 411.042 663.664C414.42 615.443 417.81 567.22 421.213 518.995C422.89 495.154 424.577 471.311 426.273 447.466L427.509 429.98C427.849 425.18 427.372 418.913 429.678 414.51C434.253 405.894 445.841 408.684 453.59 409.45C544.087 418.349 635.864 406.949 725.731 423.351C736.526 425.317 747.225 427.708 757.827 430.522C759.916 431.079 760.668 433.088 760.393 435.04C760.039 437.541 759.634 440.028 759.222 442.515ZM494.071 419.484C483.062 418.999 472.06 418.32 461.079 417.358C455.737 416.889 450.41 416.224 445.068 415.761C440.362 415.356 436.097 415.385 435.338 420.864C433.755 432.214 433.668 443.996 432.851 455.418C432.013 467.08 431.176 478.738 430.343 490.391C427.017 536.486 423.702 582.586 420.396 628.691C417.051 675.321 413.707 721.952 410.362 768.582C409.972 773.968 409.509 779.353 409.213 784.746C408.946 789.683 409.04 795.01 413.5 798.112C416.702 800.338 420.96 800.952 424.74 801.35C430.755 801.986 436.82 802.319 442.848 802.796C465.826 804.55 488.816 806.198 511.818 807.74C558.082 810.844 604.363 813.538 650.661 815.822C662.299 816.386 673.942 816.923 685.59 817.434C690.882 817.665 696.173 817.947 701.493 817.991C704.023 817.991 706.554 818.157 708.18 815.887C709.394 814.196 709.72 811.796 710.052 809.793C713.739 787.652 715.915 765.148 718.315 742.833C727.943 653.269 732.808 563.134 747.844 474.234C749.097 466.871 750.437 459.521 751.863 452.187C751.612 451.906 751.425 451.573 751.315 451.212C751.205 450.851 751.175 450.471 751.227 450.097C751.748 445.666 752.225 441.235 752.789 436.811C668.328 415.125 580.318 423.308 494.071 419.484V419.484Z" fill="#231F20"/>
<path d="M719.03 515.265C717.288 531.255 715.619 547.238 713.753 563.213C710.052 594.914 706.103 626.58 701.906 658.213C700.797 666.628 699.677 675.042 698.544 683.456C697.337 692.405 696.954 702.114 694.207 710.738C694.078 711.167 693.851 711.56 693.544 711.887C693.237 712.213 692.858 712.464 692.437 712.619C692.016 712.774 691.565 712.829 691.12 712.78C690.674 712.73 690.246 712.578 689.87 712.335C674.003 711.757 658.121 709.979 642.29 708.829C625.731 707.624 609.17 706.477 592.607 705.388C559.998 703.277 527.367 701.608 494.722 700.198C485.513 699.808 476.298 699.441 467.079 699.099C459.034 698.803 450.576 699.215 442.502 698.188C442.154 698.311 441.785 698.363 441.417 698.34C435.822 697.986 433.813 692.825 433.849 687.801C433.914 679.704 435.815 671.276 436.827 663.223C439.039 645.734 441.176 628.241 443.239 610.742C447.301 576.261 451.14 541.748 454.754 507.205C456.829 487.297 458.795 467.389 461.224 447.517C461.227 447.498 461.227 447.478 461.224 447.459C460.602 445.29 461.679 442.724 464.499 443.086C531.184 451.587 598.44 453.278 665.35 459.285C684.072 460.962 702.73 463.066 721.264 466.239C721.347 466.259 721.429 466.283 721.51 466.312C721.922 466.393 722.296 466.608 722.574 466.922C722.853 467.237 723.02 467.635 723.05 468.054C723.773 475.781 722.327 483.957 721.517 491.656C720.765 499.542 719.883 507.429 719.03 515.265ZM694.727 660.223C696.751 645.173 698.735 630.115 700.677 615.05C701.534 608.304 702.387 601.569 703.236 594.846C691.113 595.981 678.831 595.663 666.665 595.808C654.261 595.959 641.495 596.465 629.423 593.111C619.729 590.415 610.462 585.08 604.541 576.789C598.115 567.803 597.002 556.281 598.57 545.611C600.501 532.44 605.568 519.588 610.136 506.981C589.535 514.079 584.778 539.958 580.99 559.093C580.195 563.105 574.296 561.348 574.925 557.423C575.272 555.254 575.648 552.984 576.118 550.707C568.239 549.457 560.627 547.288 552.53 546.999C545.338 546.746 534.928 546.218 528.733 550.613C524.953 553.281 525.517 557.842 528.459 561.044C531.401 564.247 536.222 566.105 540.336 567.55C547.868 570.232 555.755 571.794 563.215 574.685C569.345 577.063 577.289 580.468 580.021 586.974C582.385 592.584 579.168 597.998 574.137 600.383C578.908 603.716 582.19 608.92 579.703 615.014C579.152 616.382 578.253 617.582 577.095 618.496C575.938 619.41 574.562 620.007 573.104 620.226C574.994 621.214 576.578 622.698 577.687 624.52C579.563 623.986 581.47 623.568 583.397 623.27C586.545 622.632 589.726 622.173 592.925 621.896C606.602 620.718 620.192 623.53 633.146 627.723C645.225 631.681 656.908 636.764 668.039 642.903C673.687 645.987 679.183 649.334 684.528 652.944C687.195 654.744 689.834 656.594 692.4 658.531C693.173 659.11 693.961 659.652 694.727 660.223ZM537.943 624.592C540.972 625.236 544.001 625.872 547.029 626.537C553.044 627.853 559.044 629.428 565.101 630.506C568.036 631.041 573.624 631.416 572.822 626.891C572.279 623.855 568.484 622.38 566.258 620.862C566.095 620.749 565.959 620.601 565.86 620.429C561.574 620.154 557.229 619.453 553.073 618.766C546.946 617.738 540.888 616.331 534.936 614.552C532.847 613.93 530.541 613.33 528.264 612.6C526.955 615.983 526.276 619.648 529.876 622.135C532.16 623.689 535.319 624.029 537.943 624.592ZM531.632 634.525C533.114 636.332 536.692 636.426 538.724 636.693C542.951 637.395 547.078 638.609 551.012 640.308C555.003 641.92 559.087 643.741 563.439 643.994C566.2 644.153 569.482 643.597 569.431 640.38C569.431 638.811 568.499 637.662 567.566 636.498C561.783 636.498 555.133 634.221 550.723 633.346C545.201 632.248 539.663 631.178 534.162 629.978C533.844 629.913 533.533 629.841 533.222 629.761C533.108 630.053 532.949 630.326 532.753 630.571C531.545 632.002 529.998 632.53 531.632 634.525ZM529.464 606.289C536.715 608.88 544.141 610.955 551.685 612.499C555.299 613.222 558.993 613.901 562.672 614.422C565.709 614.841 572.706 616.887 574.918 613.988C578.489 609.311 573.349 604.858 569.135 601.699C562.065 602.386 554.041 599.263 547.449 597.738C539.909 595.995 531.863 594.73 524.873 591.232C523.884 592.227 523.109 593.415 522.597 594.722C522.084 596.029 521.846 597.426 521.895 598.829C521.881 603.904 525.35 604.822 529.492 606.289H529.464ZM535.55 588.788C543.364 590.906 551.331 592.547 559.21 594.383C562.824 595.229 567.328 596.718 571.014 595.338C577.022 593.097 574.665 587.863 570.588 585.008C558.494 576.521 542.591 576.507 529.782 569.451C526.502 567.732 523.739 565.17 521.779 562.028C518.548 566.249 517.261 571.627 519.032 576.897C521.447 584.054 528.914 586.981 535.579 588.788H535.55ZM718.431 470.562C685.901 467.381 653.415 464.533 620.842 462.516C587.453 460.449 554.041 458.758 520.688 456.09C502.276 454.644 483.886 452.83 465.561 450.517C463.559 482.323 460.183 514.021 456.887 545.712C453.542 578.15 449.88 610.552 445.899 642.917C444.786 652.074 443.658 661.209 442.516 670.322C441.923 675.02 441.287 679.719 440.68 684.41C440.47 686.022 439.769 689.687 440.89 691.393C448.668 690.605 456.908 691.668 464.694 691.964C472.858 692.283 481.019 692.622 489.178 692.984C505.77 693.711 522.353 694.552 538.926 695.507C571.557 697.357 604.18 699.475 636.753 702.121C653.972 703.516 671.379 704.492 688.518 706.783C688.742 700.227 690.173 693.569 691.062 687.128C691.952 680.688 692.848 674.117 693.73 667.611C690.195 666.223 686.899 662.768 683.985 660.722C679.648 657.676 675.21 654.804 670.67 652.105C661.628 646.717 652.181 642.04 642.413 638.117C632.444 634.127 622.086 630.441 611.539 628.344C605.9 627.248 600.154 626.809 594.414 627.036C593.257 627.072 582.674 628.026 578.373 629.428C578.112 630.449 577.669 631.414 577.065 632.277C575.992 633.877 574.434 635.091 572.619 635.739C575.048 638.956 575.207 643.734 571.896 646.821C565.831 652.409 555.993 648.671 549.487 646.199C545.099 644.498 540.536 643.286 535.883 642.585C532.362 642.064 528.914 641.067 526.485 638.248C524.056 635.428 524.317 629.833 526.753 627.289C525.532 626.547 524.457 625.589 523.579 624.462C520.644 620.646 520.073 614.342 522.777 610.366C521.702 609.822 520.678 609.181 519.719 608.451C514.659 604.475 514.059 592.02 519.719 587.726C510.481 579.369 509.346 563.987 520.016 555.645C520.016 555.334 520.016 555.023 520.016 554.705C520.384 548.799 525.076 545.098 530.338 543.334C537.878 540.797 546.87 541.057 554.692 541.722C562 542.344 570.205 543.442 576.971 546.782C581.619 526.05 591.248 504.01 614.054 499.853C616.144 499.47 618.493 501.19 617.727 503.525C612.999 517.925 606.327 532.773 604.469 547.903C602.749 561.926 607.267 574.924 619.707 582.384C631.996 589.728 646.692 590.017 660.564 589.996C674.921 589.996 689.479 589.222 703.814 590.422C706.756 566.95 709.597 543.435 712.539 519.992C713.616 511.318 714.578 502.687 715.582 494.034C716.443 486.682 716.753 478.709 718.474 471.372C718.452 471.083 718.438 470.801 718.431 470.562Z" fill="#231F20"/>
<path d="M674.892 552.507C667.266 555.457 659.398 557.738 651.377 559.324C644.502 560.77 635.907 563.755 628.888 562.411C626.965 562.042 626.799 559.273 628.36 558.37C631.592 556.498 635.589 556.071 639.203 555.413L651.268 553.194C658.954 551.66 666.714 550.522 674.516 549.782C676.215 549.652 676.222 551.972 674.892 552.507Z" fill="#231F20"/>
<path d="M665.372 513.703C661.287 516.544 657.196 519.32 653.018 522.016C649.208 524.481 645.435 527.395 641.126 528.891C639.464 529.469 638.3 527.192 639.457 525.999C642.673 522.768 646.989 520.643 650.849 518.279C655.085 515.691 659.35 513.219 663.673 510.768C665.581 509.72 667.128 512.489 665.372 513.703Z" fill="#231F20"/>
<path d="M532.037 512.785C528.806 508.983 526.977 503.836 524.743 499.398C522.669 495.263 519.734 491.012 519.134 486.386C518.931 484.824 520.941 484.521 521.873 485.251C525.56 488.142 527.656 493.282 529.767 497.337C531.878 501.393 534.827 506.149 535.55 510.776C535.803 512.576 533.541 514.556 532.037 512.785Z" fill="#231F20"/>
<path d="M492.156 533.344C488.983 531.002 486.865 527.098 484.32 524.077C481.639 520.715 478.754 517.522 475.682 514.513C474.236 513.161 476.195 510.472 477.851 511.701C481.523 514.433 484.978 516.877 488.115 520.281C490.819 523.173 494.448 526.939 495.344 530.886C495.749 532.556 493.79 534.551 492.156 533.344Z" fill="#231F20"/>
<path d="M499.696 616.583C493.978 618.275 487.255 617.79 481.371 617.443C475.242 617.015 469.151 616.145 463.147 614.841C461.21 614.443 461.615 611.183 463.617 611.357C469.761 611.877 475.985 612.079 482.144 612.289C487.927 612.47 494.036 611.935 499.696 613.012C501.575 613.345 501.344 616.077 499.696 616.583Z" fill="#231F20"/>
<path d="M511.977 661.199C508.826 665.124 503.809 668.102 499.869 671.24C495.929 674.377 492.062 677.225 487.877 679.95C486.604 680.774 485.592 679.032 486.38 678.02C489.79 673.692 493.669 669.755 497.946 666.281C501.604 663.259 505.623 659.594 510.076 657.917C512.115 657.151 513.062 659.854 511.977 661.199Z" fill="#231F20"/>
<path d="M560.085 660.722C560.136 660.338 560.338 659.991 560.646 659.757C560.954 659.522 561.342 659.419 561.726 659.471C562.109 659.523 562.456 659.725 562.691 660.033C562.925 660.34 563.028 660.729 562.976 661.112C563.236 665.24 562.586 669.49 562.015 673.575C561.487 677.348 561.06 681.324 559.774 684.909C559.661 685.274 559.423 685.587 559.101 685.793C558.78 685.998 558.395 686.083 558.017 686.032C557.639 685.981 557.291 685.797 557.036 685.513C556.78 685.229 556.634 684.864 556.622 684.483C556.376 680.688 557.063 676.741 557.591 672.982C558.14 668.89 558.689 664.618 560.085 660.722Z" fill="#231F20"/>
<path d="M628.44 651.281C633.803 654.173 638.343 659.956 642.767 664.069C647.668 668.652 652.699 673.069 657.42 677.803C658.613 679.003 657.051 681.179 655.569 680.203C650.08 676.472 644.831 672.399 639.854 668.008C635.119 663.946 628.743 659.536 625.621 654.064C625.417 653.671 625.345 653.223 625.415 652.786C625.484 652.349 625.691 651.946 626.006 651.635C626.321 651.324 626.727 651.122 627.165 651.059C627.603 650.995 628.049 651.073 628.44 651.281Z" fill="#231F20"/>
<path d="M437.051 502.614C436.661 506.952 436.646 511.419 435.605 515.626C435.461 516.241 434.398 516.306 434.297 515.626C433.148 507.675 434.875 498.892 436.017 491.048C436.625 486.899 437.398 482.779 438.186 478.666C439.039 474.184 439.003 469.687 439.711 465.227C439.769 464.859 440.297 464.924 440.434 465.227C442.668 472.456 439.711 481.427 438.685 488.656C438.02 493.289 437.463 497.945 437.051 502.614Z" fill="#231F20"/>
<path d="M435.461 526.773C434.658 529.549 434.796 532.303 434.427 535.115C434.347 535.737 433.437 535.99 433.249 535.274C432.526 532.382 433.386 529.173 434.362 526.469C434.608 525.79 435.663 526.057 435.461 526.773Z" fill="#231F20"/>
<path d="M705.549 731.224C705.549 722.586 707.479 713.672 708.78 705.15C710.168 696.07 711.476 686.948 713.515 677.984C713.623 677.492 714.455 677.586 714.404 678.107C713.544 686.781 712.12 695.456 710.927 704.13C709.684 713.13 709.214 722.629 706.879 731.419C706.832 731.575 706.73 731.709 706.593 731.796C706.455 731.884 706.291 731.919 706.13 731.895C705.968 731.872 705.821 731.791 705.714 731.668C705.608 731.544 705.549 731.387 705.549 731.224V731.224Z" fill="#231F20"/>
<path d="M705.737 741.315C705.294 747.736 704.043 754.075 702.014 760.182C701.79 760.862 700.626 760.797 700.699 760.002C701.261 753.592 702.623 747.278 704.754 741.207C704.935 740.694 705.773 740.722 705.737 741.315Z" fill="#231F20"/>
<path d="M422.298 409.219C426.085 412.255 429.849 415.318 433.589 418.407C431.102 421.233 428.84 424.19 425.876 426.59C422.124 429.587 417.867 431.891 413.305 433.392C410.544 429.055 407.833 424.674 404.775 420.604C411.107 417.792 416.912 413.563 422.298 409.219Z" fill="#939598"/>
<path d="M329.213 309.86C330.564 321.83 331.772 334.134 337.041 345.136C342.151 355.728 350.971 364.075 361.829 368.593C372.925 373.169 385.423 373.69 394.915 381.757C403.958 389.448 408.172 400.219 411.382 411.265C409.972 412.125 408.555 412.971 407.131 413.816C402.794 403.92 396.346 394.031 387.086 388.321C378.874 383.26 369.26 381.352 360.289 378.099C349.825 374.386 340.714 367.62 334.135 358.675C327.333 349.35 324.738 338.789 323.249 327.527C322.425 321.274 321.666 315.014 320.856 308.732C320.191 303.607 319.909 298.098 318.586 293.067C318.902 289.617 318.994 286.149 318.861 282.687C318.737 279.334 318.27 276.004 317.466 272.747C317.278 272.024 317.047 271.251 316.801 270.513C320.213 275.725 323.198 280.843 325.056 287.053C327.304 294.506 328.345 302.183 329.213 309.86Z" fill="#8B5E3C"/>
<path d="M431.565 446.534C434.278 444.995 436.848 443.214 439.242 441.213C442.654 438.322 446.022 434.52 447.439 430.146C448.227 430.818 449.015 431.491 449.817 432.156C447.48 436.569 444.161 440.387 440.116 443.317C437.829 445.02 435.412 446.543 432.888 447.871C430.444 449.158 427.56 449.924 425.334 451.536L424.423 450.17C426.888 449.418 429.353 447.806 431.565 446.534Z" fill="#939598"/>
<path d="M413.739 409.783C411.252 398.217 405.122 386.477 395.949 379.075C386.775 371.673 375.52 370.711 364.901 366.858C351.42 361.972 341.4 351.078 336.911 337.553C332.726 324.953 332.574 311.529 330.406 298.518C329.126 290.927 327.066 281.841 322.707 274.699C324.292 276.163 325.766 277.744 327.116 279.426C331.433 284.87 334.538 291.171 336.225 297.91C339.066 309.238 338.393 321.346 342.687 332.341C347.162 343.907 356.863 350.413 367.352 356.073C379.424 362.615 391.93 368.6 403.72 375.685C414.823 382.371 419.175 393.251 419.536 405.72C417.628 407.195 415.698 408.518 413.739 409.783Z" fill="#8B5E3C"/>
<path d="M408.961 374.036C403.358 369.931 396.874 366.916 390.795 363.591C384.101 359.919 377.393 356.283 370.692 352.625C364.829 349.43 358.844 346.191 354.065 341.449C351.178 338.538 348.913 335.071 347.408 331.257C347.408 331.257 347.408 331.206 347.408 331.177C347.061 328.025 346.743 325.141 347.408 321.997C347.531 321.389 347.682 320.789 347.841 320.189C350.169 327.418 355.157 333.873 360.622 338.789C368.87 346.213 379.084 350.861 389.132 355.285C399.534 359.861 411.042 364.27 418.669 373.09C425.435 380.918 427.069 390.482 423.165 399.243C422.551 389.39 416.724 379.733 408.961 374.036Z" fill="#8B5E3C"/>
<path d="M441.526 458.324C445.105 455.989 448.489 453.368 451.646 450.488C453.779 448.634 455.688 446.538 457.335 444.242C470.983 460.304 484.718 476.244 498.452 492.248C523.738 521.645 549.07 551.042 574.448 580.439C586.944 594.935 599.443 609.424 611.944 623.906C621.291 634.749 630.529 645.758 638.929 657.36C627.218 646.806 616.693 634.951 605.64 623.703C592.014 609.802 576.928 597.506 562.268 584.719C547.102 571.461 532.162 557.938 517.449 544.151C489.301 517.684 462.029 490.333 435.634 462.097C437.796 460.933 439.841 459.43 441.526 458.324Z" fill="#603913"/>
<path d="M436.603 420.893L439.039 422.903C441.388 424.855 443.709 426.915 446.058 428.946C443.521 433.283 440.832 437.1 436.769 440.303C434.396 442.134 431.874 443.764 429.23 445.175C427.271 446.252 425.037 447.069 423.208 448.377C420.798 444.758 418.389 441.143 415.979 437.534C424.054 434.541 432.634 428.708 436.603 420.893Z" fill="#939598"/>
<path d="M443.911 445.984C447.613 442.992 451.559 439.218 452.781 434.491C453.656 435.17 454.545 435.835 455.449 436.464C456.027 442.666 447.96 448.102 443.695 451.305C440.798 453.481 437.749 455.447 434.572 457.189C433.678 457.78 432.741 458.302 431.767 458.75C431.415 458.736 431.066 458.808 430.748 458.96C430.566 458.963 430.386 458.936 430.213 458.88C429.439 458.62 428.211 455.989 427.618 454.991C433.394 454.131 439.603 449.505 443.911 445.984Z" fill="#939598"/>
<path d="M321.391 333.042C324.442 353.232 336.478 370.979 355.627 379.075C365.024 383.051 375.441 384.663 384.455 389.607C394.843 395.289 399.729 405.149 405.527 414.778L402.288 416.722C400.647 413.665 398.226 410.795 396.151 408.337C392.763 404.328 388.876 400.769 384.585 397.747C375.701 391.472 365.942 388.986 355.569 386.354C344.639 383.571 335.661 378.287 328.454 369.526C325.035 365.231 322.107 360.569 319.721 355.625C318.89 352.249 318.153 348.909 317.488 345.642C316.042 338.471 314.9 331.365 315.146 324.021C315.384 316.951 316.526 309.954 317.473 302.949V302.855C317.95 306.513 318.572 310.163 318.991 313.698C319.772 320.132 320.423 326.609 321.391 333.042Z" fill="#8B5E3C"/>
<path d="M379.322 397.443C384.32 400.423 388.858 404.112 392.797 408.395C395.537 411.38 397.496 414.901 399.744 418.19H399.548C395.616 413.679 388.438 411.308 382.958 409.754C375.853 407.737 368.501 406.747 361.316 405.171C353.176 403.392 345.362 400.66 338.697 395.513C336.459 393.782 334.387 391.846 332.509 389.73C328.192 381.901 324.766 373.614 322.295 365.022C323.242 366.468 324.218 367.827 325.186 369.143C330.969 376.805 338.335 383.101 347.371 386.492C358.084 390.598 369.311 391.487 379.322 397.443Z" fill="#8B5E3C"/>
<path d="M377.898 411.084C381.714 411.901 385.448 413.065 389.052 414.561C391.062 415.493 392.984 416.606 394.792 417.886C391.633 418.11 388.438 418.97 385.272 419.52C378.182 420.638 370.925 419.962 364.164 417.554C352.865 413.701 344.27 406.515 337.641 397.573C342.906 401.519 348.854 404.46 355.186 406.248C362.646 408.351 370.352 409.342 377.898 411.084Z" fill="#8B5E3C"/>
<path d="M430.813 463.839C427.451 464.172 425.876 460.659 424.307 458.302L416.109 446.013C411.151 438.568 405.49 431.23 401.009 423.452L400.785 423.38C395.038 420.958 388.062 424.37 382.17 424.826C375.835 425.287 369.471 424.486 363.448 422.469C350.082 418.074 339.275 408.641 331.396 397.169C322.591 384.309 317.733 369.208 314.314 354.143C312.659 346.82 310.989 339.382 310.411 331.886C309.868 324.823 310.613 317.753 311.611 310.77C312.782 302.515 314.408 294.282 314.574 285.918C314.738 281.452 314.251 276.986 313.129 272.66C312.55 270.586 310.577 267.839 310.468 265.432C309.355 263.791 311.119 261.456 313.309 262.367C324.239 266.928 333.232 277.489 337.93 288.181C342.036 297.542 342.513 307.561 344.003 317.464C344.725 315.296 345.499 313.243 346.099 311.428C346.159 311.19 346.265 310.965 346.413 310.768C346.56 310.571 346.745 310.405 346.956 310.28C347.168 310.155 347.403 310.073 347.647 310.039C347.89 310.006 348.138 310.021 348.376 310.084C348.635 310.018 348.905 310.007 349.169 310.051C349.433 310.095 349.685 310.193 349.909 310.339C350.133 310.485 350.325 310.675 350.471 310.899C350.618 311.123 350.717 311.374 350.762 311.638C352.988 324.476 360.296 334.047 371.161 341.117C381.036 347.536 392.19 351.519 402.7 356.716C412.734 361.675 422.637 368.413 427.278 379.032C430.986 387.576 430.018 397.725 424.386 405.135C430.169 409.79 435.909 414.505 441.605 419.281C447.352 424.125 453.721 428.859 458.701 434.505C458.883 434.716 459.013 434.966 459.082 435.236C459.151 435.505 459.157 435.787 459.099 436.059C459.567 437.478 459.598 439.004 459.186 440.44C510.756 498.993 561.429 558.334 612.435 617.385C626.394 633.549 640.266 649.835 651.651 667.987C653.097 670.307 650.032 672.158 648.153 670.741C632.972 659.334 620.307 645.245 607.223 631.626C593.807 617.66 579.176 605.205 564.574 592.54C534.473 566.473 505.262 539.414 476.939 511.361C461.287 495.839 445.957 479.998 430.95 463.839H430.813ZM364.164 417.575C370.925 419.983 378.182 420.659 385.272 419.542C388.438 418.992 391.633 418.132 394.792 417.908C392.983 416.628 391.062 415.515 389.052 414.583C385.448 413.087 381.714 411.923 377.898 411.106C370.351 409.363 362.646 408.373 355.186 406.262C348.854 404.474 342.906 401.534 337.641 397.588C344.27 406.515 352.865 413.701 364.164 417.554V417.575ZM322.295 365.022C324.772 373.586 328.198 381.847 332.509 389.651C334.387 391.766 336.459 393.703 338.697 395.434C345.362 400.58 353.154 403.313 361.316 405.091C368.544 406.667 375.853 407.657 382.958 409.674C388.438 411.228 395.616 413.599 399.548 418.11H399.744C397.495 414.821 395.536 411.301 392.797 408.315C388.859 404.028 384.32 400.334 379.322 397.349C369.311 391.393 358.084 390.504 347.4 386.463C338.364 383.036 330.991 376.74 325.215 369.114C324.239 367.856 323.242 366.468 322.295 365.022ZM317.473 302.891C316.526 309.896 315.384 316.893 315.145 323.963C314.9 331.307 316.02 338.42 317.488 345.584C318.153 348.851 318.89 352.191 319.721 355.567C322.098 360.52 325.019 365.192 328.432 369.497C335.661 378.258 344.617 383.542 355.547 386.325C365.92 388.957 375.679 391.443 384.563 397.718C388.854 400.74 392.741 404.299 396.129 408.308C398.204 410.766 400.625 413.636 402.266 416.693L405.505 414.749C399.722 405.12 394.821 395.231 384.433 389.578C375.419 384.634 365.031 383.022 355.605 379.046C336.456 370.95 324.42 353.203 321.369 333.013C320.401 326.58 319.75 320.103 318.977 313.647C318.557 310.127 317.936 306.477 317.459 302.804L317.473 302.891ZM316.822 270.513C317.068 271.236 317.3 271.995 317.488 272.747C318.292 276.004 318.759 279.334 318.883 282.687C319.015 286.149 318.923 289.617 318.608 293.067C319.931 298.127 320.213 303.607 320.878 308.732C321.687 314.985 322.446 321.245 323.271 327.527C324.716 338.789 327.355 349.35 334.157 358.675C340.736 367.62 349.846 374.386 360.311 378.099C369.282 381.352 378.896 383.246 387.108 388.321C396.368 394.031 402.794 403.92 407.153 413.816C408.599 412.971 409.994 412.125 411.404 411.265C408.194 400.219 403.98 389.448 394.936 381.757C385.445 373.697 372.947 373.169 361.829 368.593C350.963 364.08 342.134 355.732 337.02 345.136C331.75 334.134 330.514 321.83 329.191 309.86C328.323 302.183 327.283 294.506 325.056 287.082C323.22 280.872 320.234 275.754 316.822 270.542V270.513ZM418.654 373.09C411.028 364.27 399.519 359.861 389.117 355.285C379.069 350.861 368.877 346.213 360.607 338.789C355.142 333.874 350.154 327.382 347.827 320.189C347.668 320.789 347.516 321.389 347.393 321.997C346.735 325.141 347.053 328.025 347.393 331.177C347.393 331.177 347.393 331.235 347.393 331.257C348.898 335.071 351.163 338.538 354.051 341.449C358.829 346.191 364.814 349.401 370.677 352.625C377.378 356.283 384.086 359.919 390.78 363.591C396.859 366.916 403.343 369.931 408.946 374.036C416.709 379.733 422.521 389.39 423.136 399.243C427.054 390.482 425.442 380.925 418.654 373.09ZM403.69 375.699C391.922 368.615 379.395 362.63 367.323 356.087C356.834 350.406 347.133 343.907 342.658 332.355C338.393 321.361 339.044 309.223 336.196 297.925C334.509 291.186 331.404 284.884 327.087 279.441C325.736 277.758 324.263 276.178 322.678 274.713C327.015 281.855 329.097 290.942 330.376 298.568C332.545 311.58 332.726 324.989 336.882 337.604C341.371 351.129 351.39 362.022 364.872 366.909C375.491 370.762 386.847 371.796 395.92 379.126C404.992 386.455 411.223 398.267 413.71 409.833C415.669 408.568 417.599 407.245 419.493 405.785C419.146 393.265 414.794 382.371 403.69 375.699ZM517.486 544.129C532.16 557.926 547.099 571.449 562.304 584.697C576.942 597.485 592.029 609.781 605.676 623.682C616.729 634.944 627.254 646.814 638.965 657.339C630.565 645.773 621.327 634.749 611.98 623.884C599.474 609.378 586.964 594.897 574.448 580.439C549.09 551.042 523.758 521.645 498.452 492.248C484.718 476.28 470.983 460.341 457.378 444.278C455.732 446.575 453.822 448.671 451.689 450.524C448.533 453.404 445.148 456.025 441.569 458.36C439.885 459.466 437.839 460.97 435.714 462.133C462.118 490.273 489.375 517.612 517.486 544.151V544.129ZM430.213 458.909C430.386 458.965 430.566 458.992 430.748 458.989C431.065 458.837 431.415 458.765 431.767 458.779C432.74 458.331 433.678 457.809 434.572 457.218C437.749 455.476 440.798 453.51 443.694 451.334C447.959 448.131 456.027 442.695 455.448 436.493C454.545 435.864 453.656 435.199 452.781 434.52C451.559 439.247 447.612 443.021 443.911 446.013C439.574 449.505 433.422 454.131 427.618 455.02C428.21 456.04 429.439 458.649 430.213 458.909ZM425.312 451.536C427.538 449.924 430.422 449.158 432.866 447.871C435.39 446.543 437.807 445.02 440.095 443.317C444.139 440.387 447.458 436.569 449.796 432.156C448.993 431.491 448.205 430.818 447.417 430.146C445.971 434.483 442.632 438.322 439.22 441.213C436.826 443.214 434.257 444.995 431.543 446.534C429.331 447.806 426.895 449.425 424.379 450.148L425.312 451.536ZM423.208 448.377C425.037 447.069 427.271 446.252 429.23 445.175C431.874 443.764 434.397 442.134 436.769 440.303C440.832 437.1 443.521 433.269 446.058 428.946C443.709 426.915 441.388 424.855 439.039 422.903L436.603 420.893C432.634 428.708 424.054 434.541 415.994 437.519C418.399 441.143 420.803 444.763 423.208 448.377ZM425.876 426.59C428.839 424.175 431.102 421.233 433.589 418.407C429.844 415.327 426.08 412.265 422.297 409.219C416.912 413.556 411.107 417.792 404.775 420.604C407.833 424.674 410.558 429.083 413.305 433.392C417.866 431.891 422.124 429.587 425.876 426.59V426.59Z" fill="#231F20"/>
</svg>
