<svg width="664" height="664" viewBox="0 0 664 664" fill="none" xmlns="http://www.w3.org/2000/svg">
<g clip-path="url(#clip0_701_81)">
<path d="M342.567 411.315C336.81 404.117 332.123 396.126 328.651 387.589C327.737 389.63 326.663 391.656 325.604 393.682C326.572 396.729 329.489 400.377 330.639 402.099C332.727 405.226 334.985 408.237 337.402 411.117C342.274 416.77 347.626 421.992 353.397 426.723C359.47 431.716 365.795 436.394 372.348 440.738C377.733 444.356 383.384 447.593 388.746 451.241C390.268 450.418 391.715 449.465 393.073 448.393C391.93 447.898 390.788 447.395 389.645 446.869C371.594 438.537 354.944 426.975 342.567 411.315Z" fill="#FFF200"/>
<path d="M532.496 261.769C541.461 273.141 553.442 281.016 566.116 287.605C571.752 278.648 576.36 269.134 578.455 258.608C579.43 253.907 579.887 249.113 579.818 244.312C579.765 241.448 579.011 239.506 576.642 237.769C574.599 236.329 572.444 235.056 570.198 233.961C561.772 229.77 552.607 227.271 543.22 226.603C535.017 225.995 526.771 226.456 518.687 227.974C520.06 240.303 524.842 252.006 532.496 261.769V261.769Z" fill="#FFF200"/>
<path d="M510.27 367.435C484.473 398.976 457.167 429.397 427.15 457.022C427.325 458.355 426.388 459.818 424.751 459.361C416.574 457.145 408.516 454.516 400.606 451.485C400.606 451.736 400.659 451.988 400.69 452.247C400.716 452.385 400.712 452.526 400.68 452.663C400.648 452.8 400.588 452.928 400.503 453.04C400.419 453.152 400.312 453.245 400.189 453.313C400.066 453.381 399.931 453.422 399.791 453.435C397.102 475.676 397.955 498.023 403.736 519.799C404.437 522.427 405.191 525.047 406.021 527.636C406.905 530.371 408.238 532.884 411.353 531.026C413.744 529.586 415.755 527.271 417.766 525.367C419.777 523.463 421.727 521.612 423.677 519.707C432.2 511.428 440.433 502.837 448.179 493.811C463.855 475.577 477.374 455.621 490.376 435.421C513.919 398.861 536.358 360.725 548.521 318.749C536.03 335.186 523.333 351.463 510.27 367.435Z" fill="#939598"/>
<path d="M579.445 234.829C592.157 224.927 604.504 214.622 616.34 203.722C616.683 203.362 617.151 203.146 617.648 203.119C618.145 203.092 618.634 203.256 619.014 203.578C622.38 206.282 627.392 205.048 629.494 201.399C630.442 199.67 630.833 197.69 630.615 195.73C630.397 193.77 629.58 191.925 628.275 190.447C625.724 187.575 621.184 185.938 617.749 188.291C615.076 190.119 613.591 193.927 615.137 196.928C615.39 197.347 615.475 197.847 615.375 198.326C615.274 198.805 614.996 199.228 614.596 199.51C600.901 210.037 587.511 221.043 573.603 231.234C574.014 231.462 574.418 231.683 574.822 231.919C576.427 232.784 577.971 233.756 579.445 234.829V234.829Z" fill="#FFF200"/>
<path d="M285.823 539.656C284.962 541.247 284.642 542.436 287.049 541.849C288.772 541.43 290.457 540.865 292.083 540.158C295.988 538.405 299.588 536.039 302.747 533.151C309.259 527.37 314.423 520.134 319.031 512.799C324.474 504.197 328.509 494.781 330.982 484.907C332.223 479.918 333.137 474.853 333.876 469.773C334.234 467.32 334.546 464.852 334.836 462.392C334.996 461.067 335.14 459.741 335.285 458.409C335.331 457.967 335.62 456.786 335.666 455.918C332.317 453.527 329.107 450.946 326.054 448.187C323.285 445.889 320.735 443.339 318.437 440.57C305.482 443.966 293.435 450.179 283.157 458.767C286.508 458.259 289.872 457.87 293.249 457.601C294.338 457.51 294.559 458.827 293.858 459.422C276.276 474.425 261.295 492.232 249.521 512.121C264.926 506.598 279.94 500.041 294.46 492.493C295.092 492.166 296.174 492.607 295.899 493.46C294.035 499.324 291.675 505.019 288.846 510.484C292.427 509.042 295.592 506.73 298.055 503.758C298.195 503.611 298.379 503.512 298.579 503.477C298.779 503.441 298.985 503.471 299.167 503.561C299.35 503.651 299.498 503.798 299.591 503.978C299.684 504.159 299.717 504.365 299.685 504.566C297.344 515.622 293.373 526.27 287.902 536.159C287.201 537.332 286.462 538.475 285.823 539.656Z" fill="#FFF200"/>
<path d="M341.318 454.966C342.925 455.552 344.197 455.347 345.187 453.823C345.651 453.107 346.032 452.391 346.52 451.683C346.614 451.549 346.73 451.43 346.862 451.333C339.361 445.476 332.489 438.855 326.358 431.575C325.033 429.998 323.7 428.346 322.451 426.624C320.928 429.458 317.942 431.956 319.61 435.246C321.347 438.704 324.599 441.743 327.417 444.325C330.444 447.043 333.623 449.586 336.938 451.942C338.24 452.848 339.809 454.425 341.318 454.966Z" fill="#FFF200"/>
<path d="M322.999 363.733L323.411 363.193C323.442 362.953 323.536 362.725 323.683 362.533C323.83 362.34 324.025 362.19 324.249 362.096C327.093 358.524 330.123 355.104 333.328 351.851C358.463 325.871 384.116 299.929 412.541 277.459C425.615 267.002 439.438 257.516 453.899 249.08C443.773 250.568 433.792 252.918 424.065 256.102C413.204 259.713 402.555 264.008 392.075 268.571C354.814 284.787 319.336 306.159 289.654 334.074C282.258 341.019 275.258 348.373 268.685 356.102C265.577 359.758 261.83 363.566 259.591 367.831C256.354 373.985 262.881 376.324 267.535 377.923C285.404 384.062 305.001 390.354 323.845 384.847C324.171 384.74 324.52 384.723 324.856 384.798C325.191 384.873 325.5 385.037 325.749 385.273C326.092 384.71 326.45 384.146 326.815 383.598C326.886 383.497 326.962 383.4 327.044 383.308C325.167 377.802 323.985 372.084 323.525 366.285C323.313 366.161 323.129 365.994 322.986 365.794C322.843 365.594 322.743 365.367 322.694 365.126C322.644 364.886 322.646 364.637 322.698 364.397C322.751 364.157 322.854 363.931 322.999 363.733V363.733Z" fill="#939598"/>
<path d="M472.812 336.473C475.199 336.55 477.561 335.966 479.636 334.784C481.711 333.603 483.42 331.87 484.572 329.778C486.964 325.338 486.507 319.877 485.714 315.048C484.808 309.548 482.409 306.532 477.557 303.821C474 301.833 469.689 299.418 465.538 300.248C459.673 302.579 455.537 310.15 454.836 316.243C453.641 326.572 462.514 336.07 472.812 336.473Z" fill="#939598"/>
<path d="M515.252 247.115C517.735 253.505 521.497 259.301 525.664 264.732C535.131 277.048 547.592 287.186 562.559 291.84C562.773 291.909 562.975 292.009 563.16 292.137C563.724 291.299 564.28 290.453 564.836 289.608C551.682 283.225 539.336 274.169 530.462 262.546C523.005 252.774 517.514 240.625 517.514 228.187C515.869 228.497 514.228 228.842 512.593 229.223C512.548 235.453 512.913 241.097 515.252 247.115Z" fill="white"/>
<path d="M498.625 258.532C502.178 265.642 506.552 272.311 511.657 278.404C516.992 284.734 523.071 290.399 529.762 295.275C536.548 300.241 543.883 303.539 551.324 307.309L551.538 307.446C551.639 307.111 551.828 306.81 552.085 306.573C552.342 306.335 552.658 306.172 553 306.098C555.62 302.64 558.24 299.144 560.761 295.579C545.086 290.728 532.107 279.859 522.252 266.948C517.636 260.901 513.576 254.259 511.078 247.038C509.265 241.821 508.031 235.69 509.021 230.091C503.621 231.485 498.297 233.199 493.087 235.103C491.937 243.375 494.969 251.205 498.625 258.532Z" fill="#58595B"/>
<path d="M423.654 454.669C427.081 451.49 430.483 448.286 433.86 445.057C462.285 417.774 488.319 388.114 513.073 357.465C525.443 342.14 537.553 326.572 549.428 310.82C541.4 308.208 533.745 303.318 526.997 298.367C519.916 293.145 513.519 287.055 507.955 280.239C502.286 273.315 497.552 265.676 493.872 257.519C490.985 251.113 488.205 243.657 489.302 236.512C457.068 248.92 428.323 268.685 402.076 290.926C388.602 302.351 375.745 314.438 363.17 326.823C357.01 332.886 350.904 338.997 344.852 345.156C338.636 351.448 332.254 357.632 326.633 364.465C327.801 373.633 330.413 382.558 334.371 390.91C351.349 426.007 387.703 444.493 423.654 454.669ZM466.444 285.008C481 283.835 495.723 292.365 502.151 305.428C508.45 318.247 506.02 334.935 495.837 345.095C489.858 351.067 482.949 352.712 474.708 352.194C466.33 351.661 457.784 349.399 451.241 343.945C444.226 338.103 440.578 329.024 440.09 319.839C438.651 303.516 449.04 286.409 466.444 285.008Z" fill="#BE1E2D"/>
<path d="M457.495 343.267C463.809 346.931 471.448 348.264 478.684 348.188C486.225 348.112 492.227 344.166 496.347 337.966C499.68 332.878 501.469 326.934 501.496 320.851C501.523 314.769 499.787 308.809 496.5 303.691C489.439 293.028 475.386 286.295 462.666 289.334C455.979 290.933 450.48 295.663 447.197 301.612C446.329 303.181 445.61 304.829 445.049 306.532C442.992 320.128 444.31 335.62 457.495 343.267ZM479.895 342.186C478.654 342.54 477.342 342.566 476.087 342.262C475.698 342.178 475.721 341.538 476.133 341.554C477.269 341.582 478.401 341.385 479.461 340.975C480.466 340.602 481.319 339.84 482.325 339.512C482.403 339.488 482.485 339.487 482.564 339.51C482.642 339.532 482.712 339.577 482.765 339.638C482.818 339.699 482.853 339.775 482.864 339.855C482.875 339.936 482.862 340.018 482.828 340.091C482.393 341.173 480.961 341.858 479.895 342.186ZM493.247 313.623C497.292 321.476 496.012 332.825 488.456 338.218C487.976 338.56 487.512 337.898 487.824 337.456C493.087 330.494 495.677 322.428 492.737 313.844C492.615 313.623 493.102 313.342 493.247 313.623ZM466.718 292.297C468.386 291.995 470.105 292.191 471.662 292.86C472.042 293.058 471.974 293.782 471.486 293.751C469.872 293.66 468.28 293.249 466.665 293.119C466.162 293.058 466.269 292.335 466.718 292.297ZM448.972 307.682C448.842 308.109 448.21 308.002 448.278 307.545C449.497 301.338 454.981 293.074 462.065 292.807C462.178 292.805 462.29 292.839 462.383 292.905C462.476 292.971 462.546 293.064 462.581 293.173C462.617 293.281 462.617 293.398 462.582 293.506C462.546 293.614 462.477 293.708 462.384 293.774C459.62 295.534 456.725 296.448 454.311 298.839C451.833 301.305 450 304.342 448.972 307.682V307.682ZM461.547 298.618L461.684 298.504C463.691 297.15 466.082 296.48 468.501 296.592H468.859C469.611 296.62 470.358 296.722 471.09 296.897C472.792 297.259 474.442 297.829 476.003 298.596C480.878 300.926 485.905 303.661 488.098 308.871C491.655 317.348 491.739 329.915 484.29 336.291C476.331 343.146 465.248 340.373 458.005 333.899C450.388 327.112 449.314 316.822 453.435 307.804C455.178 304.012 457.999 300.817 461.547 298.618V298.618Z" fill="#58595B"/>
<path d="M352.971 450.883C357.191 453.93 362.065 457.951 367.534 458.028C372.348 458.096 377.481 455.895 381.945 454.257C383.468 453.701 384.991 453.092 386.431 452.414C380.17 448.766 374.13 444.569 368.189 440.494C361.191 435.763 354.507 430.583 348.18 424.987C342.013 419.535 336.451 413.434 331.591 406.79C329.238 403.56 327.142 400.15 325.322 396.592C325.109 396.18 324.896 395.746 324.698 395.304C321.24 401.977 318.193 408.71 321.027 416.296C324.492 425.619 332.794 433.426 339.886 440.068C344.018 443.942 348.388 447.554 352.971 450.883Z" fill="#58595B"/>
<path d="M317.234 546.869C317.729 551 317.624 555.182 316.921 559.284C341.119 532.252 344.174 493.491 339.078 458.683C339.052 458.483 339.052 458.281 339.078 458.081C338.652 457.837 338.233 457.571 337.806 457.319C337.661 458.294 337.433 459.246 337.349 459.993C336.984 463.405 336.588 466.848 336.085 470.222C335.183 476.816 333.811 483.337 331.979 489.736C328.727 500.742 323.319 510.606 316.746 519.959C311.513 527.408 305.466 534.697 297.636 539.534C294.201 541.643 289.768 543.936 285.67 544.203C282.182 544.431 282.791 540.912 284.01 538.772C289.725 529 294.082 518.493 296.958 507.544C294.127 510.131 290.739 512.033 287.056 513.104C286.878 513.158 286.687 513.159 286.508 513.107C286.329 513.056 286.168 512.953 286.046 512.812C285.923 512.671 285.844 512.498 285.818 512.313C285.792 512.129 285.82 511.94 285.899 511.771C288.825 506.452 291.289 500.892 293.264 495.151C278.493 502.753 263.225 509.346 247.564 514.886C247.381 514.942 247.186 514.944 247.002 514.891C246.818 514.839 246.653 514.734 246.528 514.59C246.402 514.446 246.321 514.268 246.294 514.079C246.267 513.889 246.295 513.696 246.376 513.523C258.007 493.361 272.854 475.236 290.332 459.863C286.851 460.229 283.393 460.701 279.935 461.288C279.737 461.297 279.54 461.249 279.369 461.148C279.198 461.046 279.061 460.897 278.974 460.719C278.887 460.54 278.855 460.34 278.881 460.144C278.907 459.947 278.99 459.762 279.12 459.612C289.93 449.627 303.075 442.516 317.348 438.933C316.869 438.204 316.447 437.44 316.083 436.648C300.181 437.193 284.555 440.963 270.153 447.728C255.751 454.493 242.873 464.112 232.3 476.003L247.792 473.573C249.377 473.322 250.55 475.66 249.316 476.742C240.721 484.483 233.127 493.267 226.71 502.89C215.673 519.304 207.523 537.607 200.919 556.207C195.291 572.057 191.124 588.813 192.541 605.715C212.504 577.465 241.014 557.181 269.812 538.604C270.133 538.405 270.504 538.303 270.882 538.309C271.259 538.316 271.627 538.432 271.94 538.643C272.253 538.854 272.498 539.151 272.647 539.498C272.795 539.845 272.839 540.228 272.775 540.6C268.375 560.856 262.348 580.723 254.754 600.01C279.249 588.257 297.545 566.961 313.692 545.619C314.819 544.165 317.043 545.284 317.234 546.869Z" fill="#F7941E"/>
<path d="M311.254 565.209C311.043 565.651 310.997 566.153 311.124 566.626C311.251 567.098 311.543 567.51 311.946 567.786C312.35 568.062 312.84 568.184 313.326 568.131C313.813 568.077 314.264 567.852 314.598 567.494C344.219 539.975 348.835 497.314 343.404 459.338C346.314 459.125 348.69 456.756 349.536 453.412C356.254 458.477 363.246 463.474 372.104 461.6C380.482 459.818 389.996 456.497 396.554 450.617C392.745 471.54 393.659 493.46 398.206 514.17C399.29 519.632 400.762 525.011 402.609 530.264C404.033 534.073 407.042 536.974 411.345 535.55C416.037 533.989 419.891 529.007 423.349 525.717C427.858 521.411 432.286 517.021 436.632 512.548C454.433 494.161 469.811 473.886 484.031 452.65C498.251 431.415 511.992 409.852 524.148 387.406C537.409 362.941 548.567 337.227 555.171 310.143C559.885 304.003 564.554 297.758 568.736 291.238C569.043 291.169 569.31 290.981 569.478 290.715C569.646 290.45 569.703 290.128 569.635 289.821C574.279 282.61 577.973 274.83 580.625 266.674C581.998 262.246 582.939 257.695 583.436 253.086C583.878 249.042 584.54 244.228 583.436 240.267C583.163 239.311 582.728 238.41 582.149 237.601C594.473 228.004 606.405 217.938 617.947 207.401C620.227 208.696 622.896 209.128 625.468 208.617C628.04 208.107 630.342 206.689 631.954 204.621C635.702 199.747 635.176 192.534 631.193 188.002C627.384 183.691 620.727 181.764 615.7 185.138C613.752 186.435 612.276 188.329 611.493 190.536C610.711 192.742 610.663 195.142 611.359 197.378C597.725 208.11 583.71 218.484 570.404 229.611C567.701 228.343 564.92 227.247 562.079 226.329C544.119 220.487 524.757 221.911 506.774 226.717C490.675 231.136 475.146 237.419 460.503 245.439C460.267 245.321 460.005 245.263 459.741 245.271C448.438 245.226 437.105 248.12 426.426 251.471C415.748 254.823 405.358 258.92 395.083 263.262C375.004 271.676 355.622 281.667 337.121 293.142C318.562 304.639 301.224 317.996 285.373 333.008C277.539 340.459 270.163 348.377 263.285 356.718C260.383 360.245 256.43 364.19 255.188 368.73C254.084 372.873 256.125 376.507 259.644 378.677C264.161 381.473 269.896 382.821 274.877 384.466C280.5 386.359 286.227 387.926 292.03 389.158C302.472 391.283 313.197 391.747 323.548 389.066C322.024 391.923 320.653 394.878 319.26 397.727C317.294 401.756 315.718 406.021 315.893 410.576C316.068 415.298 317.896 419.655 320.379 423.646C318.764 425.009 317.622 427.249 316.617 428.978C315.832 430.243 315.357 431.676 315.23 433.159C280.887 434.02 247.617 450.632 226.115 477.389C225.171 478.57 225.894 480.832 227.639 480.558L242.11 478.273C228.85 491.305 218.499 507.026 210.303 523.676C201.658 541.286 194.042 560.297 190.279 579.582C188.238 590.025 187.59 600.734 189.213 611.275C189.254 611.7 189.43 612.101 189.716 612.419C190.002 612.737 190.382 612.954 190.801 613.039C191.219 613.125 191.654 613.073 192.042 612.893C192.429 612.712 192.748 612.412 192.952 612.037C211.628 583.459 239.604 562.757 267.923 544.408C263.283 564.408 257.045 584.002 249.27 603.003C248.668 604.466 249.971 606.522 251.7 605.799C277.421 594.998 296.638 574.281 313.456 552.619C313.422 556.909 312.678 561.163 311.254 565.209ZM388.731 451.241C383.4 447.608 377.717 444.386 372.332 440.738C365.78 436.394 359.455 431.716 353.382 426.723C347.611 421.992 342.259 416.77 337.387 411.117C334.952 408.24 332.676 405.232 330.57 402.106C329.42 400.385 326.503 396.774 325.536 393.69C326.61 391.656 327.684 389.63 328.582 387.596C332.076 396.135 336.786 404.124 342.567 411.315C354.982 426.975 371.632 438.537 389.668 446.869C390.803 447.395 391.953 447.898 393.096 448.393C391.726 449.467 390.266 450.42 388.731 451.241ZM490.376 435.444C477.374 455.644 463.854 475.599 448.179 493.834C440.426 502.844 432.184 511.436 423.676 519.73C421.727 521.635 419.756 523.521 417.766 525.39C415.755 527.294 413.744 529.609 411.353 531.049C408.245 532.907 406.912 530.394 406.021 527.659C405.183 525.07 404.429 522.449 403.736 519.822C397.955 498.046 397.102 475.698 399.791 453.458C399.93 453.445 400.066 453.404 400.189 453.336C400.311 453.268 400.419 453.175 400.503 453.063C400.588 452.951 400.648 452.822 400.68 452.686C400.712 452.549 400.715 452.407 400.689 452.27C400.689 452.011 400.636 451.759 400.606 451.508C408.516 454.536 416.574 457.163 424.75 459.376C426.396 459.833 427.325 458.37 427.15 457.038C457.167 429.435 484.473 398.991 510.27 367.45C523.333 351.455 536.022 335.201 548.521 318.787C536.357 360.748 513.942 398.869 490.376 435.444ZM614.565 199.51C614.965 199.228 615.244 198.805 615.344 198.326C615.444 197.847 615.359 197.347 615.106 196.928C613.583 193.927 615.045 190.119 617.719 188.291C621.154 185.938 625.693 187.575 628.245 190.447C629.55 191.925 630.367 193.77 630.585 195.73C630.803 197.69 630.411 199.67 629.464 201.399C627.354 205.048 622.35 206.282 618.983 203.578C618.603 203.256 618.115 203.092 617.618 203.119C617.12 203.146 616.653 203.362 616.31 203.722C604.473 214.607 592.127 224.965 579.445 234.829C577.988 233.758 576.462 232.786 574.875 231.919C574.471 231.683 574.068 231.462 573.656 231.234C587.511 221.043 600.901 210.037 614.565 199.51ZM543.22 226.603C552.607 227.271 561.772 229.77 570.198 233.961C572.444 235.056 574.599 236.329 576.642 237.769C579.011 239.506 579.765 241.448 579.818 244.312C579.887 249.113 579.43 253.907 578.455 258.608C576.36 269.134 571.752 278.648 566.116 287.605C553.442 281.016 541.461 273.133 532.496 261.769C524.842 252.006 520.06 240.303 518.687 227.974C526.771 226.456 535.017 225.995 543.22 226.603V226.603ZM517.514 228.187C517.514 240.625 523.005 252.774 530.462 262.546C539.336 274.169 551.682 283.225 564.836 289.608C564.28 290.453 563.724 291.299 563.16 292.137C562.975 292.009 562.773 291.909 562.559 291.84C547.592 287.186 535.139 277.048 525.664 264.732C521.497 259.317 517.735 253.505 515.252 247.115C512.913 241.097 512.548 235.453 512.593 229.223C514.234 228.842 515.874 228.497 517.514 228.187ZM509.036 230.091C508.023 235.69 509.28 241.821 511.093 247.038C513.591 254.259 517.651 260.901 522.267 266.948C532.123 279.859 545.117 290.728 560.776 295.579C558.255 299.144 555.635 302.64 553.015 306.098C552.673 306.172 552.357 306.335 552.1 306.573C551.843 306.81 551.654 307.111 551.553 307.446L551.339 307.309C543.898 303.501 536.563 300.241 529.777 295.275C523.08 290.4 516.997 284.735 511.657 278.404C506.546 272.312 502.167 265.643 498.609 258.532C494.953 251.205 491.922 243.375 493.087 235.103C498.312 233.199 503.636 231.485 509.036 230.091ZM326.823 383.598C326.457 384.146 326.061 384.71 325.757 385.273C325.507 385.037 325.199 384.873 324.863 384.798C324.528 384.723 324.179 384.74 323.852 384.847C305.009 390.354 285.411 384.085 267.542 377.923C262.889 376.324 256.361 373.985 259.598 367.831C261.883 363.566 265.585 359.757 268.693 356.101C275.252 348.385 282.237 341.041 289.615 334.105C319.32 306.159 354.776 284.787 392.037 268.601C402.525 264.031 413.173 259.743 424.027 256.133C433.752 252.949 443.73 250.599 453.854 249.11C439.393 257.547 425.569 267.032 412.495 277.49C384.108 299.959 358.455 325.901 333.32 351.882C330.132 355.126 327.117 358.536 324.287 362.096C324.063 362.19 323.868 362.34 323.721 362.533C323.574 362.725 323.48 362.953 323.449 363.193L323.037 363.733C322.892 363.932 322.79 364.158 322.738 364.399C322.686 364.639 322.685 364.887 322.735 365.128C322.785 365.369 322.886 365.596 323.03 365.795C323.174 365.995 323.358 366.162 323.571 366.285C324.03 372.084 325.212 377.802 327.089 383.308C326.995 383.399 326.906 383.496 326.823 383.598ZM326.633 364.465C332.254 357.61 338.636 351.448 344.852 345.156C350.945 339.012 357.051 332.901 363.17 326.823C375.745 314.438 388.602 302.328 402.076 290.926C428.323 268.715 457.068 248.92 489.325 236.512C488.22 243.657 491 251.113 493.895 257.519C497.574 265.676 502.309 273.315 507.978 280.239C513.541 287.055 519.939 293.145 527.019 298.367C533.768 303.318 541.423 308.208 549.45 310.82C537.553 326.572 525.443 342.14 513.058 357.48C488.319 388.114 462.285 417.774 433.845 445.072C430.473 448.301 427.071 451.505 423.638 454.684C387.688 444.508 351.333 426.022 334.356 390.925C330.401 382.568 327.794 373.637 326.633 364.465V364.465ZM321.027 416.296C318.201 408.679 321.232 401.961 324.698 395.304C324.896 395.746 325.109 396.18 325.322 396.592C327.142 400.15 329.238 403.56 331.591 406.79C336.451 413.434 342.013 419.535 348.18 424.987C354.507 430.583 361.191 435.763 368.189 440.494C374.13 444.569 380.17 448.766 386.431 452.414C384.976 453.092 383.468 453.701 381.945 454.257C377.481 455.895 372.348 458.066 367.534 458.028C362.065 457.952 357.191 453.953 352.971 450.883C348.388 447.552 344.017 443.937 339.885 440.06C332.794 433.426 324.492 425.588 321.027 416.296ZM299.639 504.566C299.671 504.365 299.639 504.159 299.545 503.978C299.452 503.798 299.304 503.651 299.122 503.561C298.939 503.471 298.733 503.441 298.533 503.477C298.333 503.512 298.149 503.611 298.009 503.758C295.546 506.73 292.381 509.042 288.801 510.484C291.63 505.019 293.989 499.324 295.854 493.46C296.128 492.607 295.046 492.166 294.414 492.493C279.894 500.041 264.88 506.598 249.476 512.121C261.252 492.231 276.235 474.424 293.82 459.422C294.521 458.827 294.3 457.51 293.211 457.601C289.834 457.891 286.47 458.279 283.118 458.767C293.414 450.16 305.485 443.936 318.467 440.54C320.765 443.309 323.315 445.859 326.084 448.157C329.142 450.926 332.356 453.517 335.712 455.918C335.666 456.786 335.376 457.967 335.331 458.409C335.186 459.741 335.041 461.067 334.881 462.392C334.592 464.852 334.28 467.32 333.922 469.773C333.16 474.853 332.269 479.918 331.027 484.907C328.554 494.781 324.52 504.197 319.077 512.799C314.469 520.134 309.305 527.37 302.792 533.151C299.633 536.039 296.034 538.405 292.129 540.158C290.502 540.865 288.818 541.43 287.094 541.849C284.688 542.436 285.007 541.247 285.868 539.656C286.508 538.475 287.247 537.332 287.902 536.16C293.357 526.267 297.312 515.62 299.639 504.566V504.566ZM336.961 451.912C333.645 449.555 330.467 447.012 327.44 444.295C324.622 441.713 321.347 438.674 319.633 435.216C317.965 431.903 320.958 429.427 322.474 426.594C323.723 428.315 325.056 429.968 326.381 431.545C332.512 438.824 339.383 445.446 346.885 451.302C346.753 451.4 346.637 451.518 346.542 451.653C346.055 452.361 345.674 453.077 345.21 453.793C344.219 455.316 342.925 455.522 341.34 454.935C339.756 454.349 338.24 452.848 336.938 451.912H336.961ZM313.692 545.65C297.544 566.977 279.249 588.303 254.754 600.04C262.345 580.743 268.366 560.865 272.76 540.6C272.824 540.228 272.779 539.845 272.631 539.498C272.483 539.151 272.238 538.854 271.924 538.643C271.611 538.432 271.244 538.316 270.866 538.309C270.489 538.303 270.118 538.405 269.797 538.604C240.998 557.181 212.489 577.449 192.526 605.715C191.147 588.852 195.314 572.095 200.942 556.207C207.546 537.614 215.696 519.311 226.732 502.89C233.152 493.277 240.746 484.504 249.339 476.772C250.55 475.691 249.377 473.352 247.815 473.604L232.338 476.026C242.911 464.135 255.79 454.516 270.191 447.751C284.593 440.986 300.219 437.216 316.121 436.671C316.485 437.463 316.907 438.227 317.386 438.956C303.113 442.539 289.968 449.649 279.158 459.635C279.028 459.785 278.945 459.97 278.919 460.166C278.893 460.363 278.925 460.563 279.012 460.742C279.099 460.92 279.236 461.069 279.407 461.17C279.578 461.272 279.775 461.32 279.973 461.311C283.431 460.724 286.889 460.252 290.37 459.886C272.901 475.258 258.061 493.381 246.437 513.538C246.356 513.712 246.328 513.905 246.355 514.094C246.382 514.283 246.463 514.461 246.588 514.605C246.714 514.749 246.879 514.854 247.063 514.907C247.247 514.959 247.442 514.957 247.625 514.901C263.286 509.362 278.554 502.768 293.325 495.167C291.35 500.907 288.886 506.467 285.959 511.786C285.881 511.955 285.853 512.144 285.879 512.329C285.905 512.513 285.984 512.687 286.107 512.828C286.229 512.968 286.39 513.071 286.569 513.123C286.748 513.174 286.939 513.173 287.117 513.119C290.8 512.048 294.188 510.146 297.019 507.559C294.143 518.509 289.786 529.015 284.071 538.787C282.852 540.928 282.243 544.446 285.731 544.218C289.829 543.951 294.262 541.659 297.697 539.549C305.527 534.712 311.574 527.423 316.807 519.974C323.373 510.621 328.78 500.757 332.04 489.751C333.872 483.353 335.244 476.831 336.146 470.237C336.641 466.833 337.044 463.42 337.41 460.008C337.494 459.246 337.722 458.31 337.867 457.335C338.294 457.601 338.713 457.868 339.139 458.096C339.113 458.296 339.113 458.498 339.139 458.698C344.235 493.506 341.18 532.267 316.982 559.299C317.685 555.197 317.79 551.016 317.294 546.884C317.043 545.284 314.819 544.165 313.692 545.65Z" fill="#231F20"/>
<path d="M458.005 333.922C465.264 340.396 476.331 343.13 484.29 336.313C491.739 329.923 491.655 317.355 488.098 308.893C485.912 303.684 480.878 300.949 476.003 298.618C474.442 297.852 472.792 297.282 471.09 296.92C470.358 296.744 469.611 296.642 468.859 296.615H468.501C466.082 296.503 463.691 297.173 461.684 298.527L461.547 298.641C458.004 300.85 455.191 304.053 453.458 307.85C449.314 316.845 450.396 327.135 458.005 333.922ZM465.523 300.279C469.674 299.449 473.985 301.863 477.542 303.851C482.393 306.563 484.793 309.579 485.699 315.078C486.461 319.884 486.948 325.368 484.557 329.809C483.402 331.893 481.694 333.617 479.622 334.793C477.55 335.969 475.193 336.551 472.812 336.473C462.529 336.039 453.656 326.503 454.836 316.243C455.522 310.196 459.658 302.61 465.523 300.279V300.279Z" fill="#231F20"/>
<path d="M451.241 343.945C457.784 349.399 466.353 351.661 474.708 352.194C482.95 352.72 489.858 351.067 495.837 345.095C506.02 334.935 508.45 318.247 502.151 305.428C495.723 292.365 481 283.835 466.444 285.008C449.04 286.409 438.651 303.516 440.091 319.839C440.563 329.024 444.226 338.103 451.241 343.945ZM447.197 301.627C450.495 295.678 455.979 290.964 462.666 289.349C475.386 286.302 489.439 293.043 496.5 303.706C499.787 308.824 501.523 314.784 501.496 320.866C501.469 326.949 499.68 332.893 496.347 337.981C492.227 344.181 486.225 348.127 478.684 348.203C471.448 348.279 463.809 346.946 457.495 343.283C444.31 335.666 443.023 320.143 445.049 306.563C445.609 304.854 446.328 303.202 447.197 301.627Z" fill="#231F20"/>
<path d="M462.385 293.774C462.477 293.708 462.546 293.614 462.582 293.506C462.617 293.398 462.617 293.281 462.581 293.173C462.546 293.064 462.476 292.971 462.383 292.905C462.29 292.839 462.179 292.805 462.065 292.807C454.981 293.089 449.497 301.338 448.278 307.545C448.187 308.002 448.842 308.109 448.972 307.682C449.998 304.342 451.829 301.306 454.303 298.839C456.725 296.448 459.62 295.534 462.385 293.774Z" fill="#231F20"/>
<path d="M466.65 293.096C468.264 293.226 469.856 293.637 471.471 293.729C471.958 293.729 472.027 293.035 471.646 292.837C470.092 292.179 468.378 291.991 466.718 292.297C466.269 292.335 466.162 293.058 466.65 293.096Z" fill="#231F20"/>
<path d="M487.824 337.494C487.512 337.913 487.976 338.576 488.456 338.256C496.012 332.863 497.292 321.499 493.247 313.661C493.102 313.364 492.638 313.608 492.737 313.905C495.662 322.466 493.087 330.532 487.824 337.494Z" fill="#231F20"/>
<path d="M482.355 339.52C481.35 339.848 480.497 340.609 479.491 340.982C478.431 341.393 477.3 341.59 476.163 341.561C475.752 341.561 475.729 342.186 476.117 342.27C477.372 342.574 478.684 342.547 479.926 342.193C480.992 341.866 482.424 341.18 482.888 340.099C482.928 340.023 482.943 339.936 482.931 339.851C482.92 339.766 482.882 339.686 482.824 339.623C482.766 339.56 482.69 339.516 482.606 339.498C482.522 339.479 482.435 339.487 482.355 339.52Z" fill="#231F20"/>
</g>
<defs>
<clipPath id="clip0_701_81">
<rect width="457" height="457" fill="white" transform="translate(175 175)"/>
</clipPath>
</defs>
</svg>
