<svg width="875" height="942" viewBox="0 0 875 942" fill="none" xmlns="http://www.w3.org/2000/svg">
<path d="M410.42 342.16C422.88 327.7 592.25 338.16 592.25 338.16C592.25 338.16 435.33 302.83 435.33 269.91C435.33 236.99 547.41 174.35 547.41 174.35C547.41 174.35 398 228.93 383.86 212.87C367.86 194.68 405.44 85.2 405.44 85.2C405.44 85.2 336.78 192.54 310 192C270.15 191.19 234.45 66.73 234.45 66.73C234.45 66.73 248.56 206.45 215.35 220.9C182.14 235.35 65.87 166.3 65.87 166.3C65.87 166.3 151.39 246.6 144.74 273.1C138.09 299.6 7.74 321.1 7.74 321.1C7.74 321.1 157.19 320.47 161.34 356.6C165.49 392.73 77.49 497.94 77.49 497.94C77.49 497.94 205.35 397.56 236.07 406.4C266.79 415.24 313.28 533.27 313.28 533.27C313.28 533.27 304.02 436.1 313.77 398.32C322 419.9 334 448.7 340.68 452.17C351.48 457.79 386.35 445.74 386.35 445.74L403 510C403 510 418.24 426.48 412.28 419.26C406.32 412.04 363.15 421.66 363.15 421.66L360.94 383.85C417.39 396.85 490.18 452.98 490.18 452.98C490.18 452.98 398 356.61 410.42 342.16Z" fill="#88E0FF"/>
<path d="M313.28 536.32C312.668 536.326 312.068 536.144 311.562 535.799C311.057 535.454 310.668 534.962 310.45 534.39C297.67 502 259.24 416.23 235.23 409.33C228.57 407.41 208.23 410.33 146.96 451.39C111.66 475.04 79.69 500.09 79.38 500.34C78.7869 500.789 78.0502 501.005 77.3086 500.949C76.567 500.893 75.8715 500.567 75.353 500.034C74.8345 499.501 74.5287 498.796 74.4932 498.054C74.4576 497.311 74.6948 496.58 75.16 496C75.37 495.74 97.34 469.43 118.5 439.07C153.45 388.94 159.44 366.76 158.32 356.98C156.83 343.98 129.95 333.8 82.65 328.36C57.779 325.673 32.7855 324.278 7.77 324.18V324.18C7.37275 324.212 6.97306 324.166 6.59373 324.043C6.21441 323.921 5.86289 323.725 5.55924 323.467C5.2556 323.209 5.00577 322.894 4.82402 322.539C4.64228 322.184 4.53217 321.797 4.5 321.4C4.46783 321.003 4.51421 320.603 4.63651 320.224C4.7588 319.844 4.95461 319.493 5.21276 319.189C5.73411 318.576 6.47772 318.195 7.28 318.13C7.6 318.07 40.14 312.66 73.05 304.13C129.65 289.41 140.42 277.94 141.81 272.41C143.2 266.88 140.37 251.49 105.55 211.86C85.34 188.86 64.02 168.77 63.8 168.57C63.4822 168.33 63.2147 168.03 63.0128 167.687C62.8109 167.344 62.6786 166.965 62.6233 166.571C62.5681 166.177 62.591 165.775 62.6908 165.39C62.7906 165.005 62.9653 164.643 63.205 164.325C63.4447 164.007 63.7446 163.74 64.0876 163.538C64.4306 163.336 64.8101 163.204 65.2043 163.148C65.5985 163.093 65.9997 163.116 66.385 163.216C66.7703 163.316 67.1322 163.49 67.45 163.73C67.74 163.9 96.79 181.11 129.45 196.33C183.29 221.38 205.19 222.03 214.08 218.16C226.3 212.84 233.47 184.51 234.25 138.39C234.511 114.56 233.553 90.7321 231.38 67C231.229 66.2043 231.4 65.3812 231.856 64.7117C232.311 64.0422 233.014 63.5812 233.81 63.43C234.606 63.2788 235.429 63.4499 236.098 63.9056C236.768 64.3613 237.229 65.0643 237.38 65.86C243.679 86.9704 251.263 107.676 260.09 127.86C277.72 167.53 295 188.65 310 189C315.68 189.09 330.43 182.51 365.32 137C385.52 110.64 402.68 83.88 402.85 83.61C403.2 82.8873 403.823 82.3332 404.582 82.0697C405.34 81.8063 406.172 81.8549 406.895 82.205C407.618 82.5551 408.172 83.1779 408.435 83.9365C408.699 84.6951 408.65 85.5273 408.3 86.25C408.21 86.52 398.86 113.86 391.58 143.05C379.06 193.26 382.79 207.12 386.12 210.92C387 211.92 391.64 214.83 414.81 210.69C428.81 208.17 447.43 203.49 470.04 196.76C508.63 185.28 545.97 171.66 546.35 171.53C547.075 171.192 547.905 171.156 548.657 171.429C549.409 171.703 550.022 172.265 550.36 172.99C550.698 173.715 550.734 174.545 550.46 175.297C550.187 176.049 549.625 176.662 548.9 177C548.62 177.16 520.66 192.83 493.09 212.29C457.81 237.19 438.38 257.65 438.38 269.9C438.38 276.76 448.3 291.55 514.74 313.48C553.39 326.23 592.53 335.09 592.92 335.18C593.314 335.236 593.693 335.37 594.035 335.573C594.378 335.776 594.677 336.044 594.915 336.363C595.154 336.681 595.328 337.044 595.426 337.429C595.525 337.815 595.546 338.216 595.49 338.61C595.434 339.004 595.3 339.383 595.097 339.725C594.894 340.068 594.626 340.367 594.307 340.605C593.989 340.844 593.626 341.018 593.241 341.116C592.855 341.215 592.454 341.236 592.06 341.18C591.64 341.18 549.26 338.57 505.93 337.78C425.81 336.31 414.34 342.28 412.73 344.15C412.11 344.87 407.79 352.62 447.93 401.02C469.1 426.54 492.1 450.62 492.33 450.86C492.863 451.415 493.167 452.151 493.181 452.92C493.194 453.69 492.916 454.436 492.403 455.009C491.889 455.583 491.177 455.94 490.411 456.011C489.645 456.081 488.88 455.86 488.27 455.39C487.56 454.84 418.75 402.13 364.17 387.79L365.94 417.94C370.07 417.1 377.35 415.72 385.04 414.72C406.97 411.86 412.35 414.6 414.58 417.31C416.07 419.11 419.16 422.86 412.84 467.75C409.84 489.34 405.99 510.32 405.95 510.53C405.887 511.259 405.559 511.939 405.029 512.443C404.499 512.948 403.803 513.241 403.072 513.268C402.341 513.295 401.626 513.054 401.06 512.59C400.494 512.126 400.117 511.472 400 510.75L384.21 449.66C374.87 452.66 349.27 460.08 339.27 454.87C337.21 453.8 331.27 450.68 314.74 409.22C308.63 451 316.23 532.1 316.32 533C316.389 533.733 316.191 534.466 315.763 535.064C315.335 535.663 314.705 536.088 313.99 536.26C313.756 536.305 313.518 536.325 313.28 536.32V536.32ZM231.73 402.81C233.479 402.786 235.223 403.008 236.91 403.47C250.5 407.38 268 430.36 288.91 471.77C296.82 487.44 303.78 502.93 308.67 514.3C306.5 483.85 303.61 425.44 310.8 397.56C310.929 396.908 311.272 396.317 311.774 395.88C312.276 395.444 312.908 395.187 313.572 395.149C314.236 395.111 314.894 395.295 315.442 395.672C315.99 396.048 316.397 396.597 316.6 397.23C333.84 442.36 340.46 448.62 342.08 449.47C349.08 453.12 372.33 447.35 385.34 442.86C385.739 442.726 386.161 442.675 386.581 442.709C387 442.743 387.408 442.863 387.78 443.06C388.154 443.261 388.482 443.537 388.743 443.871C389.005 444.205 389.194 444.589 389.3 445L402.36 495.55C403.64 487.9 405.25 477.91 406.69 467.74C412.26 428.45 410.35 422.1 409.85 421.17C409.49 420.82 406.05 418.17 385.85 420.78C374.58 422.25 363.9 424.63 363.79 424.65C363.358 424.754 362.909 424.761 362.475 424.67C362.04 424.579 361.631 424.393 361.277 424.126C360.923 423.858 360.633 423.515 360.428 423.121C360.223 422.728 360.107 422.294 360.09 421.85L357.84 384C357.815 383.527 357.899 383.054 358.086 382.619C358.274 382.183 358.559 381.797 358.92 381.49C359.28 381.182 359.707 380.963 360.168 380.852C360.629 380.74 361.109 380.74 361.57 380.85C385.31 386.32 414.48 399.72 448.28 420.68C455.49 425.14 462.15 429.5 467.98 433.44C460.49 425.1 451.73 415.12 443.26 404.91C403.72 357.25 403.71 345.26 408.11 340.15C410.5 337.38 416.72 333.99 443.91 332.37C459.58 331.43 480.49 331.19 506.06 331.66C525.87 332.02 545.47 332.76 560.99 333.46C547.06 329.75 529.9 324.87 512.83 319.24C458.63 301.35 432.28 285.24 432.28 269.87C432.28 261.4 438.28 251.27 450.69 238.87C460.11 229.46 473.2 218.81 489.61 207.23C500.24 199.73 510.93 192.79 520.09 187.06C506.42 191.69 489.23 197.32 471.8 202.51C448.97 209.3 430.17 214.04 415.9 216.59C390.77 221.08 384.35 218.02 381.57 214.85C377.28 209.97 375.93 200.18 377.45 184.91C378.59 173.42 381.37 158.79 385.7 141.44C389.02 128.12 392.77 115.19 395.88 104.99C389.07 114.99 379.98 127.83 370.18 140.61C342.13 177.21 322.49 195 310.18 195.01H309.92C292.11 194.65 273.46 172.87 254.48 130.27C248.38 116.59 243.22 102.85 239.34 91.73C240.07 104.73 240.67 121.45 240.34 138.42C239.98 159.95 238.27 177.76 235.27 191.34C231.27 209.34 225.15 219.91 216.51 223.67C212.484 225.258 208.176 226.01 203.85 225.88C187.12 225.88 161.32 217.81 126.85 201.76C110.85 194.31 95.75 186.4 84.38 180.21C91.88 187.82 101.09 197.48 110.09 207.72C138.45 240 150.76 261.62 147.7 273.81C144.64 286 120.68 298 74.52 310C61.12 313.49 47.77 316.46 36.61 318.76C50.03 319.33 66.69 320.38 83.34 322.29C105.55 324.85 123.47 328.43 136.59 332.95C154.18 339 163.27 346.63 164.38 356.27C166.19 372.02 152.43 401.06 123.48 442.58C113.48 456.88 103.37 470.29 95.37 480.53C107.98 471.14 125.37 458.53 143.57 446.33C187.14 417.13 216.12 402.81 231.73 402.81Z" fill="#231F20"/>
<path d="M158.531 286.156C160.25 284.5 163.359 283.672 167.859 283.672C170.672 283.672 173.031 283.953 174.938 284.516C176.844 285.078 178.266 285.672 179.203 286.297C180.172 286.922 180.656 287.609 180.656 288.359C180.656 290.078 178.656 291.781 174.656 293.469C174.062 293.75 172.5 294.328 169.969 295.203C167.469 296.047 165.781 296.625 164.906 296.938C163 297.656 161.734 298.219 161.109 298.625C161.109 298.781 161.172 298.922 161.297 299.047C161.422 299.141 161.719 299.328 162.188 299.609C162.656 299.859 163.359 300.234 164.297 300.734C165.234 301.203 166.531 301.891 168.188 302.797C173.125 305.484 178.203 308.359 183.422 311.422C183.672 311.609 184 311.875 184.406 312.219C184.812 312.531 185.016 312.891 185.016 313.297C185.016 313.672 184.891 313.938 184.641 314.094C184.391 314.25 184.094 314.359 183.75 314.422C183.406 314.516 183.047 314.562 182.672 314.562H181.734C181.109 314.562 179.797 313.891 177.797 312.547C175.828 311.203 174.109 310.031 172.641 309.031C171.203 308.031 169.734 307.062 168.234 306.125C164.703 303.844 161.906 302.359 159.844 301.672V312.406C159.844 313.031 159.312 313.344 158.25 313.344H157.734C157.078 313.344 156.594 313.016 156.281 312.359C155.844 311.359 155.625 309.516 155.625 306.828L155.766 297.406C155.766 292.781 155.562 288.719 155.156 285.219C155.906 283.938 156.828 283.984 157.922 285.359C158.172 285.672 158.375 285.938 158.531 286.156ZM174.375 286.719L171.328 286.672C164.266 286.672 160.203 287.484 159.141 289.109C158.828 289.547 158.672 290.109 158.672 290.797C158.672 291.453 158.703 292.031 158.766 292.531C158.922 293.812 159.281 294.734 159.844 295.297C159.938 295.328 160.094 295.344 160.312 295.344C160.562 295.344 161 295.281 161.625 295.156C162.281 295.031 163.141 294.812 164.203 294.5C165.297 294.156 166.453 293.75 167.672 293.281C168.891 292.812 170.062 292.328 171.188 291.828C174.719 290.234 176.484 288.938 176.484 287.938C176.484 287.375 175.781 286.969 174.375 286.719ZM198.047 310.719C200.797 310.719 204.938 309.469 210.469 306.969C210.812 306.969 211.094 307.094 211.312 307.344C211.531 307.562 211.641 307.828 211.641 308.141C210.391 310.266 208 311.922 204.469 313.109C200.938 314.297 197.641 314.5 194.578 313.719C191.109 312.812 189 310.859 188.25 307.859C188.188 307.266 188.156 306.469 188.156 305.469C188.156 304.469 188.406 303.156 188.906 301.531C189.438 299.875 190.328 298.312 191.578 296.844C192.828 295.375 194.297 294.219 195.984 293.375C197.672 292.531 199.469 292.109 201.375 292.109C203.188 292.109 205.219 292.734 207.469 293.984C208.531 294.578 209.375 295.25 210 296C210.625 296.75 210.938 297.516 210.938 298.297C210.938 298.516 210.922 298.734 210.891 298.953C210.828 300.859 209.906 302.062 208.125 302.562C207.344 302.781 206.438 302.891 205.406 302.891L198.656 302.609C196.406 302.609 194.688 303.094 193.5 304.062C192.812 304.594 192.328 305.391 192.047 306.453C192.828 309.297 194.828 310.719 198.047 310.719ZM206.391 296.234C205.703 295.734 204.984 295.375 204.234 295.156C203.484 294.938 202.859 294.828 202.359 294.828C201.859 294.828 201.047 295 199.922 295.344C198.797 295.656 197.797 296.016 196.922 296.422C194.766 297.422 193.688 298.469 193.688 299.562C196.188 299.781 198.062 299.891 199.312 299.891C202.781 299.891 205.125 299.594 206.344 299C207.094 298.688 207.469 298.297 207.469 297.828C207.469 297.266 207.109 296.734 206.391 296.234ZM230.484 301.906C233.922 301.906 235.641 302.781 235.641 304.531C235.641 305.844 234.688 307.375 232.781 309.125C229.938 311.719 226.109 313.797 221.297 315.359C221.078 315.359 220.828 315.141 220.547 314.703C220.297 314.266 220.094 313.938 219.938 313.719C219.812 313.469 219.719 313.312 219.656 313.25C223.25 312.062 226.203 310.625 228.516 308.938C230.078 307.812 230.859 306.891 230.859 306.172C230.859 305.453 229.938 305.094 228.094 305.094C226.25 305.094 223.547 305.531 219.984 306.406C218.359 306.344 216.953 305.766 215.766 304.672C214.734 303.703 214.219 302.734 214.219 301.766C214.219 300.766 214.5 299.859 215.062 299.047C215.625 298.203 216.375 297.422 217.312 296.703C218.25 295.984 219.344 295.328 220.594 294.734C223.656 293.266 226.828 292.531 230.109 292.531C231.078 292.531 232.016 292.625 232.922 292.812C233.672 292.812 234.109 293.141 234.234 293.797C234.359 294.453 234.422 295.531 234.422 297.031C232.578 296.188 230.5 295.766 228.188 295.766C225.312 295.766 222.938 296.344 221.062 297.5C219.125 298.625 218.125 300.094 218.062 301.906C218.062 302.781 218.703 303.219 219.984 303.219L223.406 302.844C226.344 302.219 228.703 301.906 230.484 301.906ZM243.047 295.203C247.297 293.734 250.969 293 254.062 293C258 293 260.625 294.031 261.938 296.094C262.531 297.062 262.828 298.109 262.828 299.234C262.828 300.797 262.328 302.406 261.328 304.062C260.359 305.719 259.062 307.219 257.438 308.562C253.656 311.656 249.062 313.578 243.656 314.328C243.656 314.672 243.656 315.219 243.656 315.969C243.688 316.75 243.703 317.609 243.703 318.547C243.734 319.484 243.75 320.484 243.75 321.547C243.781 322.609 243.812 323.625 243.844 324.594C243.938 327 244 328.375 244.031 328.719C244.094 329.062 244.125 329.344 244.125 329.562C244.125 330.344 243.875 330.922 243.375 331.297C242.875 331.703 242.219 331.906 241.406 331.906C241.25 331.906 241.094 331.906 240.938 331.906L240.188 294.219C240.469 293.812 240.844 293.625 241.312 293.656C241.781 293.688 242.156 293.812 242.438 294.031C242.719 294.25 242.922 294.641 243.047 295.203ZM256.734 296.844C255.703 296.312 254.594 296.047 253.406 296.047C252.25 296.047 251.094 296.156 249.938 296.375C247.312 296.875 245.375 297.984 244.125 299.703C243.562 300.516 243.281 301.516 243.281 302.703C243.281 302.828 243.281 302.953 243.281 303.078V311.188C249.719 309.75 254.281 307.75 256.969 305.188C258.531 303.719 259.312 302.203 259.312 300.641C259.312 298.984 258.453 297.719 256.734 296.844ZM266.438 305.094C266.438 301.406 268.031 298.438 271.219 296.188C273.75 294.406 276.797 293.328 280.359 292.953C280.547 292.953 280.984 292.953 281.672 292.953C282.359 292.953 283.281 293.156 284.438 293.562C287 294.438 288.75 295.984 289.688 298.203C290.062 299.078 290.25 299.828 290.25 300.453C290.25 301.047 290.234 301.469 290.203 301.719C290.203 305.625 288.719 308.703 285.75 310.953C283 313.016 279.562 314.047 275.438 314.047C272.469 314.047 270.219 313.359 268.688 311.984C267.188 310.609 266.438 308.312 266.438 305.094ZM269.672 306.219C269.672 308.156 270.188 309.469 271.219 310.156C272 310.656 273.312 310.906 275.156 310.906C277 310.906 278.625 310.766 280.031 310.484C281.438 310.203 282.688 309.719 283.781 309.031C286.125 307.531 287.297 305.203 287.297 302.047C287.297 300.172 286.797 298.641 285.797 297.453C284.703 296.172 283.266 295.531 281.484 295.531C280.266 295.75 279.031 295.984 277.781 296.234C276.562 296.484 275.406 296.969 274.312 297.688C271.938 299.219 270.391 302.062 269.672 306.219ZM310.547 303.734C310.547 300.016 310.344 297.281 309.938 295.531C310.188 295.062 309.812 294.828 308.812 294.828C307.75 294.828 306.375 295.094 304.688 295.625C303 296.156 301.625 296.688 300.562 297.219C298.031 298.438 296.625 299.625 296.344 300.781V313.531H293.203C292.797 312.469 292.594 309.484 292.594 304.578C292.594 300.203 292.672 296.984 292.828 294.922C293.016 292.859 293.156 291.688 293.25 291.406C294.062 290.875 294.719 290.609 295.219 290.609C296 290.609 296.391 291.531 296.391 293.375C296.391 294.094 296.344 294.797 296.25 295.484C296.188 296.141 296.156 296.594 296.156 296.844C301.219 293.125 305.141 291.266 307.922 291.266C311.078 291.266 312.875 293.812 313.312 298.906C313.5 300.688 313.594 303.156 313.594 306.312L313.547 310.016C313.547 311.391 313.578 312.719 313.641 314C313.328 314.188 313.078 314.281 312.891 314.281C312.797 314.25 312.594 314.203 312.281 314.141C311.969 314.078 311.562 314.031 311.062 314C310.75 312.75 310.578 311.484 310.547 310.203C310.516 308.891 310.5 307.688 310.5 306.594L310.547 303.734ZM332.297 301.906C335.734 301.906 337.453 302.781 337.453 304.531C337.453 305.844 336.5 307.375 334.594 309.125C331.75 311.719 327.922 313.797 323.109 315.359C322.891 315.359 322.641 315.141 322.359 314.703C322.109 314.266 321.906 313.938 321.75 313.719C321.625 313.469 321.531 313.312 321.469 313.25C325.062 312.062 328.016 310.625 330.328 308.938C331.891 307.812 332.672 306.891 332.672 306.172C332.672 305.453 331.75 305.094 329.906 305.094C328.062 305.094 325.359 305.531 321.797 306.406C320.172 306.344 318.766 305.766 317.578 304.672C316.547 303.703 316.031 302.734 316.031 301.766C316.031 300.766 316.312 299.859 316.875 299.047C317.438 298.203 318.188 297.422 319.125 296.703C320.062 295.984 321.156 295.328 322.406 294.734C325.469 293.266 328.641 292.531 331.922 292.531C332.891 292.531 333.828 292.625 334.734 292.812C335.484 292.812 335.922 293.141 336.047 293.797C336.172 294.453 336.234 295.531 336.234 297.031C334.391 296.188 332.312 295.766 330 295.766C327.125 295.766 324.75 296.344 322.875 297.5C320.938 298.625 319.938 300.094 319.875 301.906C319.875 302.781 320.516 303.219 321.797 303.219L325.219 302.844C328.156 302.219 330.516 301.906 332.297 301.906ZM344.578 291.969C344.984 297.812 345.328 304.578 345.609 312.266C345.422 313.234 344.672 313.719 343.359 313.719C343.016 313.719 342.656 313.656 342.281 313.531C341.938 313.375 341.719 313.172 341.625 312.922V291.969H344.578ZM340.219 285.594C340.219 284.5 340.859 283.953 342.141 283.953C342.984 283.953 343.672 284.141 344.203 284.516C344.297 284.859 344.344 285.203 344.344 285.547C344.344 285.859 344.219 286.172 343.969 286.484C343.719 286.797 343.344 286.953 342.844 286.953C342.344 286.953 341.844 286.844 341.344 286.625C340.844 286.375 340.469 286.031 340.219 285.594ZM348.047 295.859C347.984 295.703 347.953 295.531 347.953 295.344C347.953 295.125 348.031 294.844 348.188 294.5C348.344 294.156 348.562 293.859 348.844 293.609C349.156 293.359 349.484 293.25 349.828 293.281C350.203 293.281 350.5 293.5 350.719 293.938L358.594 308.562C358.844 308.188 359.234 307.5 359.766 306.5C360.328 305.469 360.953 304.312 361.641 303.031C362.359 301.75 363.094 300.422 363.844 299.047C364.625 297.641 365.344 296.359 366 295.203C367.5 292.547 368.391 291.219 368.672 291.219C369.328 291.219 369.797 291.469 370.078 291.969C370.391 292.438 370.547 292.797 370.547 293.047C370.547 293.297 370.547 293.469 370.547 293.562C368.797 297.375 367.172 300.891 365.672 304.109C364.203 307.328 363.219 309.422 362.719 310.391C362.25 311.328 361.828 312.078 361.453 312.641C360.797 313.609 360.156 314.094 359.531 314.094C358.906 314.094 358.188 313.609 357.375 312.641C356.562 311.641 355.641 310.312 354.609 308.656C352.797 305.656 350.609 301.391 348.047 295.859ZM382.078 310.719C384.828 310.719 388.969 309.469 394.5 306.969C394.844 306.969 395.125 307.094 395.344 307.344C395.562 307.562 395.672 307.828 395.672 308.141C394.422 310.266 392.031 311.922 388.5 313.109C384.969 314.297 381.672 314.5 378.609 313.719C375.141 312.812 373.031 310.859 372.281 307.859C372.219 307.266 372.188 306.469 372.188 305.469C372.188 304.469 372.438 303.156 372.938 301.531C373.469 299.875 374.359 298.312 375.609 296.844C376.859 295.375 378.328 294.219 380.016 293.375C381.703 292.531 383.5 292.109 385.406 292.109C387.219 292.109 389.25 292.734 391.5 293.984C392.562 294.578 393.406 295.25 394.031 296C394.656 296.75 394.969 297.516 394.969 298.297C394.969 298.516 394.953 298.734 394.922 298.953C394.859 300.859 393.938 302.062 392.156 302.562C391.375 302.781 390.469 302.891 389.438 302.891L382.688 302.609C380.438 302.609 378.719 303.094 377.531 304.062C376.844 304.594 376.359 305.391 376.078 306.453C376.859 309.297 378.859 310.719 382.078 310.719ZM390.422 296.234C389.734 295.734 389.016 295.375 388.266 295.156C387.516 294.938 386.891 294.828 386.391 294.828C385.891 294.828 385.078 295 383.953 295.344C382.828 295.656 381.828 296.016 380.953 296.422C378.797 297.422 377.719 298.469 377.719 299.562C380.219 299.781 382.094 299.891 383.344 299.891C386.812 299.891 389.156 299.594 390.375 299C391.125 298.688 391.5 298.297 391.5 297.828C391.5 297.266 391.141 296.734 390.422 296.234ZM400.172 310.859C401.484 310.859 402.281 310.984 402.562 311.234C402.875 311.484 403.031 311.75 403.031 312.031C402.688 313.281 401.938 314.031 400.781 314.281C400.594 314.312 400.391 314.328 400.172 314.328C399.953 314.328 399.672 314.266 399.328 314.141C399.016 314.016 398.781 313.797 398.625 313.484C398.281 312.703 398.797 311.828 400.172 310.859ZM402.375 271.766C402.188 272.578 402.094 277.656 402.094 287C402.094 296.312 401.859 301.672 401.391 303.078H398.25C398.25 299.859 398.375 295.828 398.625 290.984C399.062 281.578 399.281 275.234 399.281 271.953L402.375 271.766Z" fill="black"/>
<path d="M783.8 673.83C790.435 676.881 797.317 679.366 804.37 681.26C811.8 683.26 818.86 683.02 826.37 683.7C834.32 669.82 840.37 654.7 845.23 639.51C841.438 641.018 837.439 641.946 833.37 642.26C822.43 643.14 810.94 640.53 800.7 636.85C790.696 633.275 781.31 628.164 772.88 621.7C769.543 619.244 766.485 616.431 763.76 613.31C762.27 622.78 760.84 632.25 759.35 641.71C759.14 643.05 758.94 644.39 758.73 645.71C761.18 659.28 771.28 668.12 783.8 673.83Z" fill="#F7941E"/>
<path d="M537 756C535.779 751.752 534.203 747.614 532.29 743.63C531.13 741.22 528.73 734.87 526.39 733.43C520.39 729.71 520.39 741.2 520.47 744.43C520.58 748.51 521.06 752.61 521.47 756.67C522.283 765.45 523.233 774.22 524.32 782.98C526.32 799.58 529.27 816.04 531.75 832.58C538.417 831.913 545.117 831.383 551.85 830.99C548.65 814.243 545.463 797.487 542.29 780.72C540.73 772.43 539.39 764.05 537 756Z" fill="#FFF200"/>
<path d="M495.91 784C495.391 782.724 494.423 781.683 493.19 781.07C491.91 779.61 490.677 779.92 489.49 782C486.82 784 486.94 783.6 487.21 786.29C487.48 788.98 488.12 791.78 488.67 794.49C489.683 799.477 490.857 804.43 492.19 809.35C494.67 818.47 498.29 827.21 501.05 836.21C505.93 835.28 510.92 834.67 515.85 834.15C512.239 826.805 509.139 819.221 506.57 811.45C503.4 802.4 500.85 792.25 495.91 784Z" fill="#FFF200"/>
<path d="M586.86 792.2C585.57 788.05 584.17 782.57 581.42 779.13C581.1 777.62 580.15 777.13 578.56 777.58C577.22 776.91 576.32 777.16 575.84 778.33C574.987 779.35 574.37 780.545 574.03 781.83C573.394 783.851 573.015 785.944 572.9 788.06C572.54 792.58 572.6 797.15 572.58 801.67C572.58 806.95 572.64 812.22 572.78 817.49C572.853 819.97 572.933 822.45 573.02 824.93C573.07 826.16 573.23 827.43 573.17 828.65C573.099 829.136 572.998 829.616 572.87 830.09C579.443 829.943 586.01 829.907 592.57 829.98C592.137 821.551 591.242 813.151 589.89 804.82C589.146 800.554 588.134 796.339 586.86 792.2V792.2Z" fill="#FFF200"/>
<path d="M635.46 767.81C635.193 764.255 634.577 760.734 633.62 757.3C633.31 756.2 632.96 755.13 632.56 754.06L627.69 751.49C626.28 751.8 624.98 754.18 624.32 755.4C621.27 760.98 621.37 768.15 620.75 774.3C620.03 781.387 619.303 788.473 618.57 795.56C617.37 807.19 615.48 818.93 615.44 830.64C620.44 830.84 625.44 831.1 630.36 831.75C632.49 817.32 634.56 802.86 635.36 788.29C635.873 781.474 635.907 774.631 635.46 767.81Z" fill="#FFF200"/>
<path d="M780.31 725.42C782.977 724 785.62 722.553 788.24 721.08C782.44 719.23 776.78 715.38 772.84 712.34C766.58 707.507 760.681 702.223 755.19 696.53C753.61 694.88 751.92 693.17 750.46 691.32C749.73 694.15 748.95 696.95 748.09 699.72C743.88 713.24 736.09 726.72 722.91 732.94C722.63 734.77 722.31 736.59 721.91 738.39C721.68 740.61 721.42 742.82 721.16 745.04C742.56 745.63 762 735.32 780.31 725.42Z" fill="#F7941E"/>
<path d="M790.87 576.54C798.075 580.379 805.779 583.196 813.76 584.91C828.6 588.09 842.55 586.63 856.87 583.13C856.99 580.87 857.06 578.61 857.06 576.35C857.06 559.24 852.35 541.45 839.37 529.45C832.96 523.53 824.51 519.52 815.66 519.45C806.08 519.38 797.93 524.67 791.29 531.08C781.83 540.22 776.63 551.5 773.18 563.55C777.06 569.31 786.32 574.1 790.87 576.54Z" fill="#F7941E"/>
<path d="M777.86 621.93C785.424 627.06 793.649 631.141 802.31 634.06C811.31 637.11 821.16 639.27 830.74 639C836.369 638.936 841.883 637.406 846.74 634.56L846.86 634.18C851.46 618.91 855.37 602.84 856.62 586.79C841 592.03 822.62 591.02 807.23 586.47C797.97 583.782 789.236 579.538 781.4 573.92C778.64 571.92 774.93 569.28 772.45 566.15C771.13 571.15 770.08 576.24 769.12 581.36C767.34 590.95 765.74 600.57 764.22 610.21C767.88 614.93 773.16 618.74 777.86 621.93Z" fill="#FFF200"/>
<path d="M759.58 697.12C763.37 700.78 767.34 704.26 771.45 707.57C775.85 711.1 780.45 714.72 785.65 716.96C787.833 717.914 790.171 718.466 792.55 718.59C797.402 715.787 802.009 712.579 806.32 709C813.625 702.559 819.839 694.978 824.72 686.55C817.36 687.91 808.72 685.81 801.84 683.83C794.076 681.642 786.552 678.681 779.38 674.99C770.19 670.2 760.59 662.14 757.79 651.93C755.96 664.08 754.1 676.38 751.22 688.32C751.94 689.32 752.76 690.18 753.56 691.07C755.47 693.14 757.52 695.15 759.58 697.12Z" fill="#FFF200"/>
<path d="M622.15 511.42C620.7 511.42 619.59 511.27 619.8 512.91C620.07 515.05 622.38 516.06 623.8 515.09C624.036 514.448 624.17 513.773 624.2 513.09C624.21 511.39 623.85 511.48 622.15 511.42Z" fill="white"/>
<path d="M320.4 773.39C317 776.15 313.6 779.01 309.94 781.44C305.86 784.14 300.14 786.72 294.94 786.52C296.953 790.362 299.666 793.794 302.94 796.64C304.503 797.999 306.175 799.226 307.94 800.31C313.696 797.766 318.988 794.282 323.6 790C326.284 787.361 328.66 784.426 330.68 781.25C332.12 779.05 333.31 776.25 335.82 775.17C336.026 775.057 336.255 774.992 336.49 774.978C336.725 774.964 336.96 775.003 337.178 775.091C337.396 775.179 337.592 775.314 337.751 775.487C337.911 775.66 338.03 775.866 338.1 776.09C340.4 782.14 331.97 790.63 327.94 794.31C323.804 798.163 318.943 801.154 313.64 803.11C331.64 810.21 353.49 802.85 368.55 791.67C388.09 777.17 401.09 756.24 412.9 735.46C409.679 715.825 407.709 696.005 407 676.12C406.76 669.31 406.59 662.49 406.45 655.67C404.062 661.617 401.238 667.379 398 672.91C391.704 683.73 384.093 693.73 375.34 702.68C358.34 720.24 337.73 734.28 316.34 745.95C305.99 751.58 293.65 755.55 291.65 768.68C291.063 772.77 291.405 776.94 292.65 780.88C295.29 780.912 297.916 780.486 300.41 779.62C304.189 777.999 307.697 775.807 310.81 773.12C313.64 770.86 316.41 768.53 319.16 766.17C321.52 764.17 323.16 762.07 326.4 761.98C326.908 761.98 327.396 762.181 327.758 762.538C328.119 762.896 328.325 763.382 328.33 763.89C328 768.24 323.55 770.82 320.4 773.39Z" fill="#F7941E"/>
<path d="M431.28 786.05C436.16 804.26 441.8 822.22 447.51 840.19C452.9 857.11 457.75 874.37 465.51 890.41C468.68 896.96 472.99 907.83 480.16 911.01C488.29 914.6 490.8 904.01 491.16 898.25C492.34 879.8 489.21 860.72 485.64 842.68C485.596 842.436 485.576 842.188 485.58 841.94C485.572 841.673 485.62 841.407 485.72 841.16C485.974 840.43 486.491 839.821 487.169 839.452C487.847 839.082 488.639 838.978 489.39 839.16C492.473 838.125 495.615 837.277 498.8 836.62C493.27 825.73 490.09 813.01 487.34 801.34C486.1 796.05 479.61 778.34 489.7 777.19C493.54 776.74 496.53 779.51 498.33 782.56C501.4 787.77 503.33 793.89 505.33 799.56C509.51 811.17 513.25 822.84 518.95 833.8C521.5 833.55 524.02 833.31 526.49 833.05L529.2 832.79C525.77 816.99 523.56 800.79 521.51 784.79C520.443 776.35 519.49 767.893 518.65 759.42C517.97 752.42 516.59 744.92 517.74 737.91C518.31 734.4 520.21 727.6 525.11 728.57C529.59 729.46 532.42 736.93 534.23 740.45C541.23 754.15 543.35 769.5 546.23 784.45C549.203 799.877 552.16 815.31 555.1 830.75C559.34 830.52 563.59 830.32 567.84 830.18C568.84 830.18 569.78 830.18 570.76 830.12C569.24 822.53 569.76 805.41 569.7 802.58C569.65 794.98 567.45 777.44 576.85 773.42C581.01 771.63 583.13 776.04 584.68 779.07C587.415 784.483 589.535 790.185 591 796.07C593.84 807.12 594.9 818.62 595.58 830.01C600.14 830.083 604.697 830.207 609.25 830.38L612.99 830.53C612.943 824.709 613.257 818.892 613.93 813.11C614.79 803.863 615.677 794.62 616.59 785.38C617.37 777.43 617.69 769.27 619.18 761.38C620.13 756.38 622.18 750.61 627.18 748.22C639.46 742.32 638.85 775.22 638.71 780.77C638.28 798.01 635.86 815.11 633.36 832.15C637.783 832.858 642.112 834.069 646.26 835.76C646.921 836.128 647.47 836.668 647.848 837.323C648.227 837.978 648.421 838.724 648.41 839.48C647.78 855.22 643.76 870.48 641.17 885.93C639.72 893.609 639.05 901.416 639.17 909.23C639.24 910.96 638.7 914.52 641.31 914.45C642.63 914.45 644.59 912.56 645.61 911.89C646.914 910.984 648.325 910.242 649.81 909.68C658.98 901.68 665.99 890.74 671.81 880.56C680.81 864.94 687.75 848.12 694.18 831.34C701.027 813.546 706.118 795.125 709.38 776.34C711 767.007 712.307 757.63 713.3 748.21C713.87 742.86 714.21 737.44 714.81 732.07C714.63 720.32 716.12 708.37 716.61 696.68C717.19 683.21 717.52 669.68 717.53 656.24C717.591 632.128 716.409 608.03 713.99 584.04C713.3 577.33 712.45 570.64 711.49 563.97C710.299 565.402 708.958 566.703 707.49 567.85C702.11 572.02 695.4 574.04 688.8 575.41C671.572 578.928 653.972 580.272 636.41 579.41C620.41 578.65 602.41 577.12 587.61 570.73C572.81 564.34 567.88 550.18 565.61 535.32C564.079 525.425 563.934 515.365 565.18 505.43C565.18 504.24 565.18 503.04 565.18 501.84C557.03 498.43 547.52 493.44 538.65 493.29C533.45 493.2 528.06 494.91 523.17 496.49C519.17 497.77 515.27 499.8 511.23 500.96C514.78 509.54 516.01 518.89 516.17 528.15C516.36 539.25 517.01 552.86 511.93 563.05C501.08 584.79 472.29 583.16 451.82 582.85C439.38 582.66 426.92 582.58 414.49 582.08C413.89 612.16 413.78 642.3 414.42 672.34C415.33 711.06 421.26 748.66 431.28 786.05ZM603.77 644.32C619.391 640.403 634.773 635.589 649.84 629.9C656.735 627.357 663.262 623.91 669.25 619.65C674.93 615.46 679.01 609.95 683.25 604.42C683.451 604.078 683.768 603.82 684.144 603.694C684.521 603.568 684.93 603.583 685.296 603.735C685.662 603.888 685.96 604.168 686.136 604.524C686.311 604.879 686.352 605.287 686.25 605.67C683.95 618.35 670.96 627.23 660.04 632.47C645.92 639.24 630.46 643.78 615.41 648C590.27 655 559.18 656.33 544.3 681C541.869 685.01 540.144 689.407 539.2 694C540.61 694.31 542.01 694.65 543.44 694.82C546.51 695.171 549.616 695.049 552.65 694.46C555.832 693.799 558.894 692.656 561.73 691.07C563.94 689.88 565.59 688.65 568.13 688.48C568.488 688.484 568.841 688.569 569.161 688.729C569.481 688.889 569.761 689.12 569.978 689.405C570.196 689.689 570.346 690.019 570.418 690.37C570.489 690.721 570.48 691.083 570.39 691.43C568.98 697.87 558.81 700.73 553.16 701.6C548.84 702.27 543.1 702.4 538.42 700.8C538.31 704.819 538.844 708.829 540 712.68C540.61 714.72 541.411 716.699 542.39 718.59C547.51 719.543 552.794 719.066 557.66 717.21C563.66 715 567.88 710.52 573.5 707.8C573.935 707.561 574.436 707.469 574.928 707.539C575.42 707.608 575.876 707.835 576.228 708.185C576.58 708.535 576.81 708.989 576.882 709.48C576.955 709.972 576.866 710.473 576.63 710.91C573.58 717.59 564.52 721.64 557.78 723.42C553.944 724.509 549.917 724.744 545.98 724.11C550.73 729.99 557.38 734.04 565.17 736.49L566.09 736.77C571.905 737.015 577.595 735.034 582 731.23C585.46 728.09 587.15 723.89 590 720.3C591.18 718.82 593.21 720.23 593.36 721.68C594 727.68 589.22 733.44 584.49 736.68C582.583 737.986 580.489 738.998 578.28 739.68C600.37 743.61 623.51 740.33 642.28 727.38C653.37 719.75 662.67 709.64 671.53 699.64C680.53 689.43 687.82 678.53 694.76 666.86C696.92 663.22 703.17 665.65 701.76 669.79C696.6 685 684.5 697.3 673.88 708.93C663.26 720.56 651.93 731.93 637.88 739.3C613.51 752 582 751.73 557 741C538.91 733.21 530 714.06 532.36 695.63C532.355 695.6 532.355 695.57 532.36 695.54C532.925 691.102 534.152 686.774 536 682.7C541 671.7 550.18 662.6 560.87 656.89C574.06 649.88 589.49 648 603.77 644.32ZM520.88 600.58C521.17 599.04 523.15 598.82 524.17 599.71C525.58 600.96 526.65 602.93 528.58 603.49C531.75 604.4 533.58 601.94 534.5 599.4C535.94 595.4 536.04 590.59 536.44 586.4C537.1 579.33 536.56 571.9 537.26 564.77C533.909 565.119 530.531 564.447 527.57 562.84C524.12 560.99 520.38 558.07 522.33 553.75C524.28 549.43 530.02 549.27 534.25 549.01C540.65 548.66 547.07 549.08 553.37 550.26C555.84 550.7 556.37 553.56 555.49 555.43C553.38 560.06 548.6 561.43 543.83 561.98C543.701 562.407 543.411 562.766 543.02 562.98L542.8 563.09C544.04 569.47 543.39 576.48 542.94 582.77C542.59 587.77 542.44 593.77 541.08 598.96C541.895 600.483 543.033 601.81 544.415 602.846C545.797 603.883 547.39 604.604 549.08 604.96C554.08 605.84 555.84 600.78 558.83 597.96C559.065 597.735 559.36 597.584 559.68 597.524C560 597.464 560.33 597.497 560.631 597.621C560.931 597.745 561.189 597.954 561.374 598.221C561.559 598.489 561.661 598.805 561.67 599.13C561.614 600.826 561.188 602.488 560.421 604.002C559.654 605.515 558.566 606.842 557.232 607.89C555.898 608.938 554.351 609.682 552.699 610.069C551.047 610.456 549.331 610.477 547.67 610.13C544.169 609.343 541.053 607.359 538.86 604.52C537.787 606.296 536.21 607.712 534.329 608.588C532.449 609.464 530.35 609.761 528.3 609.44C523.86 608.72 520 605.16 520.88 600.58Z" fill="#F7941E"/>
<path d="M632.32 471.23C618.75 470.54 603.66 467.9 591.06 474.36C588.773 475.539 586.635 476.986 584.69 478.67C584.29 479.82 583.97 480.92 583.69 481.67C582.69 484.37 581.82 487.11 581.02 489.87C579.299 495.79 578.023 501.83 577.2 507.94C576.417 514.054 576.083 520.217 576.2 526.38C576.2 527.45 576.35 528.65 576.5 529.91C576.96 531.82 577.5 533.71 578.09 535.59C580.21 542.02 583.46 548.99 588.67 553.53C593.22 557.53 599.3 559.75 605.02 561.44C618.18 565.3 632.02 565.49 645.61 565.52C653.91 565.52 662.21 565.52 670.5 565.52C677.24 565.52 684.5 566.02 690.84 563.2C699.94 559.14 704.84 550.41 707.84 541.26C706.12 531.67 704.24 522.11 702.26 512.55C699.727 500.363 697.35 488.157 695.13 475.93C689.87 474.18 684.13 473.93 678.65 473.67C663.24 472.77 647.78 472 632.32 471.23ZM627.84 522.36C624.62 525.74 619.89 527.47 615.32 525.27C613.355 524.29 611.753 522.708 610.75 520.755C609.746 518.801 609.392 516.578 609.74 514.41C609.996 512.54 610.928 510.829 612.36 509.6C612.757 508.313 613.469 507.145 614.431 506.202C615.393 505.259 616.575 504.571 617.87 504.2C622.24 502.9 628.43 503.81 630.7 508.13C631.671 510.024 632.041 512.17 631.76 514.28C631.981 515.864 631.726 517.477 631.028 518.916C630.33 520.354 629.22 521.553 627.84 522.36V522.36Z" fill="#F7941E"/>
<path d="M467.89 567.56C472.71 566.71 477.54 565.91 482.36 565.06C485.95 564.43 489.73 563.89 492.76 561.73C499.63 556.85 501.26 547.59 501.9 539.83C502.698 531.706 502.922 523.536 502.57 515.38C502.14 508.15 499.83 502 497.77 495.38C495.91 493.034 493.717 490.972 491.26 489.26C483.5 483.87 472.92 482.52 463.89 480.44C453.113 477.792 442.162 475.907 431.12 474.8C428.04 474.53 424.56 474.19 420.99 474.02C420.117 481.107 419.353 488.203 418.7 495.31C416.76 516.31 415.7 537.31 415.12 558.41C415.02 561.99 414.94 565.57 414.85 569.16C432.82 571.7 450 570.71 467.89 567.56ZM439.3 514.38C439.558 512.691 440.278 511.107 441.381 509.802C442.485 508.498 443.927 507.525 445.55 506.99C448.73 506.08 453.02 507.05 455.26 509.53C455.305 509.565 455.345 509.605 455.38 509.65V509.71C460.04 514.57 458.49 523.07 451.93 525.35C450.328 525.889 448.612 526 446.954 525.672C445.295 525.344 443.751 524.589 442.475 523.48C441.199 522.371 440.234 520.948 439.677 519.352C439.12 517.756 438.99 516.042 439.3 514.38Z" fill="#F7941E"/>
<path d="M545.13 469.75C551.13 464.75 550.49 453.39 551.31 446.45C552.25 438.52 553 430.54 554.14 422.64L550.34 422.45C546.43 422.25 542.52 422.13 538.61 422.04C539.26 430.42 539.13 438.85 539.79 447.24C540.38 454.8 540.64 463.3 545.13 469.75Z" fill="#FFF200"/>
<path d="M450.69 515.75C450.568 515.372 450.331 515.043 450.011 514.808C449.692 514.573 449.307 514.444 448.91 514.44C447.67 514.52 447.8 515.8 447.54 516.8C447.408 517.322 447.143 517.801 446.77 518.19C447.002 518.434 447.284 518.624 447.596 518.748C447.909 518.873 448.244 518.928 448.58 518.91C448.966 518.939 449.352 518.866 449.7 518.696C450.048 518.527 450.344 518.269 450.559 517.947C450.774 517.625 450.899 517.252 450.922 516.866C450.945 516.48 450.865 516.095 450.69 515.75V515.75Z" fill="white"/>
<path d="M574.55 432.19C574.61 433.84 574.55 435.5 574.69 437.19C574.76 438.02 574.83 438.84 574.91 439.67C577.18 441.29 578.48 441.17 578.83 439.3C580.36 437.38 580.95 433.22 581.56 430.83C582.11 428.68 582.4 426.43 582.92 424.27L573.82 423.74C574.212 426.542 574.455 429.362 574.55 432.19V432.19Z" fill="#FFF200"/>
<path d="M507.46 448.1C512.17 453.3 512.46 445.93 512.86 443.5C513.26 441.07 513.66 438.44 514.05 435.91C514.77 431.35 515.35 426.73 516.24 422.19C511.33 422.37 506.43 422.65 501.54 423.06C502.23 426.77 502.75 430.52 503.54 434.21C504.33 437.9 504.79 445.15 507.46 448.1Z" fill="#FFF200"/>
<path d="M477.72 470.05C486.51 472.22 495.67 475.44 502.28 481.85C506.049 485.427 508.513 490.161 509.28 495.3C513.15 492.67 517.96 491.04 522.21 489.51C527.69 487.51 533.62 485.43 539.53 485.51C545.71 485.57 551.53 488 557.29 490.06C559.57 490.88 562.65 491.57 565.29 492.75C565.34 487.3 565.71 481.66 568.11 477.06C574.69 464.47 592.53 458.49 605.64 456.42C623.23 453.65 640.92 456.14 658.44 458.16C669.64 459.45 681.71 459.92 692.84 462.88C691.573 455.42 690.373 447.943 689.24 440.45C685.97 418.51 683.48 396.45 680.41 374.45C667.49 391.38 657.6 409.82 649.41 429.51C649.41 432.17 647.28 434.75 644.12 433.51C629.7 428.07 614.48 426.18 599.17 425.16C594.76 424.87 590.33 424.61 585.91 424.34C585.67 428.75 583.99 433.47 582.61 437.46C581.72 440 580.78 443.92 577.68 444.6C568.97 446.5 571.61 427.83 571.99 423.88C572.006 423.761 572.043 423.646 572.1 423.54C567.107 423.26 562.107 422.99 557.1 422.73C556.1 433.41 554.49 444.08 553.19 454.73C552.37 461.41 551.77 468.93 545.51 472.88C545.24 473.036 544.927 473.099 544.618 473.059C544.309 473.019 544.021 472.879 543.8 472.66C539.28 466.88 538.21 459.98 537.54 452.88C536.54 442.73 535.7 432.12 536.8 421.95C530.91 421.85 525.02 421.86 519.13 422.03C518.27 429.76 516.74 437.5 515.46 445.16C514.94 448.3 514.09 453.56 509.76 453.22C504.76 452.84 503.44 445.73 502.55 442.02C500.936 435.85 499.905 429.543 499.47 423.18C484.47 424.48 468.98 426.31 454.94 432.04C453.996 432.298 452.988 432.173 452.136 431.692C451.284 431.211 450.656 430.412 450.39 429.47C447.49 414.69 444.58 399.913 441.66 385.14C438.144 393.473 435.096 401.997 432.53 410.67C430.02 419.17 428.53 428.02 426.45 436.67C425.45 445.09 423.79 453.43 422.56 461.83C428.2 462.04 433.86 462.74 439.76 463.5C452.52 465.16 465.26 467 477.72 470.05Z" fill="#F7941E"/>
<path d="M536 682.7C534.15 686.757 532.916 691.068 532.34 695.49C532.335 695.52 532.335 695.55 532.34 695.58C530 714 538.92 733.16 557 741C582 751.78 613.5 752 637.84 739.35C651.92 732.01 663.3 720.54 673.84 708.98C684.38 697.42 696.56 684.98 701.77 669.87C703.19 665.73 696.94 663.3 694.77 666.94C687.83 678.61 680.58 689.51 671.54 699.72C662.68 709.72 653.38 719.83 642.29 727.46C623.48 740.41 600.34 743.69 578.29 739.76C580.499 739.078 582.593 738.066 584.5 736.76C589.23 733.5 594.01 727.76 593.37 721.76C593.22 720.31 591.19 718.9 590.01 720.38C587.16 723.97 585.47 728.17 582.01 731.31C577.595 735.124 571.889 737.105 566.06 736.85L565.14 736.57C557.36 734 550.71 730 546 724.11C549.937 724.744 553.964 724.509 557.8 723.42C564.54 721.64 573.6 717.59 576.65 710.91C576.886 710.473 576.975 709.972 576.902 709.48C576.83 708.989 576.6 708.535 576.248 708.185C575.896 707.835 575.44 707.608 574.948 707.539C574.456 707.469 573.955 707.561 573.52 707.8C567.9 710.52 563.72 715 557.68 717.21C552.814 719.066 547.53 719.543 542.41 718.59C541.431 716.699 540.63 714.72 540.02 712.68C538.86 708.817 538.326 704.792 538.44 700.76C543.12 702.36 548.86 702.23 553.18 701.56C558.83 700.69 569 697.83 570.41 691.39C570.5 691.043 570.509 690.681 570.438 690.33C570.366 689.979 570.216 689.649 569.998 689.365C569.781 689.08 569.501 688.849 569.181 688.689C568.861 688.529 568.508 688.444 568.15 688.44C565.61 688.61 563.96 689.84 561.75 691.03C558.914 692.616 555.852 693.759 552.67 694.42C549.636 695.009 546.53 695.131 543.46 694.78C542.03 694.61 540.63 694.27 539.22 693.96C540.164 689.367 541.889 684.97 544.32 680.96C559.2 656.31 590.32 655.02 615.43 647.96C630.48 643.74 645.94 639.2 660.06 632.43C670.98 627.19 683.97 618.31 686.27 605.63C686.372 605.247 686.331 604.839 686.156 604.484C685.98 604.128 685.682 603.848 685.316 603.695C684.95 603.543 684.541 603.528 684.164 603.654C683.788 603.78 683.471 604.038 683.27 604.38C679.03 609.91 674.95 615.38 669.27 619.61C663.282 623.87 656.755 627.317 649.86 629.86C634.793 635.549 619.411 640.363 603.79 644.28C589.51 647.99 574.08 649.84 560.93 656.85C550.22 662.6 541.07 671.67 536 682.7Z" fill="#231F20"/>
<path d="M528.23 609.47C530.28 609.791 532.379 609.494 534.259 608.618C536.14 607.742 537.717 606.326 538.79 604.55C540.984 607.389 544.099 609.373 547.6 610.16C549.261 610.507 550.977 610.486 552.629 610.099C554.281 609.712 555.828 608.968 557.162 607.92C558.496 606.872 559.584 605.545 560.351 604.032C561.118 602.518 561.544 600.856 561.6 599.16C561.591 598.835 561.489 598.519 561.304 598.251C561.119 597.984 560.861 597.775 560.561 597.651C560.26 597.527 559.93 597.494 559.61 597.554C559.29 597.614 558.995 597.765 558.76 597.99C555.76 600.8 554.03 605.86 549.01 604.99C547.32 604.634 545.727 603.913 544.345 602.876C542.963 601.84 541.825 600.513 541.01 598.99C542.37 593.8 542.52 587.83 542.87 582.8C543.32 576.51 543.97 569.5 542.73 563.12L543 563C543.391 562.786 543.681 562.427 543.81 562C548.58 561.49 553.36 560.08 555.47 555.45C556.32 553.58 555.82 550.72 553.35 550.28C547.057 549.091 540.645 548.662 534.25 549C530.02 549.26 524.35 549.28 522.33 553.74C520.31 558.2 524.12 560.98 527.57 562.83C530.531 564.437 533.909 565.109 537.26 564.76C536.56 571.89 537.1 579.32 536.44 586.39C536.04 590.6 535.94 595.39 534.5 599.39C533.59 601.93 531.75 604.39 528.58 603.48C526.65 602.92 525.58 600.95 524.17 599.7C523.17 598.81 521.17 599.03 520.88 600.57C520 605.16 523.86 608.72 528.23 609.47Z" fill="#231F20"/>
<path d="M630.7 508.13C628.43 503.81 622.24 502.9 617.87 504.2C616.575 504.571 615.393 505.259 614.431 506.202C613.469 507.145 612.757 508.313 612.36 509.6C610.928 510.829 609.996 512.54 609.74 514.41C609.392 516.578 609.746 518.801 610.75 520.755C611.753 522.708 613.355 524.29 615.32 525.27C619.89 527.47 624.62 525.74 627.84 522.36C629.22 521.553 630.33 520.354 631.028 518.916C631.726 517.477 631.981 515.864 631.76 514.28C632.041 512.17 631.671 510.024 630.7 508.13ZM623.77 515.13C622.38 516.13 620.07 515.13 619.77 512.95C619.56 511.31 620.67 511.41 622.12 511.46C623.82 511.52 624.18 511.46 624.12 513.12C624.104 513.791 623.986 514.455 623.77 515.09V515.13Z" fill="#231F20"/>
<path d="M452 525.4C458.56 523.12 460.11 514.62 455.45 509.76V509.7C455.415 509.655 455.375 509.615 455.33 509.58C453.09 507.1 448.8 506.13 445.62 507.04C443.997 507.575 442.555 508.548 441.451 509.852C440.348 511.157 439.628 512.741 439.37 514.43C439.06 516.092 439.19 517.806 439.747 519.402C440.304 520.998 441.269 522.421 442.545 523.53C443.821 524.639 445.365 525.394 447.024 525.722C448.682 526.05 450.398 525.939 452 525.4V525.4ZM447.51 516.8C447.77 515.8 447.64 514.52 448.88 514.44C449.277 514.444 449.662 514.573 449.981 514.808C450.301 515.043 450.538 515.372 450.66 515.75C450.835 516.095 450.915 516.48 450.892 516.866C450.869 517.252 450.744 517.625 450.529 517.947C450.314 518.269 450.018 518.527 449.67 518.696C449.322 518.866 448.936 518.939 448.55 518.91C448.214 518.928 447.879 518.873 447.566 518.748C447.254 518.624 446.972 518.434 446.74 518.19C447.124 517.805 447.399 517.325 447.54 516.8H447.51Z" fill="#231F20"/>
<path d="M297 801.58C315.66 818.65 344 815.71 364.49 803.8C386.5 791 403 769.58 415 747.18C418.12 763.847 422.017 780.427 426.69 796.92C432.26 816.68 438.28 836.33 444.53 855.92C450.11 873.36 456.04 891.31 466.08 906.81C470.27 913.28 476.84 920.4 485.42 918.89C492.67 917.62 496.42 910.89 497.72 904.22C499.59 894.49 498.33 883.87 497.31 874.11C496.29 863.868 494.509 853.717 491.98 843.74C503.47 843.74 515.23 841.58 526.58 840.62C539.4 839.52 552.24 838.86 565.1 838.57C577.96 838.28 590.84 838.33 603.7 838.76C607.15 838.87 610.7 838.9 614.41 838.98C614.625 839.045 614.855 839.045 615.07 838.98C623.45 839.18 632.07 839.72 639.67 842.37C638.4 861.1 632.54 879.18 631.28 897.92C630.84 904.52 629.34 915.77 635.28 920.48C636.559 921.445 638.075 922.047 639.668 922.223C641.26 922.399 642.871 922.142 644.33 921.48C646.96 920.48 648.62 918.48 650.33 916.59C657.33 912.39 662.94 905.73 667.85 899.43C676.79 887.96 683.66 875.15 689.66 861.96C702.56 833.61 712.82 804.74 717.57 773.9C718.62 767.11 719.46 760.3 720.23 753.47C739.99 755.07 758.52 747.09 775.72 738.21C793.17 729.21 810.96 719.97 823.43 704.42C835.43 689.42 843.43 671.47 850.01 653.62C857.301 634.198 862.334 614.002 865.01 593.43C867.38 574.56 866.49 554.54 856.8 537.66C848.39 523 833.3 511.35 815.71 511.32C797.18 511.32 781.53 526.46 773.05 541.61C763.13 559.34 760.79 580.85 757.64 600.61C753.78 624.78 750.81 649.09 746.48 673.19C743 692 739.26 712.7 723.85 725C724.5 717.47 724.61 709.85 724.95 702.39C725.483 690.49 725.787 678.58 725.86 666.66C726.03 642.23 725.24 617.79 723.05 593.46C721.81 579.75 719.96 566.14 717.76 552.59C718.08 551.59 718.37 550.64 718.63 549.66C721.82 537.51 722.92 524.37 722.76 511.57C722.954 508.237 722.887 504.893 722.56 501.57C722.46 500.63 722.33 499.69 722.18 498.75C721.01 484.84 716.13 472.42 702.55 466.24L701.3 465.71C700.36 460.71 699.44 455.71 698.57 450.63C693.76 422.87 689.14 394.93 685.57 366.98C685.27 364.69 682.23 362.54 680.32 364.83C665.47 382.55 652.9 402.9 645.08 424.71C630.9 419.71 615.93 417.99 600.97 417.09C584.12 416.09 567.23 415.5 550.36 414.87C533.408 414.086 516.423 414.394 499.51 415.79C485.2 417.1 470.39 418.69 456.78 423.58C453.34 406.527 449.923 389.467 446.53 372.4C445.95 369.47 441.21 368.78 439.91 371.54C434.287 383.305 429.603 395.497 425.9 408C423.35 416.71 420.59 426.22 419.55 435.6C417.29 443.93 416.14 452.6 414.88 461.11L414.76 461.95C411.157 462.151 407.578 462.656 404.06 463.46C393.62 465.86 384.47 470.24 378.48 479.4C372.33 488.82 371.08 500.33 370.48 511.27C369.78 523.44 368.35 536 369.03 548.18C369.61 558.51 373.34 567.75 382.03 573.89C389.22 578.97 397.86 580.89 406.52 581.65C406.16 599.84 406.01 618.05 406.17 636.25C406.026 636.44 405.909 636.649 405.82 636.87C401.13 649.02 397.1 660.87 390.11 672.02C383.136 682.975 374.818 693.013 365.35 701.9C355.296 711.309 344.37 719.74 332.72 727.08C321.49 734.27 309.47 739.98 298.09 746.87C277.85 759.12 281 787 297 801.58ZM791.34 531.08C797.98 524.67 806.13 519.38 815.71 519.45C824.56 519.52 833.01 523.53 839.42 529.45C852.42 541.45 857.1 559.24 857.11 576.35C857.11 578.61 857.04 580.87 856.92 583.13C842.6 586.63 828.65 588.13 813.81 584.91C805.829 583.196 798.125 580.379 790.92 576.54C786.37 574.1 777.11 569.31 773.23 563.54C776.63 551.5 781.83 540.22 791.29 531.08H791.34ZM769.19 581.36C770.19 576.24 771.19 571.14 772.52 566.15C775 569.28 778.71 571.92 781.47 573.92C789.306 579.538 798.041 583.782 807.3 586.47C822.69 591.02 841.07 592.03 856.69 586.79C855.44 602.79 851.53 618.91 846.93 634.18L846.81 634.56C841.953 637.406 836.439 638.936 830.81 639C821.23 639.27 811.42 637.11 802.38 634.06C793.719 631.141 785.494 627.06 777.93 621.93C773.23 618.74 767.93 614.93 764.31 610.21C765.76 600.57 767.36 591 769.14 581.36H769.19ZM759.39 641.71C760.88 632.25 762.31 622.78 763.8 613.31C766.525 616.431 769.583 619.244 772.92 621.7C781.35 628.164 790.736 633.275 800.74 636.85C810.98 640.53 822.47 643.14 833.41 642.26C837.479 641.946 841.478 641.018 845.27 639.51C840.41 654.74 834.36 669.82 826.41 683.7C818.91 683.02 811.85 683.22 804.41 681.26C797.357 679.366 790.475 676.881 783.84 673.83C771.32 668.12 761.22 659.28 758.76 645.73C758.93 644.39 759.13 643.05 759.34 641.71H759.39ZM757.84 651.88C760.64 662.09 770.24 670.15 779.43 674.94C786.602 678.631 794.126 681.592 801.89 683.78C808.79 685.78 817.41 687.86 824.77 686.5C819.878 694.949 813.647 702.548 806.32 709C802.011 712.596 797.404 715.821 792.55 718.64C790.171 718.516 787.833 717.964 785.65 717.01C780.42 714.77 775.85 711.15 771.45 707.62C767.34 704.31 763.37 700.83 759.58 697.17C757.52 695.17 755.47 693.17 753.58 691.07C752.78 690.18 751.96 689.28 751.24 688.32C754.1 676.33 756 664 757.79 651.88H757.84ZM721.97 738.39C722.36 736.59 722.68 734.77 722.97 732.94C736.13 726.74 743.97 713.24 748.15 699.72C749.01 696.95 749.79 694.15 750.52 691.32C751.98 693.17 753.67 694.88 755.25 696.53C760.741 702.223 766.64 707.507 772.9 712.34C776.84 715.34 782.5 719.23 788.3 721.08C785.633 722.56 782.99 724.007 780.37 725.42C762.03 735.32 742.62 745.63 721.23 745.04C721.43 742.82 721.69 740.61 721.92 738.39H721.97ZM501.1 836.19C498.34 827.19 494.72 818.45 492.24 809.33C490.907 804.423 489.733 799.47 488.72 794.47C488.17 791.76 487.55 789.02 487.26 786.27C486.97 783.52 486.87 783.98 489.54 781.98C490.727 779.9 491.96 779.59 493.24 781.05C494.473 781.663 495.441 782.704 495.96 783.98C500.9 792.25 503.45 802.4 506.62 811.43C509.189 819.201 512.29 826.785 515.9 834.13C510.92 834.65 505.93 835.26 501.05 836.19H501.1ZM531.81 832.56C529.33 816.02 526.43 799.56 524.38 782.96C523.287 774.213 522.337 765.443 521.53 756.65C521.15 752.59 520.67 748.49 520.53 744.41C520.45 741.15 520.44 729.66 526.45 733.41C528.79 734.85 531.19 741.2 532.35 743.61C534.244 747.603 535.799 751.747 537 756C539.35 764.1 540.69 772.48 542.26 780.75C545.433 797.51 548.62 814.267 551.82 831.02C545.133 831.407 538.447 831.92 531.76 832.56H531.81ZM572.92 830.09C573.049 829.616 573.149 829.136 573.22 828.65C573.28 827.43 573.12 826.16 573.07 824.93C572.983 822.45 572.903 819.97 572.83 817.49C572.69 812.22 572.61 806.95 572.63 801.67C572.63 797.15 572.63 792.58 572.95 788.06C573.065 785.944 573.444 783.851 574.08 781.83C574.42 780.545 575.037 779.35 575.89 778.33C576.37 777.16 577.27 776.91 578.61 777.58C580.2 777.1 581.15 777.58 581.47 779.13C584.22 782.57 585.62 788.05 586.91 792.2C588.174 796.339 589.176 800.554 589.91 804.82C591.256 813.158 592.144 821.564 592.57 830C586.01 829.92 579.443 829.95 572.87 830.09H572.92ZM615.49 830.64C615.49 818.93 617.42 807.19 618.62 795.56C619.353 788.48 620.08 781.393 620.8 774.3C621.42 768.15 621.32 760.98 624.37 755.4C625.03 754.18 626.37 751.8 627.74 751.49L632.61 754.06C633.01 755.13 633.36 756.2 633.67 757.3C634.627 760.734 635.243 764.255 635.51 767.81C635.967 774.63 635.943 781.473 635.44 788.29C634.61 802.86 632.54 817.29 630.44 831.75C625.43 831.1 620.42 830.84 615.44 830.64H615.49ZM710.61 491C712.364 495.377 713.361 500.019 713.56 504.73C713.61 506.03 713.63 507.34 713.66 508.65C713.551 513.127 713.103 517.59 712.32 522C709.72 508.47 706.98 495 704.32 481.42C707.033 484.163 709.171 487.42 710.61 491V491ZM702.3 512.51C704.3 522.07 706.16 531.63 707.88 541.22C704.88 550.37 699.94 559.1 690.88 563.16C684.58 565.98 677.28 565.45 670.54 565.48C662.25 565.48 653.95 565.54 645.65 565.48C632.04 565.48 618.22 565.26 605.06 561.4C599.34 559.71 593.26 557.45 588.71 553.49C583.5 548.95 580.25 541.98 578.13 535.55C577.51 533.67 577 531.78 576.54 529.87C576.39 528.61 576.26 527.41 576.24 526.34C576.123 520.177 576.457 514.014 577.24 507.9C578.043 501.795 579.3 495.758 581 489.84C581.8 487.08 582.68 484.34 583.67 481.64C583.93 480.92 584.25 479.82 584.67 478.64C586.615 476.956 588.753 475.509 591.04 474.33C603.64 467.87 618.73 470.51 632.3 471.2C647.76 471.99 663.22 472.74 678.67 473.57C684.16 473.86 689.89 474.08 695.15 475.83C697.377 488.077 699.76 500.293 702.3 512.48V512.51ZM582.92 424.22C582.4 426.38 582.11 428.63 581.56 430.78C580.95 433.17 580.36 437.33 578.83 439.25C578.48 441.12 577.18 441.25 574.91 439.62C574.83 438.79 574.76 437.97 574.69 437.14C574.59 435.5 574.61 433.84 574.55 432.14C574.457 429.299 574.213 426.465 573.82 423.65L582.92 424.22ZM550.34 422.45L554.14 422.64C553 430.54 552.25 438.52 551.31 446.45C550.49 453.39 551.1 464.76 545.13 469.75C540.64 463.3 540.38 454.75 539.79 447.24C539.13 438.85 539.26 430.42 538.61 422.04C542.52 422.13 546.43 422.25 550.34 422.45V422.45ZM516.24 422.19C515.35 426.73 514.77 431.35 514.05 435.91C513.657 438.443 513.26 440.973 512.86 443.5C512.48 445.93 512.17 453.3 507.46 448.1C504.79 445.15 504.32 437.94 503.53 434.21C502.74 430.48 502.23 426.77 501.53 423.06C506.43 422.65 511.33 422.37 516.24 422.19V422.19ZM426.49 436.7C428.58 428.07 430.06 419.22 432.57 410.7C435.136 402.027 438.184 393.503 441.7 385.17C444.62 399.95 447.53 414.727 450.43 429.5C450.56 429.97 450.781 430.411 451.08 430.796C451.38 431.181 451.753 431.502 452.178 431.743C452.602 431.984 453.07 432.138 453.554 432.198C454.039 432.257 454.53 432.221 455 432.09C469 426.36 484.48 424.53 499.53 423.23C499.965 429.593 500.996 435.9 502.61 442.07C503.5 445.78 504.84 452.89 509.82 453.27C514.15 453.61 515 448.35 515.52 445.21C516.8 437.55 518.33 429.81 519.19 422.08C525.08 421.91 530.97 421.9 536.86 422C535.76 432.17 536.63 442.78 537.6 452.93C538.27 460.03 539.34 466.93 543.86 472.71C544.081 472.929 544.369 473.069 544.678 473.109C544.987 473.149 545.3 473.086 545.57 472.93C551.83 468.93 552.43 461.46 553.25 454.78C554.55 444.14 556.17 433.47 557.16 422.78C562.16 423.04 567.16 423.31 572.16 423.59C572.103 423.696 572.066 423.811 572.05 423.93C571.67 427.93 569.05 446.55 577.74 444.65C580.84 443.97 581.74 440.05 582.67 437.51C584.05 433.51 585.73 428.8 585.97 424.39C590.39 424.66 594.82 424.92 599.23 425.21C614.54 426.21 629.76 428.12 644.18 433.56C647.34 434.75 649.44 432.17 649.47 429.56C657.67 409.87 667.56 391.43 680.47 374.5C683.54 396.5 686.03 418.5 689.3 440.5C690.42 447.993 691.62 455.47 692.9 462.93C681.77 459.93 669.7 459.5 658.5 458.21C640.98 456.21 623.29 453.7 605.7 456.47C592.59 458.54 574.75 464.47 568.17 477.11C565.77 481.71 565.4 487.35 565.35 492.8C562.68 491.62 559.6 490.93 557.35 490.11C551.63 488.05 545.77 485.62 539.59 485.56C533.68 485.56 527.75 487.63 522.27 489.56C518.02 491.09 513.21 492.72 509.34 495.35C508.573 490.211 506.109 485.477 502.34 481.9C495.73 475.49 486.57 472.27 477.78 470.1C465.32 467.03 452.58 465.21 439.86 463.58C433.96 462.82 428.3 462.12 422.66 461.91C423.83 453.46 425.51 445.12 426.49 436.7ZM415.12 558.38C415.71 537.32 416.76 516.26 418.7 495.28C419.367 488.18 420.13 481.083 420.99 473.99C424.56 474.16 427.99 474.5 431.12 474.77C442.162 475.877 453.113 477.762 463.89 480.41C472.89 482.49 483.5 483.84 491.26 489.23C493.717 490.942 495.91 493.004 497.77 495.35C499.83 502 502.14 508.15 502.57 515.35C502.922 523.506 502.698 531.676 501.9 539.8C501.26 547.56 499.63 556.8 492.76 561.7C489.76 563.86 485.95 564.4 482.36 565.03C477.54 565.88 472.71 566.68 467.89 567.53C449.95 570.68 432.82 571.67 414.89 569.1C414.94 565.54 415 562 415.12 558.38ZM414.57 582.1C427 582.6 439.46 582.68 451.9 582.87C472.37 583.18 501.16 584.81 512.01 563.07C517.09 552.88 516.44 539.27 516.25 528.17C516.09 518.91 514.86 509.56 511.31 500.98C515.31 499.82 519.31 497.79 523.25 496.51C528.14 494.93 533.53 493.22 538.73 493.31C547.6 493.46 557.11 498.45 565.26 501.86C565.26 503.06 565.26 504.26 565.26 505.45C564.014 515.385 564.159 525.445 565.69 535.34C567.95 550.2 572.85 564.34 587.69 570.75C602.53 577.16 620.52 578.67 636.49 579.43C654.052 580.292 671.653 578.948 688.88 575.43C695.48 574.06 702.19 572.04 707.57 567.87C709.038 566.723 710.379 565.422 711.57 563.99C712.57 570.66 713.38 577.35 714.07 584.06C716.489 608.05 717.671 632.149 717.61 656.26C717.61 669.75 717.27 683.26 716.69 696.7C716.2 708.39 714.69 720.34 714.89 732.09C714.29 737.46 713.95 742.88 713.38 748.23C712.38 757.65 711.073 767.027 709.46 776.36C706.198 795.145 701.107 813.566 694.26 831.36C687.83 848.14 680.87 864.96 671.89 880.58C666.04 890.76 659.03 901.7 649.89 909.7C648.405 910.262 646.994 911.004 645.69 911.91C644.69 912.58 642.69 914.43 641.39 914.47C638.78 914.54 639.32 910.98 639.25 909.25C639.13 901.436 639.8 893.629 641.25 885.95C643.84 870.48 647.86 855.24 648.49 839.5C648.501 838.744 648.307 837.998 647.928 837.343C647.55 836.688 647.001 836.148 646.34 835.78C642.192 834.089 637.863 832.878 633.44 832.17C635.94 815.17 638.36 798.03 638.79 780.79C638.93 775.2 639.54 742.34 627.26 748.24C622.26 750.63 620.21 756.39 619.26 761.4C617.77 769.25 617.45 777.4 616.67 785.4C615.77 794.64 614.883 803.883 614.01 813.13C613.337 818.912 613.023 824.729 613.07 830.55L609.33 830.4C604.783 830.22 600.227 830.097 595.66 830.03C594.98 818.64 593.92 807.14 591.08 796.09C589.615 790.205 587.495 784.503 584.76 779.09C583.21 776.09 581.09 771.65 576.93 773.44C567.53 777.44 569.73 795 569.78 802.6C569.78 805.43 569.32 822.55 570.84 830.14C569.84 830.14 568.89 830.14 567.92 830.2C563.67 830.34 559.42 830.54 555.18 830.77C552.233 815.343 549.277 799.91 546.31 784.47C543.43 769.55 541.31 754.2 534.31 740.47C532.5 736.95 529.67 729.47 525.19 728.59C520.29 727.59 518.39 734.42 517.82 737.93C516.67 744.93 518.05 752.44 518.73 759.44C519.563 767.907 520.517 776.363 521.59 784.81C523.64 800.81 525.85 816.96 529.28 832.81L526.57 833.07C524.1 833.33 521.57 833.57 519.03 833.82C513.33 822.82 509.59 811.19 505.41 799.58C503.41 793.92 501.41 787.8 498.41 782.58C496.61 779.53 493.62 776.76 489.78 777.21C479.69 778.37 486.18 796.07 487.42 801.36C490.17 813.03 493.35 825.75 498.88 836.64C495.695 837.297 492.553 838.145 489.47 839.18C488.719 838.998 487.927 839.102 487.249 839.472C486.571 839.841 486.054 840.45 485.8 841.18C485.7 841.427 485.652 841.693 485.66 841.96C485.656 842.208 485.676 842.456 485.72 842.7C489.29 860.7 492.42 879.82 491.24 898.27C490.88 904.03 488.37 914.62 480.24 911.03C473.07 907.85 468.76 897.03 465.59 890.43C457.82 874.43 452.97 857.13 447.59 840.21C441.88 822.21 436.24 804.28 431.36 786.07C421.36 748.68 415.41 711.07 414.58 672.38C413.86 642.32 414 612.18 414.57 582.1ZM399.18 566.22C395.43 565.4 390.83 564.65 387.82 562.09C384.57 559.31 384.63 554.73 384.31 550.8C383.94 546.06 383.75 541.3 383.7 536.55C383.559 526.177 384.258 515.81 385.79 505.55C386.49 500.98 387.7 496.36 388.79 491.72C391.67 486.25 395.36 480.97 400.38 477.72C403.97 475.39 408.44 474.37 413.11 474.03C412.41 479.563 411.777 485.1 411.21 490.64C409.16 510.99 407.97 531.41 407.29 551.85C407.11 557.14 406.97 562.45 406.83 567.75C404.27 567.29 401.72 566.78 399.18 566.22V566.22ZM326.32 762C323.1 762.09 321.44 764.17 319.08 766.19C316.33 768.55 313.56 770.88 310.73 773.14C307.617 775.827 304.109 778.019 300.33 779.64C297.836 780.506 295.21 780.932 292.57 780.9C291.325 776.96 290.983 772.79 291.57 768.7C293.57 755.57 305.91 751.6 316.26 745.97C337.68 734.3 358.26 720.26 375.26 702.7C384.042 693.748 391.681 683.742 398 672.91C401.241 667.38 404.069 661.617 406.46 655.67C406.6 662.49 406.77 669.31 407.01 676.12C407.728 696.012 409.708 715.839 412.94 735.48C401.13 756.26 388.13 777.19 368.59 791.69C353.53 802.87 331.65 810.23 313.68 803.13C318.983 801.174 323.844 798.183 327.98 794.33C331.98 790.65 340.44 782.16 338.14 776.11C338.07 775.886 337.951 775.68 337.791 775.507C337.632 775.334 337.436 775.199 337.218 775.111C337 775.023 336.765 774.984 336.53 774.998C336.295 775.012 336.066 775.077 335.86 775.19C333.35 776.28 332.16 779.07 330.72 781.27C328.686 784.441 326.297 787.37 323.6 790C319.006 794.276 313.735 797.76 308 800.31C306.235 799.226 304.563 797.999 303 796.64C299.726 793.794 297.013 790.362 295 786.52C300.24 786.72 306 784.14 310 781.44C313.6 779 317 776.15 320.4 773.39C323.55 770.82 328 768.24 328.25 763.89C328.24 763.385 328.032 762.904 327.671 762.551C327.31 762.198 326.825 762 326.32 762V762Z" fill="#231F20"/>
</svg>
