<svg width="664" height="664" viewBox="0 0 664 664" fill="none" xmlns="http://www.w3.org/2000/svg">
<path d="M281.424 387.982C295.609 388.632 309.745 390.096 323.762 392.367C348.748 396.396 373.272 402.895 396.975 411.768C408.658 416.157 420.113 421.092 431.34 426.574C442.202 431.9 453.118 437.588 463.21 444.309C472.865 444.371 482.51 444.388 492.144 444.362C480.998 434.085 468.635 425.389 455.606 417.607C429.027 401.758 401.204 388.094 372.413 376.751C344.362 365.568 315.295 357.128 285.618 351.55C273.768 355.469 262.102 359.931 250.621 364.934C259.94 370.481 268.752 376.839 276.954 383.933C278.475 385.27 279.956 386.619 281.424 387.982Z" fill="#FFF200"/>
<path d="M386.679 349.575C409.444 360.319 431.768 372.215 452.742 386.172C462.863 392.895 472.614 400.158 481.953 407.93C490.511 415.053 499.418 422.643 506.647 431.241C507.694 427.548 508.523 423.782 509.28 419.99C505.409 415.079 501.63 410.115 497.542 405.362C492.644 399.657 487.513 394.17 482.15 388.904C463.042 370.077 441.311 354.111 417.634 341.504C405.788 335.191 393.495 329.759 380.852 325.25C368.729 321.025 356.347 317.586 343.782 314.953C347.373 321.247 350.527 327.78 353.222 334.506C364.625 338.587 375.77 344.414 386.679 349.575Z" fill="#F7941E"/>
<path d="M421.524 397.554C435.217 404.519 448.773 411.88 461.794 420.036C473.072 427.107 484.066 434.967 493.546 444.395H501.65C501.749 444.197 501.841 444 501.94 443.796C492.99 433.138 482.884 423.506 471.808 415.079C449.602 397.962 425.198 383.703 400.049 371.392C375.809 359.509 350.674 349.509 325.19 340.655C315.862 342.425 306.632 345.21 297.784 347.811C294.571 348.752 291.365 349.786 288.179 350.78C303.89 353.768 319.43 357.601 334.729 362.261C364.717 371.3 393.683 383.387 421.524 397.554Z" fill="#F7941E"/>
<path d="M443.539 393.914C455.443 401.259 466.877 409.342 477.772 418.114C486.745 425.455 495.35 433.499 502.486 442.677C503.263 441.004 503.954 439.312 504.593 437.594C494.494 427.831 485.086 417.66 474.132 408.766C455.205 393.413 434.375 380.457 412.907 368.956C401.88 363.031 390.662 357.455 379.332 352.064C370.227 347.719 360.615 343.94 351.649 339.219C351.361 339.283 351.065 339.297 350.773 339.259C343.163 338.344 335.46 338.864 327.817 340.141C340.984 344.749 354.039 349.661 366.922 355C393.446 365.961 419.253 378.673 443.539 393.914Z" fill="#FFF200"/>
<path d="M312.873 443.006C331.685 439.172 350.932 437.919 370.082 439.28C380.615 440.023 391.103 441.255 401.603 442.321C406.975 442.867 412.373 443.315 417.726 444.085C421.932 444.684 426.284 445.494 430.234 447.16C430.908 446.209 431.84 445.471 432.92 445.033C431.09 444.224 429.273 443.388 427.449 442.637C421.709 440.267 415.909 438.035 410.049 435.942C398.081 431.663 385.994 427.798 373.683 424.605C350.135 418.502 325.763 413.479 301.352 415.639C301.209 415.931 300.999 416.186 300.74 416.383C288.587 425.659 278.659 437.351 272.3 451.202C276.877 450.709 281.475 450.445 286.079 450.412C289.772 448.997 293.61 447.891 297.382 446.804C302.5 445.343 307.663 444.077 312.873 443.006Z" fill="#FFF200"/>
<path d="M320.608 455.112C323.735 454.494 327.093 454.303 329.957 453.862C334.881 453.098 339.832 452.407 344.762 451.887C354.554 450.829 364.381 450.081 374.243 449.642C384.447 449.22 394.651 449.128 404.881 449.424C409.99 449.569 415.092 449.808 420.188 450.142C423.051 450.333 426.284 450.307 429.266 450.879C429.23 450.496 429.23 450.11 429.266 449.727C429.335 449.094 429.506 448.476 429.773 447.897C424.564 446.407 419.239 445.357 413.855 444.757C407.969 444.099 402.07 443.572 396.178 442.993C376.652 441.064 357.337 439.115 337.699 440.754C328.19 441.555 318.748 443.002 309.436 445.086C302.991 446.528 296.737 448.509 290.463 450.438C300.237 450.66 309.954 451.985 319.43 454.388C319.883 454.514 320.291 454.765 320.608 455.112V455.112Z" fill="#F7941E"/>
<path d="M373.933 467.989C384.625 468.108 395.342 468.47 406.014 469.142C425.257 470.353 445.185 472.598 463.638 478.701C460.21 476.304 456.785 473.901 453.361 471.492C447.682 467.489 442.001 463.482 436.317 459.471C434.719 458.415 433.216 457.221 431.827 455.902C427.673 456.811 422.749 455.784 418.601 455.547C413.743 455.275 408.882 455.082 404.019 454.968C394.298 454.731 384.572 454.805 374.842 455.191C364.633 455.63 354.447 456.403 344.282 457.509C339.443 458.042 334.598 458.575 329.799 459.22C326.645 459.642 323.117 460.649 319.759 460.893C316.441 466.471 313.248 472.124 310.18 477.851C321.26 475.389 332.426 473.243 343.538 470.991C353.532 468.896 363.723 467.89 373.933 467.989V467.989Z" fill="#FFF200"/>
<path d="M456.686 365.125C467.262 373.211 477.23 382.063 486.508 391.61C494.658 400.023 502.756 408.976 509.491 418.654C510.07 415.501 510.584 412.327 511.084 409.161C509.326 407.693 508.141 405.54 506.693 403.637C504.367 400.6 501.984 397.614 499.543 394.677C494.522 388.621 489.227 382.801 483.658 377.218C464.058 357.596 441.427 341.258 416.633 328.831C402.742 321.872 388.186 316.362 373.407 311.609C366.007 309.226 358.548 307.001 351.063 304.907C345.671 303.38 339.812 302.274 334.387 300.417C337.485 304.545 340.311 308.871 342.847 313.367C342.871 313.405 342.893 313.444 342.913 313.485C357.745 316.119 372.386 320.575 386.455 325.928C411.641 335.521 435.298 348.725 456.686 365.125V365.125Z" fill="#FFF200"/>
<path d="M608.537 449.385C591.513 447.114 576.029 445.435 559.267 442.44C558.582 442.313 557.945 442.001 557.426 441.536C556.907 441.072 556.526 440.473 556.325 439.806L555.89 438.358C551.71 426.718 547.121 415.237 542.783 403.657C540.59 397.824 538.24 391.939 535.541 386.317C533.856 382.834 526.568 371.866 523.368 379.595C518.819 390.583 517.542 402.847 515.587 414.487C513.632 426.126 511.058 437.726 505.389 448.253C505.157 448.625 504.831 448.93 504.444 449.138C504.057 449.346 503.623 449.449 503.184 449.438C491.051 449.319 478.911 449.148 466.772 449.095C460.965 449.095 455.159 449.095 449.352 449.095C446.449 449.095 443.546 449.095 440.642 449.095C438.746 449.095 433.401 448.733 435.692 452.005C437.18 454.092 440.346 455.659 442.38 457.134C444.415 458.608 446.548 460.155 448.654 461.65C453.482 465.077 458.323 468.488 463.177 471.88C472.679 478.516 482.214 485.1 491.782 491.63C492.363 492.02 492.774 492.618 492.929 493.301C493.085 493.984 492.973 494.7 492.618 495.304C491.534 497.564 490.436 499.82 489.326 502.071L487.812 505.198C483.967 513.066 480.096 520.919 476.331 528.826C473.829 534.093 470.702 539.359 468.826 544.856C468.253 546.522 467.456 549.05 468.167 550.781C469.629 554.264 473.625 551.914 475.817 550.689C497.542 538.517 519.162 526.114 540.795 513.777C541.287 513.517 541.851 513.426 542.401 513.518C542.95 513.609 543.454 513.878 543.836 514.283C550.001 521.893 556.644 529.103 563.724 535.87C567.253 539.234 570.854 542.895 574.975 545.521C577.424 547.082 581.243 549.05 582.618 545.521C583.389 543.546 583.027 540.413 583.125 538.28C584.054 518.691 582.533 499.064 578.596 479.853C578.496 479.397 578.544 478.921 578.735 478.496C578.926 478.07 579.249 477.717 579.656 477.489C587.846 472.881 596.016 468.273 604.278 463.77C608.103 461.696 613.336 459.82 616.661 457.048C623.659 451.182 612.843 449.958 608.537 449.385ZM556.45 500.333C543.876 509.669 523.796 508.069 513.085 496.476C511.769 495.034 513.23 492.19 515.238 493.013C526.831 497.766 538.741 503.546 550.755 496.304C561.947 489.57 562.875 475.422 556.489 464.889C554.822 462.103 552.61 459.682 549.986 457.77C547.361 455.859 544.379 454.496 541.216 453.763C534.83 452.328 527.174 453.46 525.343 460.675C524.027 465.896 523.197 474.797 529.168 477.298C531.894 478.437 536.16 479.444 539.01 478.516C541.137 477.858 541.644 476.015 541.124 473.908C540.85 473.05 540.514 472.214 540.116 471.406C539.678 469.888 538.673 469.558 537.101 470.419C537.164 470.713 537.119 471.02 536.976 471.284C536.832 471.548 536.599 471.753 536.318 471.861C536.037 471.969 535.727 471.973 535.444 471.873C535.16 471.772 534.921 471.574 534.771 471.314C533.494 469.142 534.56 466.528 536.851 465.514C539.814 464.197 542.585 466.212 544.145 468.641C545.916 471.413 547.496 475.257 546.351 478.516C545.159 481.953 541.743 483.862 538.299 484.303C531.255 485.218 522.276 482.822 519.478 475.685C517.009 469.372 517.503 459.569 521.196 453.829C525.343 447.331 533.816 445.962 540.906 447.074C544.851 447.722 548.627 449.147 552.017 451.264C555.407 453.382 558.344 456.151 560.656 459.411C569.728 472.091 569.57 490.57 556.45 500.333Z" fill="#FFF200"/>
<path d="M486.996 494.79C480.241 490.213 473.517 485.589 466.824 480.919C455.937 477.533 444.814 474.96 433.546 473.223C412.683 470.136 391.281 469.188 370.207 469.313C364.967 469.298 359.732 469.643 354.539 470.346C349.397 471.097 344.322 472.216 339.233 473.256C329.285 475.297 319.344 477.502 309.351 479.365C306.472 484.803 303.713 490.289 301.076 495.824C312.395 492.212 323.935 489.336 335.625 487.213C360.022 482.892 384.899 481.968 409.549 484.468C423.039 485.784 436.422 488.009 449.747 490.465C461.518 492.631 473.974 494.185 485.093 498.878C485.729 497.518 486.364 496.155 486.996 494.79Z" fill="#F7941E"/>
<path d="M336.487 410.537C349.1 412.453 361.6 415.048 373.933 418.312C386.741 421.614 399.354 425.627 411.715 430.333C418.009 432.764 424.239 435.354 430.405 438.101C434.447 439.905 438.72 441.584 442.387 444.092C447.904 444.092 453.421 444.243 458.931 444.289H461.288C449.958 437.877 438.727 431.412 426.942 425.817C404.08 414.963 380.194 406.413 355.638 400.293C331.825 394.4 307.508 390.779 283.011 389.477C285.71 392.037 288.337 394.671 290.865 397.377C294.42 401.208 298.265 405.211 301.122 409.674C312.814 407.778 324.835 408.825 336.487 410.537Z" fill="#F7941E"/>
<path d="M621.164 448.391C617.648 445.389 612.237 445.389 607.879 444.803C602.257 444.046 596.634 443.276 591.012 442.532C581.137 441.215 571.302 439.846 561.387 438.865C561.436 438.464 561.386 438.057 561.242 437.68C556.3 424.245 550.86 411.024 544.922 398.015C542.045 391.748 539.609 384.967 535.896 379.147C533.48 375.362 529.544 371.465 524.639 371.906C519.372 372.366 517.977 378.746 516.634 382.893C514.598 389.542 513.058 396.333 512.025 403.209C511.894 403.038 511.769 402.867 511.643 402.689C509.53 399.773 507.364 396.889 505.133 394.065C500.801 388.608 496.206 383.347 491.426 378.265C481.877 368.096 471.531 358.706 460.484 350.187C437.094 332.215 410.859 318.818 383.025 309.193C374.243 306.125 365.322 303.413 356.349 300.858C347.969 298.469 338.864 294.808 330.121 294.367C329.771 294.354 329.424 294.44 329.121 294.617L329.088 294.584C327.685 293.268 325.243 294.775 326.257 296.612C329.917 303.195 334.591 309.232 338.304 315.835C341.386 321.345 344.115 327.044 346.474 332.899C346.331 332.979 346.198 333.076 346.079 333.189C329.351 332.392 312.3 337.554 296.48 342.182C278.185 347.556 260.29 354.206 242.925 362.083C240.989 362.959 240.95 366.033 242.754 367.073C253.634 373.067 263.843 380.204 273.208 388.364C277.715 392.312 282.017 396.487 286.098 400.872C289.759 404.822 292.965 409.259 296.632 413.17C282.148 423.216 271.404 437.476 264.926 453.822C264.064 455.988 266.388 457.772 268.343 457.443C283.521 454.81 299.079 455.334 314.045 458.983C305.913 472.19 298.656 485.915 292.32 500.07C291.391 502.137 293.926 504.678 296 503.967C318.801 496.034 342.591 491.293 366.692 489.879C391.972 488.365 417.041 491.011 441.919 495.396C455.382 497.766 469.708 499.458 482.644 504.171C478.128 513.895 473.638 523.632 469.049 533.322C466.383 538.964 457.963 553.968 468.858 556.831C473.96 558.148 479.313 554.027 483.5 551.743C490.333 548.016 497.114 544.205 503.908 540.38C516.416 533.336 528.892 526.219 541.433 519.208C548.511 527.998 556.273 536.216 564.646 543.783C569.254 547.944 583.639 559.623 587.503 548.392C589.202 543.454 588.642 537.108 588.721 531.933C588.813 525.969 588.636 520.004 588.227 514.053C587.391 502.727 585.674 491.484 583.092 480.425C592.967 475.159 602.842 469.892 612.671 464.441C616.207 462.466 622.066 460.577 623.652 456.422C624.758 453.532 623.442 450.3 621.164 448.391ZM342.847 313.367C340.312 308.866 337.488 304.534 334.394 300.398C339.812 302.274 345.671 303.36 351.063 304.887C358.548 307.001 366.007 309.206 373.407 311.589C388.186 316.342 402.742 321.853 416.633 328.811C441.429 341.246 464.06 357.593 483.658 377.225C489.214 382.794 494.509 388.614 499.543 394.684C501.979 397.625 504.362 400.611 506.693 403.644C508.141 405.546 509.326 407.699 511.084 409.167C510.584 412.334 510.07 415.507 509.491 418.66C502.756 408.983 494.658 400.03 486.508 391.616C477.23 382.069 467.262 373.217 456.686 365.131C435.293 348.735 411.631 335.536 386.442 325.947C372.373 320.595 357.732 316.165 342.899 313.505L342.847 313.367ZM343.722 314.933C356.287 317.566 368.67 321.006 380.793 325.23C393.435 329.739 405.729 335.172 417.574 341.484C441.252 354.092 462.983 370.057 482.091 388.884C487.437 394.151 492.567 399.637 497.483 405.342C501.571 410.089 505.383 415.059 509.221 419.971C508.497 423.763 507.667 427.528 506.587 431.221C499.346 422.624 490.439 415.033 481.893 407.91C472.554 400.138 462.803 392.875 452.683 386.152C431.709 372.195 409.385 360.299 386.619 349.555C375.711 344.407 364.565 338.581 353.104 334.499C350.428 327.777 347.293 321.246 343.722 314.953V314.933ZM350.826 339.239C351.118 339.277 351.414 339.263 351.701 339.2C360.668 343.92 370.28 347.699 379.384 352.044C390.681 357.435 401.899 363.005 412.959 368.937C434.401 380.464 455.231 393.394 474.184 408.746C485.139 417.64 494.547 427.838 504.645 437.574C503.987 439.293 503.329 440.985 502.539 442.657C495.402 433.48 486.798 425.435 477.825 418.094C466.929 409.322 455.496 401.24 443.592 393.894C419.306 378.654 393.499 365.941 367.027 354.98C354.144 349.641 341.082 344.73 327.922 340.121C335.513 338.864 343.215 338.344 350.826 339.259V339.239ZM297.823 347.771C306.671 345.171 315.901 342.386 325.23 340.615C350.727 349.47 375.849 359.47 400.089 371.353C425.224 383.663 449.628 397.949 471.847 415.04C482.923 423.467 493.029 433.098 501.979 443.756C501.88 443.96 501.788 444.158 501.689 444.355H493.546C484.066 434.961 473.072 427.1 461.794 419.997C448.773 411.84 435.218 404.48 421.524 397.515C393.683 383.387 364.717 371.3 334.769 362.222C319.469 357.562 303.93 353.729 288.218 350.74C291.405 349.713 294.611 348.713 297.823 347.771ZM281.424 387.982C279.954 386.622 278.462 385.281 276.948 383.96C268.745 376.865 259.933 370.508 250.614 364.96C262.074 359.97 273.742 355.5 285.618 351.55C315.285 357.121 344.344 365.552 372.386 376.725C401.176 388.058 428.998 401.708 455.58 417.541C468.608 425.329 480.972 434 492.117 444.303C482.462 444.303 472.817 444.285 463.184 444.25C453.091 437.528 442.176 431.84 431.314 426.514C420.109 421.024 408.654 416.089 396.949 411.708C373.253 402.857 348.737 396.378 323.762 392.367C309.745 390.096 295.609 388.632 281.424 387.982V387.982ZM290.865 397.396C288.337 394.671 285.71 392.037 283.011 389.496C307.517 390.798 331.844 394.424 355.665 400.326C380.221 406.446 404.107 414.996 426.969 425.849C438.753 431.445 450.01 437.91 461.314 444.322H458.957C453.447 444.276 447.93 444.151 442.413 444.125C438.746 441.617 434.474 439.938 430.431 438.134C424.287 435.382 418.057 432.793 411.741 430.366C399.372 425.648 386.75 421.624 373.933 418.312C361.592 415.047 349.083 412.452 336.461 410.537C324.808 408.799 312.761 407.778 301.095 409.694C298.264 405.23 294.42 401.228 290.865 397.396V397.396ZM286.079 450.412C281.475 450.445 276.877 450.709 272.3 451.202C278.659 437.377 288.587 425.659 300.74 416.383C300.999 416.186 301.209 415.931 301.352 415.639C325.763 413.479 350.135 418.509 373.683 424.605C385.994 427.798 398.081 431.663 410.049 435.942C415.9 438.031 421.7 440.263 427.449 442.637C429.273 443.387 431.09 444.224 432.92 445.033C431.831 445.467 430.889 446.205 430.208 447.16C426.258 445.494 421.932 444.684 417.699 444.085C412.347 443.315 406.949 442.867 401.577 442.321C391.076 441.248 380.582 440.023 370.056 439.279C350.905 437.919 331.659 439.172 312.847 443.006C307.641 444.072 302.478 445.338 297.356 446.804C293.617 447.89 289.772 448.983 286.079 450.412V450.412ZM290.476 450.445C296.75 448.516 302.985 446.534 309.45 445.093C318.765 443.008 328.212 441.56 337.725 440.761C357.35 439.121 376.679 441.07 396.205 442.999C402.097 443.578 407.995 444.105 413.881 444.763C419.266 445.363 424.59 446.414 429.799 447.904C429.533 448.482 429.361 449.1 429.293 449.734C429.257 450.117 429.257 450.503 429.293 450.886C426.31 450.313 423.078 450.339 420.214 450.149C415.101 449.811 409.988 449.571 404.875 449.431C394.664 449.135 384.467 449.227 374.236 449.648C364.396 450.061 354.576 450.803 344.776 451.873C339.825 452.407 334.901 453.098 329.97 453.848C327.106 454.289 323.749 454.507 320.621 455.099C320.292 454.76 319.875 454.518 319.417 454.401C309.949 452.001 300.241 450.674 290.476 450.445V450.445ZM319.733 460.893C323.09 460.649 326.619 459.642 329.772 459.22C334.598 458.562 339.443 458.042 344.256 457.509C354.412 456.385 364.598 455.613 374.815 455.191C384.532 454.796 394.258 454.722 403.993 454.968C408.856 455.086 413.716 455.279 418.575 455.547C422.722 455.784 427.647 456.811 431.801 455.902C433.19 457.221 434.692 458.415 436.291 459.471C441.996 463.473 447.678 467.48 453.335 471.492C456.749 473.901 460.175 476.304 463.611 478.7C445.178 472.598 425.231 470.353 405.988 469.141C395.316 468.483 384.598 468.108 373.907 467.989C363.688 467.888 353.488 468.894 343.485 470.991C332.373 473.269 321.207 475.382 310.128 477.851C313.213 472.124 316.415 466.471 319.733 460.893V460.893ZM449.747 490.458C436.422 488.003 423.038 485.804 409.549 484.461C384.898 481.97 360.02 482.903 335.625 487.232C323.935 489.355 312.394 492.232 301.076 495.843C303.709 490.287 306.467 484.801 309.351 479.385C319.344 477.522 329.285 475.317 339.233 473.276C344.321 472.236 349.397 471.116 354.539 470.366C359.732 469.663 364.967 469.318 370.207 469.332C391.274 469.207 412.683 470.155 433.545 473.243C444.814 474.98 455.937 477.553 466.824 480.939C473.517 485.6 480.241 490.223 486.995 494.81C486.363 496.17 485.729 497.533 485.093 498.898C474 494.184 461.492 492.631 449.747 490.458ZM616.674 457.015C613.349 459.8 608.116 461.663 604.291 463.737C596.029 468.22 587.832 472.841 579.669 477.456C579.262 477.684 578.939 478.037 578.748 478.463C578.558 478.888 578.509 479.364 578.609 479.82C582.546 499.031 584.067 518.658 583.139 538.247C583.04 540.373 583.402 543.513 582.632 545.488C581.256 549.03 577.437 547.062 574.988 545.488C570.867 542.855 567.266 539.201 563.737 535.837C556.657 529.07 550.014 521.86 543.849 514.25C543.467 513.845 542.963 513.576 542.414 513.485C541.865 513.393 541.3 513.484 540.808 513.744C519.175 526.081 497.555 538.484 475.83 550.656C473.638 551.881 469.642 554.231 468.18 550.748C467.456 549.017 468.253 546.489 468.839 544.823C470.715 539.32 473.842 534.04 476.344 528.793C480.109 520.893 483.98 513.033 487.825 505.165L489.339 502.038C490.436 499.787 491.534 497.531 492.631 495.271C492.986 494.667 493.098 493.951 492.942 493.268C492.787 492.585 492.376 491.987 491.795 491.597C482.245 485.04 472.71 478.457 463.19 471.847C458.336 468.45 453.495 465.04 448.667 461.617C446.561 460.125 444.469 458.619 442.393 457.101C440.359 455.626 437.193 454.059 435.705 451.972C433.387 448.68 438.759 449.069 440.655 449.062C443.559 449.062 446.462 449.062 449.365 449.062C455.172 449.062 460.978 449.062 466.785 449.062C478.924 449.115 491.064 449.286 503.197 449.405C503.636 449.416 504.07 449.313 504.457 449.105C504.844 448.897 505.17 448.592 505.402 448.22C511.071 437.686 513.625 426.159 515.6 414.454C517.575 402.749 518.832 390.563 523.382 379.562C526.581 371.833 533.869 382.801 535.554 386.284C538.266 391.906 540.617 397.791 542.796 403.624C547.134 415.204 551.723 426.666 555.903 438.325L556.7 440.958C556.788 441.259 556.958 441.531 557.19 441.742C557.422 441.953 557.708 442.097 558.016 442.156C575.265 445.323 591.091 447.002 608.53 449.332C612.842 449.958 623.659 451.182 616.674 457.015Z" fill="#231F20"/>
<path d="M556.45 500.333C569.57 490.597 569.728 472.124 560.67 459.484C558.357 456.224 555.42 453.454 552.03 451.337C548.64 449.219 544.864 447.795 540.92 447.147C533.829 446.034 525.357 447.403 521.209 453.894C517.542 459.642 517.022 469.444 519.491 475.758C522.289 482.894 531.268 485.29 538.313 484.375C541.736 483.934 545.172 482.025 546.364 478.589C547.509 475.297 545.929 471.459 544.159 468.714C542.598 466.284 539.827 464.263 536.864 465.586C534.573 466.6 533.507 469.214 534.784 471.38C534.935 471.639 535.173 471.835 535.455 471.935C535.738 472.035 536.046 472.031 536.326 471.924C536.606 471.817 536.839 471.615 536.983 471.352C537.128 471.09 537.174 470.785 537.114 470.491C538.681 469.613 539.686 469.942 540.13 471.479C540.527 472.286 540.863 473.123 541.137 473.98C541.663 476.061 541.137 477.871 539.024 478.589C536.173 479.517 531.907 478.51 529.181 477.371C523.21 474.869 524.027 465.968 525.357 460.748C527.187 453.506 534.843 452.4 541.229 453.835C544.392 454.568 547.375 455.931 549.999 457.843C552.623 459.754 554.835 462.175 556.502 464.961C562.888 475.494 561.96 489.642 550.768 496.377C538.754 503.618 526.844 497.818 515.251 493.085C513.243 492.262 511.762 495.106 513.098 496.548C523.796 508.036 543.875 509.636 556.45 500.333Z" fill="#231F20"/>
</svg>
